<?xml version="1.0" encoding="UTF-8" standalone="no"?>
<!DOCTYPE svg PUBLIC "-//W3C//DTD SVG 1.1//EN"
 "http://www.w3.org/Graphics/SVG/1.1/DTD/svg11.dtd">
<!-- Generated by graphviz version 10.0.1 (20240210.2158)
 -->
<!-- Title: StoreCategoryRequest Pages: 1 -->
<svg width="117pt" height="157pt"
 viewBox="0.00 0.00 117.00 157.00" xmlns="http://www.w3.org/2000/svg" xmlns:xlink="http://www.w3.org/1999/xlink">
<g id="graph0" class="graph" transform="scale(1 1) rotate(0) translate(4 153)">
<title>StoreCategoryRequest</title>
<!-- Node1 -->
<g id="Node000001" class="node">
<title>Node1</title>
<g id="a_Node000001"><a xlink:title=" ">
<polygon fill="#999999" stroke="none" points="109,-64 0,-64 0,0 109,0 109,-64"/>
<text text-anchor="start" x="4.62" y="-50.5" font-family="Helvetica,sans-Serif" font-size="10.00">StoreCategoryRequest</text>
<text text-anchor="start" x="53" y="-35.5" font-family="Helvetica,sans-Serif" font-size="10.00"> </text>
<text text-anchor="start" x="15.5" y="-20.5" font-family="Helvetica,sans-Serif" font-size="10.00">+</text>
<text text-anchor="start" x="37" y="-20.5" font-family="Helvetica,sans-Serif" font-size="10.00">authorize()</text>
<text text-anchor="start" x="15.5" y="-5.5" font-family="Helvetica,sans-Serif" font-size="10.00">+</text>
<text text-anchor="start" x="37" y="-5.5" font-family="Helvetica,sans-Serif" font-size="10.00">rules()</text>
<polygon fill="#666666" stroke="#666666" points="0,-47 0,-47 109,-47 109,-47 0,-47"/>
<polygon fill="#666666" stroke="#666666" points="0,-32 0,-32 109,-32 109,-32 0,-32"/>
<polygon fill="none" stroke="#666666" points="0,0 0,-64 109,-64 109,0 0,0"/>
</a>
</g>
</g>
<!-- Node2 -->
<g id="Node000002" class="node">
<title>Node2</title>
<g id="a_Node000002"><a xlink:title=" ">
<polygon fill="white" stroke="none" points="89,-149 20,-149 20,-100 89,-100 89,-149"/>
<text text-anchor="start" x="24.88" y="-135.5" font-family="Helvetica,sans-Serif" font-size="10.00">FormRequest</text>
<text text-anchor="start" x="53" y="-120.5" font-family="Helvetica,sans-Serif" font-size="10.00"> </text>
<text text-anchor="start" x="53" y="-105.5" font-family="Helvetica,sans-Serif" font-size="10.00"> </text>
<polygon fill="#666666" stroke="#666666" points="20,-132 20,-132 89,-132 89,-132 20,-132"/>
<polygon fill="#666666" stroke="#666666" points="20,-117 20,-117 89,-117 89,-117 20,-117"/>
<polygon fill="none" stroke="#666666" points="20,-100 20,-149 89,-149 89,-100 20,-100"/>
</a>
</g>
</g>
<!-- Node2&#45;&gt;Node1 -->
<g id="edge3_Node000001_Node000002" class="edge">
<title>Node2&#45;&gt;Node1</title>
<g id="a_edge3_Node000001_Node000002"><a xlink:title=" ">
<path fill="none" stroke="#63b8ff" d="M54.5,-88.93C54.5,-80.64 54.5,-71.84 54.5,-63.74"/>
<polygon fill="none" stroke="#63b8ff" points="51,-88.68 54.5,-98.68 58,-88.68 51,-88.68"/>
</a>
</g>
</g>
</g>
</svg>
