<?xml version="1.0" encoding="UTF-8" standalone="no"?>
<!DOCTYPE svg PUBLIC "-//W3C//DTD SVG 1.1//EN"
 "http://www.w3.org/Graphics/SVG/1.1/DTD/svg11.dtd">
<!-- Generated by graphviz version 10.0.1 (20240210.2158)
 -->
<!-- Title: PreventRequestsDuringMaintenance Pages: 1 -->
<svg width="177pt" height="142pt"
 viewBox="0.00 0.00 177.00 142.00" xmlns="http://www.w3.org/2000/svg" xmlns:xlink="http://www.w3.org/1999/xlink">
<g id="graph0" class="graph" transform="scale(1 1) rotate(0) translate(4 138)">
<title>PreventRequestsDuringMaintenance</title>
<!-- Node1 -->
<g id="Node000001" class="node">
<title>Node1</title>
<g id="a_Node000001"><a xlink:title=" ">
<polygon fill="#999999" stroke="none" points="169,-49 0,-49 0,0 169,0 169,-49"/>
<text text-anchor="start" x="4.62" y="-35.5" font-family="Helvetica,sans-Serif" font-size="10.00">PreventRequestsDuringMaintenance</text>
<text text-anchor="start" x="33.38" y="-20.5" font-family="Helvetica,sans-Serif" font-size="10.00">#</text>
<text text-anchor="start" x="72" y="-20.5" font-family="Helvetica,sans-Serif" font-size="10.00">$except</text>
<text text-anchor="start" x="83" y="-5.5" font-family="Helvetica,sans-Serif" font-size="10.00"> </text>
<polygon fill="#666666" stroke="#666666" points="0,-32 0,-32 169,-32 169,-32 0,-32"/>
<polygon fill="#666666" stroke="#666666" points="0,-17 0,-17 70,-17 70,-17 0,-17"/>
<polygon fill="#666666" stroke="#666666" points="70,-17 70,-17 169,-17 169,-17 70,-17"/>
<polygon fill="none" stroke="#666666" points="0,0 0,-49 169,-49 169,0 0,0"/>
</a>
</g>
</g>
<!-- Node2 -->
<g id="Node000002" class="node">
<title>Node2</title>
<g id="a_Node000002"><a xlink:href="$class_middleware.html" xlink:title=" ">
<polygon fill="white" stroke="none" points="114,-134 55,-134 55,-85 114,-85 114,-134"/>
<text text-anchor="start" x="59.75" y="-120.5" font-family="Helvetica,sans-Serif" font-size="10.00">Middleware</text>
<text text-anchor="start" x="83" y="-105.5" font-family="Helvetica,sans-Serif" font-size="10.00"> </text>
<text text-anchor="start" x="83" y="-90.5" font-family="Helvetica,sans-Serif" font-size="10.00"> </text>
<polygon fill="#666666" stroke="#666666" points="55,-117 55,-117 114,-117 114,-117 55,-117"/>
<polygon fill="#666666" stroke="#666666" points="55,-102 55,-102 114,-102 114,-102 55,-102"/>
<polygon fill="none" stroke="#666666" points="55,-85 55,-134 114,-134 114,-85 55,-85"/>
</a>
</g>
</g>
<!-- Node2&#45;&gt;Node1 -->
<g id="edge3_Node000001_Node000002" class="edge">
<title>Node2&#45;&gt;Node1</title>
<g id="a_edge3_Node000001_Node000002"><a xlink:title=" ">
<path fill="none" stroke="#63b8ff" d="M84.5,-74.14C84.5,-65.6 84.5,-56.65 84.5,-48.78"/>
<polygon fill="none" stroke="#63b8ff" points="81,-73.87 84.5,-83.87 88,-73.87 81,-73.87"/>
</a>
</g>
</g>
</g>
</svg>
