<?xml version="1.0" encoding="UTF-8" standalone="no"?>
<!DOCTYPE svg PUBLIC "-//W3C//DTD SVG 1.1//EN"
 "http://www.w3.org/Graphics/SVG/1.1/DTD/svg11.dtd">
<!-- Generated by graphviz version 10.0.1 (20240210.2158)
 -->
<!-- Title: HomeController Pages: 1 -->
<svg width="86pt" height="242pt"
 viewBox="0.00 0.00 86.00 242.00" xmlns="http://www.w3.org/2000/svg" xmlns:xlink="http://www.w3.org/1999/xlink">
<g id="graph0" class="graph" transform="scale(1 1) rotate(0) translate(4 238)">
<title>HomeController</title>
<!-- Node1 -->
<g id="Node000001" class="node">
<title>Node1</title>
<g id="a_Node000001"><a xlink:title=" ">
<polygon fill="#999999" stroke="none" points="78,-64 0,-64 0,0 78,0 78,-64"/>
<text text-anchor="start" x="4.88" y="-50.5" font-family="Helvetica,sans-Serif" font-size="10.00">HomeController</text>
<text text-anchor="start" x="37.5" y="-35.5" font-family="Helvetica,sans-Serif" font-size="10.00"> </text>
<text text-anchor="start" x="4.5" y="-20.5" font-family="Helvetica,sans-Serif" font-size="10.00">+</text>
<text text-anchor="start" x="15" y="-20.5" font-family="Helvetica,sans-Serif" font-size="10.00">__construct()</text>
<text text-anchor="start" x="4.5" y="-5.5" font-family="Helvetica,sans-Serif" font-size="10.00">+</text>
<text text-anchor="start" x="15" y="-5.5" font-family="Helvetica,sans-Serif" font-size="10.00">index()</text>
<polygon fill="#666666" stroke="#666666" points="0,-47 0,-47 78,-47 78,-47 0,-47"/>
<polygon fill="#666666" stroke="#666666" points="0,-32 0,-32 78,-32 78,-32 0,-32"/>
<polygon fill="none" stroke="#666666" points="0,0 0,-64 78,-64 78,0 0,0"/>
</a>
</g>
</g>
<!-- Node2 -->
<g id="Node000002" class="node">
<title>Node2</title>
<g id="a_Node000002"><a xlink:href="$class_app_1_1_http_1_1_controllers_1_1_controller.html" xlink:title=" ">
<polygon fill="white" stroke="none" points="65,-149 13,-149 13,-100 65,-100 65,-149"/>
<text text-anchor="start" x="18" y="-135.5" font-family="Helvetica,sans-Serif" font-size="10.00">Controller</text>
<text text-anchor="start" x="37.5" y="-120.5" font-family="Helvetica,sans-Serif" font-size="10.00"> </text>
<text text-anchor="start" x="37.5" y="-105.5" font-family="Helvetica,sans-Serif" font-size="10.00"> </text>
<polygon fill="#666666" stroke="#666666" points="13,-132 13,-132 65,-132 65,-132 13,-132"/>
<polygon fill="#666666" stroke="#666666" points="13,-117 13,-117 65,-117 65,-117 13,-117"/>
<polygon fill="none" stroke="#666666" points="13,-100 13,-149 65,-149 65,-100 13,-100"/>
</a>
</g>
</g>
<!-- Node2&#45;&gt;Node1 -->
<g id="edge5_Node000001_Node000002" class="edge">
<title>Node2&#45;&gt;Node1</title>
<g id="a_edge5_Node000001_Node000002"><a xlink:title=" ">
<path fill="none" stroke="#63b8ff" d="M39,-88.93C39,-80.64 39,-71.84 39,-63.74"/>
<polygon fill="none" stroke="#63b8ff" points="35.5,-88.68 39,-98.68 42.5,-88.68 35.5,-88.68"/>
</a>
</g>
</g>
<!-- Node3 -->
<g id="Node000003" class="node">
<title>Node3</title>
<g id="a_Node000003"><a xlink:href="$class_base_controller.html" xlink:title=" ">
<polygon fill="white" stroke="none" points="76,-234 2,-234 2,-185 76,-185 76,-234"/>
<text text-anchor="start" x="6.75" y="-220.5" font-family="Helvetica,sans-Serif" font-size="10.00">BaseController</text>
<text text-anchor="start" x="37.5" y="-205.5" font-family="Helvetica,sans-Serif" font-size="10.00"> </text>
<text text-anchor="start" x="37.5" y="-190.5" font-family="Helvetica,sans-Serif" font-size="10.00"> </text>
<polygon fill="#666666" stroke="#666666" points="2,-217 2,-217 76,-217 76,-217 2,-217"/>
<polygon fill="#666666" stroke="#666666" points="2,-202 2,-202 76,-202 76,-202 2,-202"/>
<polygon fill="none" stroke="#666666" points="2,-185 2,-234 76,-234 76,-185 2,-185"/>
</a>
</g>
</g>
<!-- Node3&#45;&gt;Node2 -->
<g id="edge6_Node000002_Node000003" class="edge">
<title>Node3&#45;&gt;Node2</title>
<g id="a_edge6_Node000002_Node000003"><a xlink:title=" ">
<path fill="none" stroke="#63b8ff" d="M39,-174.14C39,-165.6 39,-156.65 39,-148.78"/>
<polygon fill="none" stroke="#63b8ff" points="35.5,-173.87 39,-183.87 42.5,-173.87 35.5,-173.87"/>
</a>
</g>
</g>
</g>
</svg>
