<?xml version="1.0" encoding="UTF-8" standalone="no"?>
<!DOCTYPE svg PUBLIC "-//W3C//DTD SVG 1.1//EN"
 "http://www.w3.org/Graphics/SVG/1.1/DTD/svg11.dtd">
<!-- Generated by graphviz version 10.0.1 (20240210.2158)
 -->
<!-- Title: TrimStrings Pages: 1 -->
<svg width="68pt" height="142pt"
 viewBox="0.00 0.00 68.00 142.00" xmlns="http://www.w3.org/2000/svg" xmlns:xlink="http://www.w3.org/1999/xlink">
<g id="graph0" class="graph" transform="scale(1 1) rotate(0) translate(4 138)">
<title>TrimStrings</title>
<!-- Node1 -->
<g id="Node000001" class="node">
<title>Node1</title>
<g id="a_Node000001"><a xlink:title=" ">
<polygon fill="#999999" stroke="none" points="60,-49 0,-49 0,0 60,0 60,-49"/>
<text text-anchor="start" x="4.88" y="-35.5" font-family="Helvetica,sans-Serif" font-size="10.00">TrimStrings</text>
<text text-anchor="start" x="5.88" y="-20.5" font-family="Helvetica,sans-Serif" font-size="10.00">#</text>
<text text-anchor="start" x="17" y="-20.5" font-family="Helvetica,sans-Serif" font-size="10.00">$except</text>
<text text-anchor="start" x="28.5" y="-5.5" font-family="Helvetica,sans-Serif" font-size="10.00"> </text>
<polygon fill="#666666" stroke="#666666" points="0,-32 0,-32 60,-32 60,-32 0,-32"/>
<polygon fill="#666666" stroke="#666666" points="0,-17 0,-17 15,-17 15,-17 0,-17"/>
<polygon fill="#666666" stroke="#666666" points="15,-17 15,-17 60,-17 60,-17 15,-17"/>
<polygon fill="none" stroke="#666666" points="0,0 0,-49 60,-49 60,0 0,0"/>
</a>
</g>
</g>
<!-- Node2 -->
<g id="Node000002" class="node">
<title>Node2</title>
<g id="a_Node000002"><a xlink:href="$class_middleware.html" xlink:title=" ">
<polygon fill="white" stroke="none" points="59.5,-134 0.5,-134 0.5,-85 59.5,-85 59.5,-134"/>
<text text-anchor="start" x="5.25" y="-120.5" font-family="Helvetica,sans-Serif" font-size="10.00">Middleware</text>
<text text-anchor="start" x="28.5" y="-105.5" font-family="Helvetica,sans-Serif" font-size="10.00"> </text>
<text text-anchor="start" x="28.5" y="-90.5" font-family="Helvetica,sans-Serif" font-size="10.00"> </text>
<polygon fill="#666666" stroke="#666666" points="0.5,-117 0.5,-117 59.5,-117 59.5,-117 0.5,-117"/>
<polygon fill="#666666" stroke="#666666" points="0.5,-102 0.5,-102 59.5,-102 59.5,-102 0.5,-102"/>
<polygon fill="none" stroke="#666666" points="0.5,-85 0.5,-134 59.5,-134 59.5,-85 0.5,-85"/>
</a>
</g>
</g>
<!-- Node2&#45;&gt;Node1 -->
<g id="edge3_Node000001_Node000002" class="edge">
<title>Node2&#45;&gt;Node1</title>
<g id="a_edge3_Node000001_Node000002"><a xlink:title=" ">
<path fill="none" stroke="#63b8ff" d="M30,-74.14C30,-65.6 30,-56.65 30,-48.78"/>
<polygon fill="none" stroke="#63b8ff" points="26.5,-73.87 30,-83.87 33.5,-73.87 26.5,-73.87"/>
</a>
</g>
</g>
</g>
</svg>
