<?xml version="1.0" encoding="UTF-8" standalone="no"?>
<!DOCTYPE svg PUBLIC "-//W3C//DTD SVG 1.1//EN"
 "http://www.w3.org/Graphics/SVG/1.1/DTD/svg11.dtd">
<!-- Generated by graphviz version 10.0.1 (20240210.2158)
 -->
<!-- Title: ProduitsFactory Pages: 1 -->
<svg width="122pt" height="142pt"
 viewBox="0.00 0.00 121.50 142.00" xmlns="http://www.w3.org/2000/svg" xmlns:xlink="http://www.w3.org/1999/xlink">
<g id="graph0" class="graph" transform="scale(1 1) rotate(0) translate(4 138)">
<title>ProduitsFactory</title>
<!-- Node1 -->
<g id="Node000001" class="node">
<title>Node1</title>
<g id="a_Node000001"><a xlink:title=" ">
<polygon fill="#999999" stroke="none" points="98.5,-49 19.5,-49 19.5,0 98.5,0 98.5,-49"/>
<text text-anchor="start" x="24.5" y="-35.5" font-family="Helvetica,sans-Serif" font-size="10.00">ProduitsFactory</text>
<text text-anchor="start" x="57.5" y="-20.5" font-family="Helvetica,sans-Serif" font-size="10.00"> </text>
<text text-anchor="start" x="27.5" y="-5.5" font-family="Helvetica,sans-Serif" font-size="10.00">+</text>
<text text-anchor="start" x="41.5" y="-5.5" font-family="Helvetica,sans-Serif" font-size="10.00">definition()</text>
<polygon fill="#666666" stroke="#666666" points="19.5,-32 19.5,-32 98.5,-32 98.5,-32 19.5,-32"/>
<polygon fill="#666666" stroke="#666666" points="19.5,-17 19.5,-17 98.5,-17 98.5,-17 19.5,-17"/>
<polygon fill="none" stroke="#666666" points="19.5,0 19.5,-49 98.5,-49 98.5,0 19.5,0"/>
</a>
</g>
</g>
<!-- Node2 -->
<g id="Node000002" class="node">
<title>Node2</title>
<g id="a_Node000002"><a xlink:href="$class_illuminate.html" xlink:title=" ">
<polygon fill="white" stroke="none" points="52,-134 0,-134 0,-85 52,-85 52,-134"/>
<text text-anchor="start" x="5" y="-120.5" font-family="Helvetica,sans-Serif" font-size="10.00">Illuminate</text>
<text text-anchor="start" x="24.5" y="-105.5" font-family="Helvetica,sans-Serif" font-size="10.00"> </text>
<text text-anchor="start" x="24.5" y="-90.5" font-family="Helvetica,sans-Serif" font-size="10.00"> </text>
<polygon fill="#666666" stroke="#666666" points="0,-117 0,-117 52,-117 52,-117 0,-117"/>
<polygon fill="#666666" stroke="#666666" points="0,-102 0,-102 52,-102 52,-102 0,-102"/>
<polygon fill="none" stroke="#666666" points="0,-85 0,-134 52,-134 52,-85 0,-85"/>
</a>
</g>
</g>
<!-- Node2&#45;&gt;Node1 -->
<g id="edge5_Node000001_Node000002" class="edge">
<title>Node2&#45;&gt;Node1</title>
<g id="a_edge5_Node000001_Node000002"><a xlink:title=" ">
<path fill="none" stroke="#63b8ff" d="M39.43,-74.72C42.89,-66.01 46.54,-56.83 49.74,-48.78"/>
<polygon fill="none" stroke="#63b8ff" points="36.19,-73.39 35.75,-83.97 42.7,-75.97 36.19,-73.39"/>
</a>
</g>
</g>
<!-- Node3 -->
<g id="Node000003" class="node">
<title>Node3</title>
<g id="a_Node000003"><a xlink:title=" ">
<polygon fill="white" stroke="none" points="113.5,-134 70.5,-134 70.5,-85 113.5,-85 113.5,-134"/>
<text text-anchor="start" x="75.5" y="-120.5" font-family="Helvetica,sans-Serif" font-size="10.00">Factory</text>
<text text-anchor="start" x="90.5" y="-105.5" font-family="Helvetica,sans-Serif" font-size="10.00"> </text>
<text text-anchor="start" x="90.5" y="-90.5" font-family="Helvetica,sans-Serif" font-size="10.00"> </text>
<polygon fill="#666666" stroke="#666666" points="70.5,-117 70.5,-117 113.5,-117 113.5,-117 70.5,-117"/>
<polygon fill="#666666" stroke="#666666" points="70.5,-102 70.5,-102 113.5,-102 113.5,-102 70.5,-102"/>
<polygon fill="none" stroke="#666666" points="70.5,-85 70.5,-134 113.5,-134 113.5,-85 70.5,-85"/>
</a>
</g>
</g>
<!-- Node3&#45;&gt;Node1 -->
<g id="edge6_Node000001_Node000003" class="edge">
<title>Node3&#45;&gt;Node1</title>
<g id="a_edge6_Node000001_Node000003"><a xlink:title=" ">
<path fill="none" stroke="#63b8ff" d="M78.57,-74.72C75.11,-66.01 71.46,-56.83 68.26,-48.78"/>
<polygon fill="none" stroke="#63b8ff" points="75.3,-75.97 82.25,-83.97 81.81,-73.39 75.3,-75.97"/>
</a>
</g>
</g>
</g>
</svg>
