<?xml version="1.0" encoding="UTF-8" standalone="no"?>
<!DOCTYPE svg PUBLIC "-//W3C//DTD SVG 1.1//EN"
 "http://www.w3.org/Graphics/SVG/1.1/DTD/svg11.dtd">
<!-- Generated by graphviz version 10.0.1 (20240210.2158)
 -->
<!-- Title: ConsoleKernel Pages: 1 -->
<svg width="107pt" height="168pt"
 viewBox="0.00 0.00 107.00 168.00" xmlns="http://www.w3.org/2000/svg" xmlns:xlink="http://www.w3.org/1999/xlink">
<g id="graph0" class="graph" transform="scale(1 1) rotate(0) translate(4 164)">
<title>ConsoleKernel</title>
<!-- Node1 -->
<g id="Node000001" class="node">
<title>Node1</title>
<g id="a_Node000001"><a xlink:title=" ">
<polygon fill="#999999" stroke="none" points="86,-160 13,-160 13,-111 86,-111 86,-160"/>
<text text-anchor="start" x="17.62" y="-146.5" font-family="Helvetica,sans-Serif" font-size="10.00">ConsoleKernel</text>
<text text-anchor="start" x="48" y="-131.5" font-family="Helvetica,sans-Serif" font-size="10.00"> </text>
<text text-anchor="start" x="48" y="-116.5" font-family="Helvetica,sans-Serif" font-size="10.00"> </text>
<polygon fill="#666666" stroke="#666666" points="13,-143 13,-143 86,-143 86,-143 13,-143"/>
<polygon fill="#666666" stroke="#666666" points="13,-128 13,-128 86,-128 86,-128 13,-128"/>
<polygon fill="none" stroke="#666666" points="13,-111 13,-160 86,-160 86,-111 13,-111"/>
</a>
</g>
</g>
<!-- Node2 -->
<g id="Node000002" class="node">
<title>Node2</title>
<g id="a_Node000002"><a xlink:href="$class_app_1_1_console_1_1_kernel.html" xlink:title=" ">
<polygon fill="white" stroke="none" points="99,-75 0,-75 0,0 99,0 99,-75"/>
<text text-anchor="start" x="35.62" y="-61.5" font-family="Helvetica,sans-Serif" font-size="10.00">Kernel</text>
<text text-anchor="start" x="48" y="-46.5" font-family="Helvetica,sans-Serif" font-size="10.00"> </text>
<text text-anchor="start" x="3.88" y="-31.5" font-family="Helvetica,sans-Serif" font-size="10.00">#</text>
<text text-anchor="start" x="13" y="-31.5" font-family="Helvetica,sans-Serif" font-size="10.00">schedule(Schedule</text>
<text text-anchor="start" x="13" y="-20.25" font-family="Helvetica,sans-Serif" font-size="10.00"> $schedule)</text>
<text text-anchor="start" x="3.88" y="-5.5" font-family="Helvetica,sans-Serif" font-size="10.00">#</text>
<text text-anchor="start" x="13" y="-5.5" font-family="Helvetica,sans-Serif" font-size="10.00">commands()</text>
<polygon fill="#666666" stroke="#666666" points="0,-58 0,-58 99,-58 99,-58 0,-58"/>
<polygon fill="#666666" stroke="#666666" points="0,-43 0,-43 99,-43 99,-43 0,-43"/>
<polygon fill="none" stroke="#666666" points="0,0 0,-75 99,-75 99,0 0,0"/>
</a>
</g>
</g>
<!-- Node1&#45;&gt;Node2 -->
<g id="edge3_Node000001_Node000002" class="edge">
<title>Node1&#45;&gt;Node2</title>
<g id="a_edge3_Node000001_Node000002"><a xlink:title=" ">
<path fill="none" stroke="#63b8ff" d="M49.5,-99.8C49.5,-91.62 49.5,-82.88 49.5,-74.64"/>
<polygon fill="none" stroke="#63b8ff" points="46,-99.75 49.5,-109.75 53,-99.75 46,-99.75"/>
</a>
</g>
</g>
</g>
</svg>
