<?xml version="1.0" encoding="UTF-8" standalone="no"?>
<!DOCTYPE svg PUBLIC "-//W3C//DTD SVG 1.1//EN"
 "http://www.w3.org/Graphics/SVG/1.1/DTD/svg11.dtd">
<!-- Generated by graphviz version 10.0.1 (20240210.2158)
 -->
<!-- Title: AuthServiceProvider Pages: 1 -->
<svg width="107pt" height="142pt"
 viewBox="0.00 0.00 107.00 142.00" xmlns="http://www.w3.org/2000/svg" xmlns:xlink="http://www.w3.org/1999/xlink">
<g id="graph0" class="graph" transform="scale(1 1) rotate(0) translate(4 138)">
<title>AuthServiceProvider</title>
<!-- Node1 -->
<g id="Node000001" class="node">
<title>Node1</title>
<g id="a_Node000001"><a xlink:title=" ">
<polygon fill="#999999" stroke="none" points="99,-49 0,-49 0,0 99,0 99,-49"/>
<text text-anchor="start" x="4.88" y="-35.5" font-family="Helvetica,sans-Serif" font-size="10.00">AuthServiceProvider</text>
<text text-anchor="start" x="14.88" y="-20.5" font-family="Helvetica,sans-Serif" font-size="10.00">#</text>
<text text-anchor="start" x="35" y="-20.5" font-family="Helvetica,sans-Serif" font-size="10.00">$policies</text>
<text text-anchor="start" x="14.5" y="-5.5" font-family="Helvetica,sans-Serif" font-size="10.00">+</text>
<text text-anchor="start" x="35" y="-5.5" font-family="Helvetica,sans-Serif" font-size="10.00">boot()</text>
<polygon fill="#666666" stroke="#666666" points="0,-32 0,-32 99,-32 99,-32 0,-32"/>
<polygon fill="#666666" stroke="#666666" points="0,-17 0,-17 33,-17 33,-17 0,-17"/>
<polygon fill="#666666" stroke="#666666" points="33,-17 33,-17 99,-17 99,-17 33,-17"/>
<polygon fill="none" stroke="#666666" points="0,0 0,-49 99,-49 99,0 0,0"/>
</a>
</g>
</g>
<!-- Node2 -->
<g id="Node000002" class="node">
<title>Node2</title>
<g id="a_Node000002"><a xlink:title=" ">
<polygon fill="white" stroke="none" points="89,-134 10,-134 10,-85 89,-85 89,-134"/>
<text text-anchor="start" x="15" y="-120.5" font-family="Helvetica,sans-Serif" font-size="10.00">ServiceProvider</text>
<text text-anchor="start" x="48" y="-105.5" font-family="Helvetica,sans-Serif" font-size="10.00"> </text>
<text text-anchor="start" x="48" y="-90.5" font-family="Helvetica,sans-Serif" font-size="10.00"> </text>
<polygon fill="#666666" stroke="#666666" points="10,-117 10,-117 89,-117 89,-117 10,-117"/>
<polygon fill="#666666" stroke="#666666" points="10,-102 10,-102 89,-102 89,-102 10,-102"/>
<polygon fill="none" stroke="#666666" points="10,-85 10,-134 89,-134 89,-85 10,-85"/>
</a>
</g>
</g>
<!-- Node2&#45;&gt;Node1 -->
<g id="edge3_Node000001_Node000002" class="edge">
<title>Node2&#45;&gt;Node1</title>
<g id="a_edge3_Node000001_Node000002"><a xlink:title=" ">
<path fill="none" stroke="#63b8ff" d="M49.5,-74.14C49.5,-65.6 49.5,-56.65 49.5,-48.78"/>
<polygon fill="none" stroke="#63b8ff" points="46,-73.87 49.5,-83.87 53,-73.87 46,-73.87"/>
</a>
</g>
</g>
</g>
</svg>
