<?xml version="1.0" encoding="UTF-8" standalone="no"?>
<!DOCTYPE svg PUBLIC "-//W3C//DTD SVG 1.1//EN"
 "http://www.w3.org/Graphics/SVG/1.1/DTD/svg11.dtd">
<!-- Generated by graphviz version 10.0.1 (20240210.2158)
 -->
<!-- Title: UserController Pages: 1 -->
<svg width="82pt" height="227pt"
 viewBox="0.00 0.00 82.00 227.00" xmlns="http://www.w3.org/2000/svg" xmlns:xlink="http://www.w3.org/1999/xlink">
<g id="graph0" class="graph" transform="scale(1 1) rotate(0) translate(4 223)">
<title>UserController</title>
<!-- Node1 -->
<g id="Node000001" class="node">
<title>Node1</title>
<g id="a_Node000001"><a xlink:title=" ">
<polygon fill="#999999" stroke="none" points="73.5,-49 0.5,-49 0.5,0 73.5,0 73.5,-49"/>
<text text-anchor="start" x="5.5" y="-35.5" font-family="Helvetica,sans-Serif" font-size="10.00">UserController</text>
<text text-anchor="start" x="35.5" y="-20.5" font-family="Helvetica,sans-Serif" font-size="10.00"> </text>
<text text-anchor="start" x="35.5" y="-5.5" font-family="Helvetica,sans-Serif" font-size="10.00"> </text>
<polygon fill="#666666" stroke="#666666" points="0.5,-32 0.5,-32 73.5,-32 73.5,-32 0.5,-32"/>
<polygon fill="#666666" stroke="#666666" points="0.5,-17 0.5,-17 73.5,-17 73.5,-17 0.5,-17"/>
<polygon fill="none" stroke="#666666" points="0.5,0 0.5,-49 73.5,-49 73.5,0 0.5,0"/>
</a>
</g>
</g>
<!-- Node2 -->
<g id="Node000002" class="node">
<title>Node2</title>
<g id="a_Node000002"><a xlink:href="$class_app_1_1_http_1_1_controllers_1_1_controller.html" xlink:title=" ">
<polygon fill="white" stroke="none" points="63,-134 11,-134 11,-85 63,-85 63,-134"/>
<text text-anchor="start" x="16" y="-120.5" font-family="Helvetica,sans-Serif" font-size="10.00">Controller</text>
<text text-anchor="start" x="35.5" y="-105.5" font-family="Helvetica,sans-Serif" font-size="10.00"> </text>
<text text-anchor="start" x="35.5" y="-90.5" font-family="Helvetica,sans-Serif" font-size="10.00"> </text>
<polygon fill="#666666" stroke="#666666" points="11,-117 11,-117 63,-117 63,-117 11,-117"/>
<polygon fill="#666666" stroke="#666666" points="11,-102 11,-102 63,-102 63,-102 11,-102"/>
<polygon fill="none" stroke="#666666" points="11,-85 11,-134 63,-134 63,-85 11,-85"/>
</a>
</g>
</g>
<!-- Node2&#45;&gt;Node1 -->
<g id="edge5_Node000001_Node000002" class="edge">
<title>Node2&#45;&gt;Node1</title>
<g id="a_edge5_Node000001_Node000002"><a xlink:title=" ">
<path fill="none" stroke="#63b8ff" d="M37,-74.14C37,-65.6 37,-56.65 37,-48.78"/>
<polygon fill="none" stroke="#63b8ff" points="33.5,-73.87 37,-83.87 40.5,-73.87 33.5,-73.87"/>
</a>
</g>
</g>
<!-- Node3 -->
<g id="Node000003" class="node">
<title>Node3</title>
<g id="a_Node000003"><a xlink:href="$class_base_controller.html" xlink:title=" ">
<polygon fill="white" stroke="none" points="74,-219 0,-219 0,-170 74,-170 74,-219"/>
<text text-anchor="start" x="4.75" y="-205.5" font-family="Helvetica,sans-Serif" font-size="10.00">BaseController</text>
<text text-anchor="start" x="35.5" y="-190.5" font-family="Helvetica,sans-Serif" font-size="10.00"> </text>
<text text-anchor="start" x="35.5" y="-175.5" font-family="Helvetica,sans-Serif" font-size="10.00"> </text>
<polygon fill="#666666" stroke="#666666" points="0,-202 0,-202 74,-202 74,-202 0,-202"/>
<polygon fill="#666666" stroke="#666666" points="0,-187 0,-187 74,-187 74,-187 0,-187"/>
<polygon fill="none" stroke="#666666" points="0,-170 0,-219 74,-219 74,-170 0,-170"/>
</a>
</g>
</g>
<!-- Node3&#45;&gt;Node2 -->
<g id="edge6_Node000002_Node000003" class="edge">
<title>Node3&#45;&gt;Node2</title>
<g id="a_edge6_Node000002_Node000003"><a xlink:title=" ">
<path fill="none" stroke="#63b8ff" d="M37,-159.14C37,-150.6 37,-141.65 37,-133.78"/>
<polygon fill="none" stroke="#63b8ff" points="33.5,-158.87 37,-168.87 40.5,-158.87 33.5,-158.87"/>
</a>
</g>
</g>
</g>
</svg>
