<?xml version="1.0" encoding="UTF-8" standalone="no"?>
<!DOCTYPE svg PUBLIC "-//W3C//DTD SVG 1.1//EN"
 "http://www.w3.org/Graphics/SVG/1.1/DTD/svg11.dtd">
<!-- Generated by graphviz version 10.0.1 (20240210.2158)
 -->
<!-- Title: TrustHosts Pages: 1 -->
<svg width="67pt" height="142pt"
 viewBox="0.00 0.00 67.00 142.00" xmlns="http://www.w3.org/2000/svg" xmlns:xlink="http://www.w3.org/1999/xlink">
<g id="graph0" class="graph" transform="scale(1 1) rotate(0) translate(4 138)">
<title>TrustHosts</title>
<!-- Node1 -->
<g id="Node000001" class="node">
<title>Node1</title>
<g id="a_Node000001"><a xlink:title=" ">
<polygon fill="#999999" stroke="none" points="58.5,-49 0.5,-49 0.5,0 58.5,0 58.5,-49"/>
<text text-anchor="start" x="5.12" y="-35.5" font-family="Helvetica,sans-Serif" font-size="10.00">TrustHosts</text>
<text text-anchor="start" x="28" y="-20.5" font-family="Helvetica,sans-Serif" font-size="10.00"> </text>
<text text-anchor="start" x="7" y="-5.5" font-family="Helvetica,sans-Serif" font-size="10.00">+</text>
<text text-anchor="start" x="19.5" y="-5.5" font-family="Helvetica,sans-Serif" font-size="10.00">hosts()</text>
<polygon fill="#666666" stroke="#666666" points="0.5,-32 0.5,-32 58.5,-32 58.5,-32 0.5,-32"/>
<polygon fill="#666666" stroke="#666666" points="0.5,-17 0.5,-17 58.5,-17 58.5,-17 0.5,-17"/>
<polygon fill="none" stroke="#666666" points="0.5,0 0.5,-49 58.5,-49 58.5,0 0.5,0"/>
</a>
</g>
</g>
<!-- Node2 -->
<g id="Node000002" class="node">
<title>Node2</title>
<g id="a_Node000002"><a xlink:href="$class_middleware.html" xlink:title=" ">
<polygon fill="white" stroke="none" points="59,-134 0,-134 0,-85 59,-85 59,-134"/>
<text text-anchor="start" x="4.75" y="-120.5" font-family="Helvetica,sans-Serif" font-size="10.00">Middleware</text>
<text text-anchor="start" x="28" y="-105.5" font-family="Helvetica,sans-Serif" font-size="10.00"> </text>
<text text-anchor="start" x="28" y="-90.5" font-family="Helvetica,sans-Serif" font-size="10.00"> </text>
<polygon fill="#666666" stroke="#666666" points="0,-117 0,-117 59,-117 59,-117 0,-117"/>
<polygon fill="#666666" stroke="#666666" points="0,-102 0,-102 59,-102 59,-102 0,-102"/>
<polygon fill="none" stroke="#666666" points="0,-85 0,-134 59,-134 59,-85 0,-85"/>
</a>
</g>
</g>
<!-- Node2&#45;&gt;Node1 -->
<g id="edge3_Node000001_Node000002" class="edge">
<title>Node2&#45;&gt;Node1</title>
<g id="a_edge3_Node000001_Node000002"><a xlink:title=" ">
<path fill="none" stroke="#63b8ff" d="M29.5,-74.14C29.5,-65.6 29.5,-56.65 29.5,-48.78"/>
<polygon fill="none" stroke="#63b8ff" points="26,-73.87 29.5,-83.87 33,-73.87 26,-73.87"/>
</a>
</g>
</g>
</g>
</svg>
