<?xml version="1.0" encoding="UTF-8" standalone="no"?>
<!DOCTYPE svg PUBLIC "-//W3C//DTD SVG 1.1//EN"
 "http://www.w3.org/Graphics/SVG/1.1/DTD/svg11.dtd">
<!-- Generated by graphviz version 10.0.1 (20240210.2158)
 -->
<!-- Title: BaseController Pages: 1 -->
<svg width="884pt" height="339pt"
 viewBox="0.00 0.00 883.50 339.00" xmlns="http://www.w3.org/2000/svg" xmlns:xlink="http://www.w3.org/1999/xlink">
<g id="graph0" class="graph" transform="scale(1 1) rotate(0) translate(4 335)">
<title>BaseController</title>
<!-- Node1 -->
<g id="Node000001" class="node">
<title>Node1</title>
<g id="a_Node000001"><a xlink:title=" ">
<polygon fill="#999999" stroke="none" points="460,-331 386,-331 386,-282 460,-282 460,-331"/>
<text text-anchor="start" x="390.75" y="-317.5" font-family="Helvetica,sans-Serif" font-size="10.00">BaseController</text>
<text text-anchor="start" x="421.5" y="-302.5" font-family="Helvetica,sans-Serif" font-size="10.00"> </text>
<text text-anchor="start" x="421.5" y="-287.5" font-family="Helvetica,sans-Serif" font-size="10.00"> </text>
<polygon fill="#666666" stroke="#666666" points="386,-314 386,-314 460,-314 460,-314 386,-314"/>
<polygon fill="#666666" stroke="#666666" points="386,-299 386,-299 460,-299 460,-299 386,-299"/>
<polygon fill="none" stroke="#666666" points="386,-282 386,-331 460,-331 460,-282 386,-282"/>
</a>
</g>
</g>
<!-- Node2 -->
<g id="Node000002" class="node">
<title>Node2</title>
<g id="a_Node000002"><a xlink:href="$class_app_1_1_http_1_1_controllers_1_1_controller.html" xlink:title=" ">
<polygon fill="white" stroke="none" points="449,-246 397,-246 397,-197 449,-197 449,-246"/>
<text text-anchor="start" x="402" y="-232.5" font-family="Helvetica,sans-Serif" font-size="10.00">Controller</text>
<text text-anchor="start" x="421.5" y="-217.5" font-family="Helvetica,sans-Serif" font-size="10.00"> </text>
<text text-anchor="start" x="421.5" y="-202.5" font-family="Helvetica,sans-Serif" font-size="10.00"> </text>
<polygon fill="#666666" stroke="#666666" points="397,-229 397,-229 449,-229 449,-229 397,-229"/>
<polygon fill="#666666" stroke="#666666" points="397,-214 397,-214 449,-214 449,-214 397,-214"/>
<polygon fill="none" stroke="#666666" points="397,-197 397,-246 449,-246 449,-197 397,-197"/>
</a>
</g>
</g>
<!-- Node1&#45;&gt;Node2 -->
<g id="edge17_Node000001_Node000002" class="edge">
<title>Node1&#45;&gt;Node2</title>
<g id="a_edge17_Node000001_Node000002"><a xlink:title=" ">
<path fill="none" stroke="#63b8ff" d="M423,-271.14C423,-262.6 423,-253.65 423,-245.78"/>
<polygon fill="none" stroke="#63b8ff" points="419.5,-270.87 423,-280.87 426.5,-270.87 419.5,-270.87"/>
</a>
</g>
</g>
<!-- Node3 -->
<g id="Node000003" class="node">
<title>Node3</title>
<g id="a_Node000003"><a xlink:href="$class_app_1_1_http_1_1_controllers_1_1_category_controller.html" xlink:title=" ">
<polygon fill="white" stroke="none" points="132,-161 0,-161 0,0 132,0 132,-161"/>
<text text-anchor="start" x="25.12" y="-147.5" font-family="Helvetica,sans-Serif" font-size="10.00">CategoryController</text>
<text text-anchor="start" x="64.5" y="-132.5" font-family="Helvetica,sans-Serif" font-size="10.00"> </text>
<text text-anchor="start" x="4" y="-117.5" font-family="Helvetica,sans-Serif" font-size="10.00">+</text>
<text text-anchor="start" x="14" y="-117.5" font-family="Helvetica,sans-Serif" font-size="10.00">index()</text>
<text text-anchor="start" x="4" y="-102.5" font-family="Helvetica,sans-Serif" font-size="10.00">+</text>
<text text-anchor="start" x="14" y="-102.5" font-family="Helvetica,sans-Serif" font-size="10.00">create()</text>
<text text-anchor="start" x="4" y="-87.5" font-family="Helvetica,sans-Serif" font-size="10.00">+</text>
<text text-anchor="start" x="14" y="-87.5" font-family="Helvetica,sans-Serif" font-size="10.00">store(Request $request)</text>
<text text-anchor="start" x="4" y="-72.5" font-family="Helvetica,sans-Serif" font-size="10.00">+</text>
<text text-anchor="start" x="14" y="-72.5" font-family="Helvetica,sans-Serif" font-size="10.00">show(Category $category)</text>
<text text-anchor="start" x="4" y="-57.5" font-family="Helvetica,sans-Serif" font-size="10.00">+</text>
<text text-anchor="start" x="14" y="-57.5" font-family="Helvetica,sans-Serif" font-size="10.00">edit(Category $category)</text>
<text text-anchor="start" x="4" y="-42.5" font-family="Helvetica,sans-Serif" font-size="10.00">+</text>
<text text-anchor="start" x="14" y="-42.5" font-family="Helvetica,sans-Serif" font-size="10.00">update(Request $request,</text>
<text text-anchor="start" x="14" y="-31.25" font-family="Helvetica,sans-Serif" font-size="10.00"> Category $category)</text>
<text text-anchor="start" x="4" y="-16.5" font-family="Helvetica,sans-Serif" font-size="10.00">+</text>
<text text-anchor="start" x="14" y="-16.5" font-family="Helvetica,sans-Serif" font-size="10.00">destroy(Category </text>
<text text-anchor="start" x="14" y="-5.25" font-family="Helvetica,sans-Serif" font-size="10.00">$category)</text>
<polygon fill="#666666" stroke="#666666" points="0,-144 0,-144 132,-144 132,-144 0,-144"/>
<polygon fill="#666666" stroke="#666666" points="0,-129 0,-129 132,-129 132,-129 0,-129"/>
<polygon fill="none" stroke="#666666" points="0,0 0,-161 132,-161 132,0 0,0"/>
</a>
</g>
</g>
<!-- Node2&#45;&gt;Node3 -->
<g id="edge18_Node000002_Node000003" class="edge">
<title>Node2&#45;&gt;Node3</title>
<g id="a_edge18_Node000002_Node000003"><a xlink:title=" ">
<path fill="none" stroke="#63b8ff" d="M385.89,-219.63C329.51,-216.84 220.44,-205.57 141,-161 137.86,-159.24 134.77,-157.3 131.74,-155.22"/>
<polygon fill="none" stroke="#63b8ff" points="385.44,-223.11 395.58,-220.04 385.74,-216.12 385.44,-223.11"/>
</a>
</g>
</g>
<!-- Node4 -->
<g id="Node000004" class="node">
<title>Node4</title>
<g id="a_Node000004"><a xlink:href="$class_app_1_1_http_1_1_controllers_1_1_home_controller.html" xlink:title=" ">
<polygon fill="white" stroke="none" points="228,-112.5 150,-112.5 150,-48.5 228,-48.5 228,-112.5"/>
<text text-anchor="start" x="154.88" y="-99" font-family="Helvetica,sans-Serif" font-size="10.00">HomeController</text>
<text text-anchor="start" x="187.5" y="-84" font-family="Helvetica,sans-Serif" font-size="10.00"> </text>
<text text-anchor="start" x="154.5" y="-69" font-family="Helvetica,sans-Serif" font-size="10.00">+</text>
<text text-anchor="start" x="165" y="-69" font-family="Helvetica,sans-Serif" font-size="10.00">__construct()</text>
<text text-anchor="start" x="154.5" y="-54" font-family="Helvetica,sans-Serif" font-size="10.00">+</text>
<text text-anchor="start" x="165" y="-54" font-family="Helvetica,sans-Serif" font-size="10.00">index()</text>
<polygon fill="#666666" stroke="#666666" points="150,-95.5 150,-95.5 228,-95.5 228,-95.5 150,-95.5"/>
<polygon fill="#666666" stroke="#666666" points="150,-80.5 150,-80.5 228,-80.5 228,-80.5 150,-80.5"/>
<polygon fill="none" stroke="#666666" points="150,-48.5 150,-112.5 228,-112.5 228,-48.5 150,-48.5"/>
</a>
</g>
</g>
<!-- Node2&#45;&gt;Node4 -->
<g id="edge19_Node000002_Node000004" class="edge">
<title>Node2&#45;&gt;Node4</title>
<g id="a_edge19_Node000002_Node000004"><a xlink:title=" ">
<path fill="none" stroke="#63b8ff" d="M385.98,-216.46C345.63,-210.41 280.95,-195.72 237,-161 221.06,-148.41 209.18,-128.95 201.23,-112.44"/>
<polygon fill="none" stroke="#63b8ff" points="385.29,-219.89 395.68,-217.8 386.25,-212.96 385.29,-219.89"/>
</a>
</g>
</g>
<!-- Node5 -->
<g id="Node000005" class="node">
<title>Node5</title>
<g id="a_Node000005"><a xlink:href="$class_app_1_1_http_1_1_controllers_1_1_inventaire_controller.html" xlink:title=" ">
<polygon fill="white" stroke="none" points="340,-105 246,-105 246,-56 340,-56 340,-105"/>
<text text-anchor="start" x="250.62" y="-91.5" font-family="Helvetica,sans-Serif" font-size="10.00">InventaireController</text>
<text text-anchor="start" x="291.5" y="-76.5" font-family="Helvetica,sans-Serif" font-size="10.00"> </text>
<text text-anchor="start" x="261.5" y="-61.5" font-family="Helvetica,sans-Serif" font-size="10.00">+</text>
<text text-anchor="start" x="283" y="-61.5" font-family="Helvetica,sans-Serif" font-size="10.00">index()</text>
<polygon fill="#666666" stroke="#666666" points="246,-88 246,-88 340,-88 340,-88 246,-88"/>
<polygon fill="#666666" stroke="#666666" points="246,-73 246,-73 340,-73 340,-73 246,-73"/>
<polygon fill="none" stroke="#666666" points="246,-56 246,-105 340,-105 340,-56 246,-56"/>
</a>
</g>
</g>
<!-- Node2&#45;&gt;Node5 -->
<g id="edge20_Node000002_Node000005" class="edge">
<title>Node2&#45;&gt;Node5</title>
<g id="a_edge20_Node000002_Node000005"><a xlink:title=" ">
<path fill="none" stroke="#63b8ff" d="M388.05,-195.65C375.09,-185.62 360.71,-173.48 349,-161 332.71,-143.64 317.38,-121.29 306.89,-104.71"/>
<polygon fill="none" stroke="#63b8ff" points="385.88,-198.4 395.97,-201.64 390.1,-192.81 385.88,-198.4"/>
</a>
</g>
</g>
<!-- Node6 -->
<g id="Node000006" class="node">
<title>Node6</title>
<g id="a_Node000006"><a xlink:href="$class_app_1_1_http_1_1_controllers_1_1_lieux_controller.html" xlink:title=" ">
<polygon fill="white" stroke="none" points="488,-155.5 358,-155.5 358,-5.5 488,-5.5 488,-155.5"/>
<text text-anchor="start" x="390.38" y="-142" font-family="Helvetica,sans-Serif" font-size="10.00">LieuxController</text>
<text text-anchor="start" x="421.5" y="-127" font-family="Helvetica,sans-Serif" font-size="10.00"> </text>
<text text-anchor="start" x="362" y="-112" font-family="Helvetica,sans-Serif" font-size="10.00">+</text>
<text text-anchor="start" x="372" y="-112" font-family="Helvetica,sans-Serif" font-size="10.00">getLieux()</text>
<text text-anchor="start" x="362" y="-97" font-family="Helvetica,sans-Serif" font-size="10.00">+</text>
<text text-anchor="start" x="372" y="-97" font-family="Helvetica,sans-Serif" font-size="10.00">getSallesByLieu($lieuId)</text>
<text text-anchor="start" x="362" y="-82" font-family="Helvetica,sans-Serif" font-size="10.00">+</text>
<text text-anchor="start" x="372" y="-82" font-family="Helvetica,sans-Serif" font-size="10.00">create()</text>
<text text-anchor="start" x="362" y="-67" font-family="Helvetica,sans-Serif" font-size="10.00">+</text>
<text text-anchor="start" x="372" y="-67" font-family="Helvetica,sans-Serif" font-size="10.00">store(Request $request)</text>
<text text-anchor="start" x="362" y="-52" font-family="Helvetica,sans-Serif" font-size="10.00">+</text>
<text text-anchor="start" x="372" y="-52" font-family="Helvetica,sans-Serif" font-size="10.00">edit(Lieux $lieu)</text>
<text text-anchor="start" x="362" y="-37" font-family="Helvetica,sans-Serif" font-size="10.00">+</text>
<text text-anchor="start" x="372" y="-37" font-family="Helvetica,sans-Serif" font-size="10.00">update(Request $request,</text>
<text text-anchor="start" x="372" y="-25.75" font-family="Helvetica,sans-Serif" font-size="10.00"> $lieu)</text>
<text text-anchor="start" x="362" y="-11" font-family="Helvetica,sans-Serif" font-size="10.00">+</text>
<text text-anchor="start" x="372" y="-11" font-family="Helvetica,sans-Serif" font-size="10.00">destroy(Lieux $lieu)</text>
<polygon fill="#666666" stroke="#666666" points="358,-138.5 358,-138.5 488,-138.5 488,-138.5 358,-138.5"/>
<polygon fill="#666666" stroke="#666666" points="358,-123.5 358,-123.5 488,-123.5 488,-123.5 358,-123.5"/>
<polygon fill="none" stroke="#666666" points="358,-5.5 358,-155.5 488,-155.5 488,-5.5 358,-5.5"/>
</a>
</g>
</g>
<!-- Node2&#45;&gt;Node6 -->
<g id="edge21_Node000002_Node000006" class="edge">
<title>Node2&#45;&gt;Node6</title>
<g id="a_edge21_Node000002_Node000006"><a xlink:title=" ">
<path fill="none" stroke="#63b8ff" d="M423,-186C423,-176.57 423,-165.99 423,-155.27"/>
<polygon fill="none" stroke="#63b8ff" points="419.5,-185.72 423,-195.72 426.5,-185.72 419.5,-185.72"/>
</a>
</g>
</g>
<!-- Node7 -->
<g id="Node000007" class="node">
<title>Node7</title>
<g id="a_Node000007"><a xlink:href="$class_app_1_1_http_1_1_controllers_1_1_personnel_controller.html" xlink:title=" ">
<polygon fill="white" stroke="none" points="636,-155.5 506,-155.5 506,-5.5 636,-5.5 636,-155.5"/>
<text text-anchor="start" x="528.25" y="-142" font-family="Helvetica,sans-Serif" font-size="10.00">PersonnelController</text>
<text text-anchor="start" x="569.5" y="-127" font-family="Helvetica,sans-Serif" font-size="10.00"> </text>
<text text-anchor="start" x="510" y="-112" font-family="Helvetica,sans-Serif" font-size="10.00">+</text>
<text text-anchor="start" x="520" y="-112" font-family="Helvetica,sans-Serif" font-size="10.00">index()</text>
<text text-anchor="start" x="510" y="-97" font-family="Helvetica,sans-Serif" font-size="10.00">+</text>
<text text-anchor="start" x="520" y="-97" font-family="Helvetica,sans-Serif" font-size="10.00">create()</text>
<text text-anchor="start" x="510" y="-82" font-family="Helvetica,sans-Serif" font-size="10.00">+</text>
<text text-anchor="start" x="520" y="-82" font-family="Helvetica,sans-Serif" font-size="10.00">store(Request $request)</text>
<text text-anchor="start" x="510" y="-67" font-family="Helvetica,sans-Serif" font-size="10.00">+</text>
<text text-anchor="start" x="520" y="-67" font-family="Helvetica,sans-Serif" font-size="10.00">show($id)</text>
<text text-anchor="start" x="510" y="-52" font-family="Helvetica,sans-Serif" font-size="10.00">+</text>
<text text-anchor="start" x="520" y="-52" font-family="Helvetica,sans-Serif" font-size="10.00">edit(string $id)</text>
<text text-anchor="start" x="510" y="-37" font-family="Helvetica,sans-Serif" font-size="10.00">+</text>
<text text-anchor="start" x="520" y="-37" font-family="Helvetica,sans-Serif" font-size="10.00">update(Request $request,</text>
<text text-anchor="start" x="520" y="-25.75" font-family="Helvetica,sans-Serif" font-size="10.00"> $id)</text>
<text text-anchor="start" x="510" y="-11" font-family="Helvetica,sans-Serif" font-size="10.00">+</text>
<text text-anchor="start" x="520" y="-11" font-family="Helvetica,sans-Serif" font-size="10.00">destroy($id)</text>
<polygon fill="#666666" stroke="#666666" points="506,-138.5 506,-138.5 636,-138.5 636,-138.5 506,-138.5"/>
<polygon fill="#666666" stroke="#666666" points="506,-123.5 506,-123.5 636,-123.5 636,-123.5 506,-123.5"/>
<polygon fill="none" stroke="#666666" points="506,-5.5 506,-155.5 636,-155.5 636,-5.5 506,-5.5"/>
</a>
</g>
</g>
<!-- Node2&#45;&gt;Node7 -->
<g id="edge22_Node000002_Node000007" class="edge">
<title>Node2&#45;&gt;Node7</title>
<g id="a_edge22_Node000002_Node000007"><a xlink:title=" ">
<path fill="none" stroke="#63b8ff" d="M457.68,-194.3C470.38,-184.27 484.66,-172.47 497,-161 500.04,-158.17 503.1,-155.25 506.16,-152.26"/>
<polygon fill="none" stroke="#63b8ff" points="455.68,-191.42 449.95,-200.33 459.99,-196.94 455.68,-191.42"/>
</a>
</g>
</g>
<!-- Node8 -->
<g id="Node000008" class="node">
<title>Node8</title>
<g id="a_Node000008"><a xlink:href="$class_app_1_1_http_1_1_controllers_1_1_produits_controller.html" xlink:title=" ">
<polygon fill="white" stroke="none" points="784,-155.5 654,-155.5 654,-5.5 784,-5.5 784,-155.5"/>
<text text-anchor="start" x="680" y="-142" font-family="Helvetica,sans-Serif" font-size="10.00">ProduitsController</text>
<text text-anchor="start" x="717.5" y="-127" font-family="Helvetica,sans-Serif" font-size="10.00"> </text>
<text text-anchor="start" x="658" y="-112" font-family="Helvetica,sans-Serif" font-size="10.00">+</text>
<text text-anchor="start" x="668" y="-112" font-family="Helvetica,sans-Serif" font-size="10.00">index()</text>
<text text-anchor="start" x="658" y="-97" font-family="Helvetica,sans-Serif" font-size="10.00">+</text>
<text text-anchor="start" x="668" y="-97" font-family="Helvetica,sans-Serif" font-size="10.00">create()</text>
<text text-anchor="start" x="658" y="-82" font-family="Helvetica,sans-Serif" font-size="10.00">+</text>
<text text-anchor="start" x="668" y="-82" font-family="Helvetica,sans-Serif" font-size="10.00">store(Request $request)</text>
<text text-anchor="start" x="658" y="-67" font-family="Helvetica,sans-Serif" font-size="10.00">+</text>
<text text-anchor="start" x="668" y="-67" font-family="Helvetica,sans-Serif" font-size="10.00">show(string $id)</text>
<text text-anchor="start" x="658" y="-52" font-family="Helvetica,sans-Serif" font-size="10.00">+</text>
<text text-anchor="start" x="668" y="-52" font-family="Helvetica,sans-Serif" font-size="10.00">edit(string $id)</text>
<text text-anchor="start" x="658" y="-37" font-family="Helvetica,sans-Serif" font-size="10.00">+</text>
<text text-anchor="start" x="668" y="-37" font-family="Helvetica,sans-Serif" font-size="10.00">update(Request $request,</text>
<text text-anchor="start" x="668" y="-25.75" font-family="Helvetica,sans-Serif" font-size="10.00"> $id)</text>
<text text-anchor="start" x="658" y="-11" font-family="Helvetica,sans-Serif" font-size="10.00">+</text>
<text text-anchor="start" x="668" y="-11" font-family="Helvetica,sans-Serif" font-size="10.00">destroy($id)</text>
<polygon fill="#666666" stroke="#666666" points="654,-138.5 654,-138.5 784,-138.5 784,-138.5 654,-138.5"/>
<polygon fill="#666666" stroke="#666666" points="654,-123.5 654,-123.5 784,-123.5 784,-123.5 654,-123.5"/>
<polygon fill="none" stroke="#666666" points="654,-5.5 654,-155.5 784,-155.5 784,-5.5 654,-5.5"/>
</a>
</g>
</g>
<!-- Node2&#45;&gt;Node8 -->
<g id="edge23_Node000002_Node000008" class="edge">
<title>Node2&#45;&gt;Node8</title>
<g id="a_edge23_Node000002_Node000008"><a xlink:title=" ">
<path fill="none" stroke="#63b8ff" d="M460,-216.91C506.17,-211.08 586.18,-196.38 645,-161 648.07,-159.15 651.09,-157.14 654.06,-155"/>
<polygon fill="none" stroke="#63b8ff" points="459.78,-213.42 450.26,-218.07 460.6,-220.37 459.78,-213.42"/>
</a>
</g>
</g>
<!-- Node9 -->
<g id="Node000009" class="node">
<title>Node9</title>
<g id="a_Node000009"><a xlink:href="$class_app_1_1_http_1_1_controllers_1_1_user_controller.html" xlink:title=" ">
<polygon fill="white" stroke="none" points="875.5,-105 802.5,-105 802.5,-56 875.5,-56 875.5,-105"/>
<text text-anchor="start" x="807.5" y="-91.5" font-family="Helvetica,sans-Serif" font-size="10.00">UserController</text>
<text text-anchor="start" x="837.5" y="-76.5" font-family="Helvetica,sans-Serif" font-size="10.00"> </text>
<text text-anchor="start" x="837.5" y="-61.5" font-family="Helvetica,sans-Serif" font-size="10.00"> </text>
<polygon fill="#666666" stroke="#666666" points="802.5,-88 802.5,-88 875.5,-88 875.5,-88 802.5,-88"/>
<polygon fill="#666666" stroke="#666666" points="802.5,-73 802.5,-73 875.5,-73 875.5,-73 802.5,-73"/>
<polygon fill="none" stroke="#666666" points="802.5,-56 802.5,-105 875.5,-105 875.5,-56 802.5,-56"/>
</a>
</g>
</g>
<!-- Node2&#45;&gt;Node9 -->
<g id="edge24_Node000002_Node000009" class="edge">
<title>Node2&#45;&gt;Node9</title>
<g id="a_edge24_Node000002_Node000009"><a xlink:title=" ">
<path fill="none" stroke="#63b8ff" d="M460.19,-218.53C542.95,-213.52 739.3,-197.96 793,-161 812.44,-147.62 824.78,-123.14 831.73,-104.86"/>
<polygon fill="none" stroke="#63b8ff" points="460.12,-215.03 450.34,-219.11 460.53,-222.02 460.12,-215.03"/>
</a>
</g>
</g>
</g>
</svg>
