<?xml version="1.0" encoding="UTF-8" standalone="no"?>
<!DOCTYPE svg PUBLIC "-//W3C//DTD SVG 1.1//EN"
 "http://www.w3.org/Graphics/SVG/1.1/DTD/svg11.dtd">
<!-- Generated by graphviz version 10.0.1 (20240210.2158)
 -->
<!-- Title: PersonnelController Pages: 1 -->
<svg width="138pt" height="328pt"
 viewBox="0.00 0.00 138.00 328.00" xmlns="http://www.w3.org/2000/svg" xmlns:xlink="http://www.w3.org/1999/xlink">
<g id="graph0" class="graph" transform="scale(1 1) rotate(0) translate(4 324)">
<title>PersonnelController</title>
<!-- Node1 -->
<g id="Node000001" class="node">
<title>Node1</title>
<g id="a_Node000001"><a xlink:title=" ">
<polygon fill="#999999" stroke="none" points="130,-150 0,-150 0,0 130,0 130,-150"/>
<text text-anchor="start" x="22.25" y="-136.5" font-family="Helvetica,sans-Serif" font-size="10.00">PersonnelController</text>
<text text-anchor="start" x="63.5" y="-121.5" font-family="Helvetica,sans-Serif" font-size="10.00"> </text>
<text text-anchor="start" x="4" y="-106.5" font-family="Helvetica,sans-Serif" font-size="10.00">+</text>
<text text-anchor="start" x="14" y="-106.5" font-family="Helvetica,sans-Serif" font-size="10.00">index()</text>
<text text-anchor="start" x="4" y="-91.5" font-family="Helvetica,sans-Serif" font-size="10.00">+</text>
<text text-anchor="start" x="14" y="-91.5" font-family="Helvetica,sans-Serif" font-size="10.00">create()</text>
<text text-anchor="start" x="4" y="-76.5" font-family="Helvetica,sans-Serif" font-size="10.00">+</text>
<text text-anchor="start" x="14" y="-76.5" font-family="Helvetica,sans-Serif" font-size="10.00">store(Request $request)</text>
<text text-anchor="start" x="4" y="-61.5" font-family="Helvetica,sans-Serif" font-size="10.00">+</text>
<text text-anchor="start" x="14" y="-61.5" font-family="Helvetica,sans-Serif" font-size="10.00">show($id)</text>
<text text-anchor="start" x="4" y="-46.5" font-family="Helvetica,sans-Serif" font-size="10.00">+</text>
<text text-anchor="start" x="14" y="-46.5" font-family="Helvetica,sans-Serif" font-size="10.00">edit(string $id)</text>
<text text-anchor="start" x="4" y="-31.5" font-family="Helvetica,sans-Serif" font-size="10.00">+</text>
<text text-anchor="start" x="14" y="-31.5" font-family="Helvetica,sans-Serif" font-size="10.00">update(Request $request,</text>
<text text-anchor="start" x="14" y="-20.25" font-family="Helvetica,sans-Serif" font-size="10.00"> $id)</text>
<text text-anchor="start" x="4" y="-5.5" font-family="Helvetica,sans-Serif" font-size="10.00">+</text>
<text text-anchor="start" x="14" y="-5.5" font-family="Helvetica,sans-Serif" font-size="10.00">destroy($id)</text>
<polygon fill="#666666" stroke="#666666" points="0,-133 0,-133 130,-133 130,-133 0,-133"/>
<polygon fill="#666666" stroke="#666666" points="0,-118 0,-118 130,-118 130,-118 0,-118"/>
<polygon fill="none" stroke="#666666" points="0,0 0,-150 130,-150 130,0 0,0"/>
</a>
</g>
</g>
<!-- Node2 -->
<g id="Node000002" class="node">
<title>Node2</title>
<g id="a_Node000002"><a xlink:href="$class_app_1_1_http_1_1_controllers_1_1_controller.html" xlink:title=" ">
<polygon fill="white" stroke="none" points="91,-235 39,-235 39,-186 91,-186 91,-235"/>
<text text-anchor="start" x="44" y="-221.5" font-family="Helvetica,sans-Serif" font-size="10.00">Controller</text>
<text text-anchor="start" x="63.5" y="-206.5" font-family="Helvetica,sans-Serif" font-size="10.00"> </text>
<text text-anchor="start" x="63.5" y="-191.5" font-family="Helvetica,sans-Serif" font-size="10.00"> </text>
<polygon fill="#666666" stroke="#666666" points="39,-218 39,-218 91,-218 91,-218 39,-218"/>
<polygon fill="#666666" stroke="#666666" points="39,-203 39,-203 91,-203 91,-203 39,-203"/>
<polygon fill="none" stroke="#666666" points="39,-186 39,-235 91,-235 91,-186 39,-186"/>
</a>
</g>
</g>
<!-- Node2&#45;&gt;Node1 -->
<g id="edge5_Node000001_Node000002" class="edge">
<title>Node2&#45;&gt;Node1</title>
<g id="a_edge5_Node000001_Node000002"><a xlink:title=" ">
<path fill="none" stroke="#63b8ff" d="M65,-174.74C65,-166.97 65,-158.44 65,-149.75"/>
<polygon fill="none" stroke="#63b8ff" points="61.5,-174.73 65,-184.73 68.5,-174.73 61.5,-174.73"/>
</a>
</g>
</g>
<!-- Node3 -->
<g id="Node000003" class="node">
<title>Node3</title>
<g id="a_Node000003"><a xlink:href="$class_base_controller.html" xlink:title=" ">
<polygon fill="white" stroke="none" points="102,-320 28,-320 28,-271 102,-271 102,-320"/>
<text text-anchor="start" x="32.75" y="-306.5" font-family="Helvetica,sans-Serif" font-size="10.00">BaseController</text>
<text text-anchor="start" x="63.5" y="-291.5" font-family="Helvetica,sans-Serif" font-size="10.00"> </text>
<text text-anchor="start" x="63.5" y="-276.5" font-family="Helvetica,sans-Serif" font-size="10.00"> </text>
<polygon fill="#666666" stroke="#666666" points="28,-303 28,-303 102,-303 102,-303 28,-303"/>
<polygon fill="#666666" stroke="#666666" points="28,-288 28,-288 102,-288 102,-288 28,-288"/>
<polygon fill="none" stroke="#666666" points="28,-271 28,-320 102,-320 102,-271 28,-271"/>
</a>
</g>
</g>
<!-- Node3&#45;&gt;Node2 -->
<g id="edge6_Node000002_Node000003" class="edge">
<title>Node3&#45;&gt;Node2</title>
<g id="a_edge6_Node000002_Node000003"><a xlink:title=" ">
<path fill="none" stroke="#63b8ff" d="M65,-260.14C65,-251.6 65,-242.65 65,-234.78"/>
<polygon fill="none" stroke="#63b8ff" points="61.5,-259.87 65,-269.87 68.5,-259.87 61.5,-259.87"/>
</a>
</g>
</g>
</g>
</svg>
