<?xml version="1.0" encoding="UTF-8" standalone="no"?>
<!DOCTYPE svg PUBLIC "-//W3C//DTD SVG 1.1//EN"
 "http://www.w3.org/Graphics/SVG/1.1/DTD/svg11.dtd">
<!-- Generated by graphviz version 10.0.1 (20240210.2158)
 -->
<!-- Title: CreateLieuxTable Pages: 1 -->
<svg width="93pt" height="157pt"
 viewBox="0.00 0.00 93.00 157.00" xmlns="http://www.w3.org/2000/svg" xmlns:xlink="http://www.w3.org/1999/xlink">
<g id="graph0" class="graph" transform="scale(1 1) rotate(0) translate(4 153)">
<title>CreateLieuxTable</title>
<!-- Node1 -->
<g id="Node000001" class="node">
<title>Node1</title>
<g id="a_Node000001"><a xlink:title=" ">
<polygon fill="#999999" stroke="none" points="85,-64 0,-64 0,0 85,0 85,-64"/>
<text text-anchor="start" x="4.62" y="-50.5" font-family="Helvetica,sans-Serif" font-size="10.00">CreateLieuxTable</text>
<text text-anchor="start" x="41" y="-35.5" font-family="Helvetica,sans-Serif" font-size="10.00"> </text>
<text text-anchor="start" x="13.5" y="-20.5" font-family="Helvetica,sans-Serif" font-size="10.00">+</text>
<text text-anchor="start" x="33" y="-20.5" font-family="Helvetica,sans-Serif" font-size="10.00">up()</text>
<text text-anchor="start" x="13.5" y="-5.5" font-family="Helvetica,sans-Serif" font-size="10.00">+</text>
<text text-anchor="start" x="33" y="-5.5" font-family="Helvetica,sans-Serif" font-size="10.00">down()</text>
<polygon fill="#666666" stroke="#666666" points="0,-47 0,-47 85,-47 85,-47 0,-47"/>
<polygon fill="#666666" stroke="#666666" points="0,-32 0,-32 85,-32 85,-32 0,-32"/>
<polygon fill="none" stroke="#666666" points="0,0 0,-64 85,-64 85,0 0,0"/>
</a>
</g>
</g>
<!-- Node2 -->
<g id="Node000002" class="node">
<title>Node2</title>
<g id="a_Node000002"><a xlink:title=" ">
<polygon fill="white" stroke="none" points="67,-149 18,-149 18,-100 67,-100 67,-149"/>
<text text-anchor="start" x="22.62" y="-135.5" font-family="Helvetica,sans-Serif" font-size="10.00">Migration</text>
<text text-anchor="start" x="41" y="-120.5" font-family="Helvetica,sans-Serif" font-size="10.00"> </text>
<text text-anchor="start" x="41" y="-105.5" font-family="Helvetica,sans-Serif" font-size="10.00"> </text>
<polygon fill="#666666" stroke="#666666" points="18,-132 18,-132 67,-132 67,-132 18,-132"/>
<polygon fill="#666666" stroke="#666666" points="18,-117 18,-117 67,-117 67,-117 18,-117"/>
<polygon fill="none" stroke="#666666" points="18,-100 18,-149 67,-149 67,-100 18,-100"/>
</a>
</g>
</g>
<!-- Node2&#45;&gt;Node1 -->
<g id="edge3_Node000001_Node000002" class="edge">
<title>Node2&#45;&gt;Node1</title>
<g id="a_edge3_Node000001_Node000002"><a xlink:title=" ">
<path fill="none" stroke="#63b8ff" d="M42.5,-88.93C42.5,-80.64 42.5,-71.84 42.5,-63.74"/>
<polygon fill="none" stroke="#63b8ff" points="39,-88.68 42.5,-98.68 46,-88.68 39,-88.68"/>
</a>
</g>
</g>
</g>
</svg>
