<?xml version="1.0" encoding="UTF-8" standalone="no"?>
<!DOCTYPE svg PUBLIC "-//W3C//DTD SVG 1.1//EN"
 "http://www.w3.org/Graphics/SVG/1.1/DTD/svg11.dtd">
<!-- Generated by graphviz version 10.0.1 (20240210.2158)
 -->
<!-- Title: BroadcastServiceProvider Pages: 1 -->
<svg width="131pt" height="142pt"
 viewBox="0.00 0.00 131.00 142.00" xmlns="http://www.w3.org/2000/svg" xmlns:xlink="http://www.w3.org/1999/xlink">
<g id="graph0" class="graph" transform="scale(1 1) rotate(0) translate(4 138)">
<title>BroadcastServiceProvider</title>
<!-- Node1 -->
<g id="Node000001" class="node">
<title>Node1</title>
<g id="a_Node000001"><a xlink:title=" ">
<polygon fill="#999999" stroke="none" points="123,-49 0,-49 0,0 123,0 123,-49"/>
<text text-anchor="start" x="4.88" y="-35.5" font-family="Helvetica,sans-Serif" font-size="10.00">BroadcastServiceProvider</text>
<text text-anchor="start" x="60" y="-20.5" font-family="Helvetica,sans-Serif" font-size="10.00"> </text>
<text text-anchor="start" x="24" y="-5.5" font-family="Helvetica,sans-Serif" font-size="10.00">+</text>
<text text-anchor="start" x="54" y="-5.5" font-family="Helvetica,sans-Serif" font-size="10.00">boot()</text>
<polygon fill="#666666" stroke="#666666" points="0,-32 0,-32 123,-32 123,-32 0,-32"/>
<polygon fill="#666666" stroke="#666666" points="0,-17 0,-17 123,-17 123,-17 0,-17"/>
<polygon fill="none" stroke="#666666" points="0,0 0,-49 123,-49 123,0 0,0"/>
</a>
</g>
</g>
<!-- Node2 -->
<g id="Node000002" class="node">
<title>Node2</title>
<g id="a_Node000002"><a xlink:title=" ">
<polygon fill="white" stroke="none" points="101,-134 22,-134 22,-85 101,-85 101,-134"/>
<text text-anchor="start" x="27" y="-120.5" font-family="Helvetica,sans-Serif" font-size="10.00">ServiceProvider</text>
<text text-anchor="start" x="60" y="-105.5" font-family="Helvetica,sans-Serif" font-size="10.00"> </text>
<text text-anchor="start" x="60" y="-90.5" font-family="Helvetica,sans-Serif" font-size="10.00"> </text>
<polygon fill="#666666" stroke="#666666" points="22,-117 22,-117 101,-117 101,-117 22,-117"/>
<polygon fill="#666666" stroke="#666666" points="22,-102 22,-102 101,-102 101,-102 22,-102"/>
<polygon fill="none" stroke="#666666" points="22,-85 22,-134 101,-134 101,-85 22,-85"/>
</a>
</g>
</g>
<!-- Node2&#45;&gt;Node1 -->
<g id="edge3_Node000001_Node000002" class="edge">
<title>Node2&#45;&gt;Node1</title>
<g id="a_edge3_Node000001_Node000002"><a xlink:title=" ">
<path fill="none" stroke="#63b8ff" d="M61.5,-74.14C61.5,-65.6 61.5,-56.65 61.5,-48.78"/>
<polygon fill="none" stroke="#63b8ff" points="58,-73.87 61.5,-83.87 65,-73.87 58,-73.87"/>
</a>
</g>
</g>
</g>
</svg>
