<?xml version="1.0" encoding="UTF-8" standalone="no"?>
<!DOCTYPE svg PUBLIC "-//W3C//DTD SVG 1.1//EN"
 "http://www.w3.org/Graphics/SVG/1.1/DTD/svg11.dtd">
<!-- Generated by graphviz version 10.0.1 (20240210.2158)
 -->
<!-- Title: DatabaseSeeder Pages: 1 -->
<svg width="90pt" height="142pt"
 viewBox="0.00 0.00 90.00 142.00" xmlns="http://www.w3.org/2000/svg" xmlns:xlink="http://www.w3.org/1999/xlink">
<g id="graph0" class="graph" transform="scale(1 1) rotate(0) translate(4 138)">
<title>DatabaseSeeder</title>
<!-- Node1 -->
<g id="Node000001" class="node">
<title>Node1</title>
<g id="a_Node000001"><a xlink:title=" ">
<polygon fill="#999999" stroke="none" points="82,-49 0,-49 0,0 82,0 82,-49"/>
<text text-anchor="start" x="4.62" y="-35.5" font-family="Helvetica,sans-Serif" font-size="10.00">DatabaseSeeder</text>
<text text-anchor="start" x="39.5" y="-20.5" font-family="Helvetica,sans-Serif" font-size="10.00"> </text>
<text text-anchor="start" x="15" y="-5.5" font-family="Helvetica,sans-Serif" font-size="10.00">+</text>
<text text-anchor="start" x="36" y="-5.5" font-family="Helvetica,sans-Serif" font-size="10.00">run()</text>
<polygon fill="#666666" stroke="#666666" points="0,-32 0,-32 82,-32 82,-32 0,-32"/>
<polygon fill="#666666" stroke="#666666" points="0,-17 0,-17 82,-17 82,-17 0,-17"/>
<polygon fill="none" stroke="#666666" points="0,0 0,-49 82,-49 82,0 0,0"/>
</a>
</g>
</g>
<!-- Node2 -->
<g id="Node000002" class="node">
<title>Node2</title>
<g id="a_Node000002"><a xlink:title=" ">
<polygon fill="white" stroke="none" points="61,-134 21,-134 21,-85 61,-85 61,-134"/>
<text text-anchor="start" x="25.62" y="-120.5" font-family="Helvetica,sans-Serif" font-size="10.00">Seeder</text>
<text text-anchor="start" x="39.5" y="-105.5" font-family="Helvetica,sans-Serif" font-size="10.00"> </text>
<text text-anchor="start" x="39.5" y="-90.5" font-family="Helvetica,sans-Serif" font-size="10.00"> </text>
<polygon fill="#666666" stroke="#666666" points="21,-117 21,-117 61,-117 61,-117 21,-117"/>
<polygon fill="#666666" stroke="#666666" points="21,-102 21,-102 61,-102 61,-102 21,-102"/>
<polygon fill="none" stroke="#666666" points="21,-85 21,-134 61,-134 61,-85 21,-85"/>
</a>
</g>
</g>
<!-- Node2&#45;&gt;Node1 -->
<g id="edge3_Node000001_Node000002" class="edge">
<title>Node2&#45;&gt;Node1</title>
<g id="a_edge3_Node000001_Node000002"><a xlink:title=" ">
<path fill="none" stroke="#63b8ff" d="M41,-74.14C41,-65.6 41,-56.65 41,-48.78"/>
<polygon fill="none" stroke="#63b8ff" points="37.5,-73.87 41,-83.87 44.5,-73.87 37.5,-73.87"/>
</a>
</g>
</g>
</g>
</svg>
