<?xml version="1.0" encoding="UTF-8" standalone="no"?>
<!DOCTYPE svg PUBLIC "-//W3C//DTD SVG 1.1//EN"
 "http://www.w3.org/Graphics/SVG/1.1/DTD/svg11.dtd">
<!-- Generated by graphviz version 10.0.1 (20240210.2158)
 -->
<!-- Title: EncryptCookies Pages: 1 -->
<svg width="87pt" height="142pt"
 viewBox="0.00 0.00 87.00 142.00" xmlns="http://www.w3.org/2000/svg" xmlns:xlink="http://www.w3.org/1999/xlink">
<g id="graph0" class="graph" transform="scale(1 1) rotate(0) translate(4 138)">
<title>EncryptCookies</title>
<!-- Node1 -->
<g id="Node000001" class="node">
<title>Node1</title>
<g id="a_Node000001"><a xlink:title=" ">
<polygon fill="#999999" stroke="none" points="79,-49 0,-49 0,0 79,0 79,-49"/>
<text text-anchor="start" x="4.62" y="-35.5" font-family="Helvetica,sans-Serif" font-size="10.00">EncryptCookies</text>
<text text-anchor="start" x="10.88" y="-20.5" font-family="Helvetica,sans-Serif" font-size="10.00">#</text>
<text text-anchor="start" x="27" y="-20.5" font-family="Helvetica,sans-Serif" font-size="10.00">$except</text>
<text text-anchor="start" x="38" y="-5.5" font-family="Helvetica,sans-Serif" font-size="10.00"> </text>
<polygon fill="#666666" stroke="#666666" points="0,-32 0,-32 79,-32 79,-32 0,-32"/>
<polygon fill="#666666" stroke="#666666" points="0,-17 0,-17 25,-17 25,-17 0,-17"/>
<polygon fill="#666666" stroke="#666666" points="25,-17 25,-17 79,-17 79,-17 25,-17"/>
<polygon fill="none" stroke="#666666" points="0,0 0,-49 79,-49 79,0 0,0"/>
</a>
</g>
</g>
<!-- Node2 -->
<g id="Node000002" class="node">
<title>Node2</title>
<g id="a_Node000002"><a xlink:href="$class_middleware.html" xlink:title=" ">
<polygon fill="white" stroke="none" points="69,-134 10,-134 10,-85 69,-85 69,-134"/>
<text text-anchor="start" x="14.75" y="-120.5" font-family="Helvetica,sans-Serif" font-size="10.00">Middleware</text>
<text text-anchor="start" x="38" y="-105.5" font-family="Helvetica,sans-Serif" font-size="10.00"> </text>
<text text-anchor="start" x="38" y="-90.5" font-family="Helvetica,sans-Serif" font-size="10.00"> </text>
<polygon fill="#666666" stroke="#666666" points="10,-117 10,-117 69,-117 69,-117 10,-117"/>
<polygon fill="#666666" stroke="#666666" points="10,-102 10,-102 69,-102 69,-102 10,-102"/>
<polygon fill="none" stroke="#666666" points="10,-85 10,-134 69,-134 69,-85 10,-85"/>
</a>
</g>
</g>
<!-- Node2&#45;&gt;Node1 -->
<g id="edge3_Node000001_Node000002" class="edge">
<title>Node2&#45;&gt;Node1</title>
<g id="a_edge3_Node000001_Node000002"><a xlink:title=" ">
<path fill="none" stroke="#63b8ff" d="M39.5,-74.14C39.5,-65.6 39.5,-56.65 39.5,-48.78"/>
<polygon fill="none" stroke="#63b8ff" points="36,-73.87 39.5,-83.87 43,-73.87 36,-73.87"/>
</a>
</g>
</g>
</g>
</svg>
