<?xml version="1.0" encoding="UTF-8" standalone="no"?>
<!DOCTYPE svg PUBLIC "-//W3C//DTD SVG 1.1//EN"
 "http://www.w3.org/Graphics/SVG/1.1/DTD/svg11.dtd">
<!-- Generated by graphviz version 10.0.1 (20240210.2158)
 -->
<!-- Title: RouteServiceProvider Pages: 1 -->
<svg width="144pt" height="153pt"
 viewBox="0.00 0.00 143.50 153.25" xmlns="http://www.w3.org/2000/svg" xmlns:xlink="http://www.w3.org/1999/xlink">
<g id="graph0" class="graph" transform="scale(1 1) rotate(0) translate(4 149.25)">
<title>RouteServiceProvider</title>
<!-- Node1 -->
<g id="Node000001" class="node">
<title>Node1</title>
<g id="a_Node000001"><a xlink:title=" ">
<polygon fill="#999999" stroke="none" points="129,-49 24,-49 24,0 129,0 129,-49"/>
<text text-anchor="start" x="28.88" y="-35.5" font-family="Helvetica,sans-Serif" font-size="10.00">RouteServiceProvider</text>
<text text-anchor="start" x="75" y="-20.5" font-family="Helvetica,sans-Serif" font-size="10.00"> </text>
<text text-anchor="start" x="43.5" y="-5.5" font-family="Helvetica,sans-Serif" font-size="10.00">+</text>
<text text-anchor="start" x="69" y="-5.5" font-family="Helvetica,sans-Serif" font-size="10.00">boot()</text>
<polygon fill="#666666" stroke="#666666" points="24,-32 24,-32 129,-32 129,-32 24,-32"/>
<polygon fill="#666666" stroke="#666666" points="24,-17 24,-17 129,-17 129,-17 24,-17"/>
<polygon fill="none" stroke="#666666" points="24,0 24,-49 129,-49 129,0 24,0"/>
</a>
</g>
</g>
<!-- Node2 -->
<g id="Node000002" class="node">
<title>Node2</title>
<g id="a_Node000002"><a xlink:title=" ">
<polygon fill="white" stroke="none" points="79,-145.25 0,-145.25 0,-96.25 79,-96.25 79,-145.25"/>
<text text-anchor="start" x="5" y="-131.75" font-family="Helvetica,sans-Serif" font-size="10.00">ServiceProvider</text>
<text text-anchor="start" x="38" y="-116.75" font-family="Helvetica,sans-Serif" font-size="10.00"> </text>
<text text-anchor="start" x="38" y="-101.75" font-family="Helvetica,sans-Serif" font-size="10.00"> </text>
<polygon fill="#666666" stroke="#666666" points="0,-128.25 0,-128.25 79,-128.25 79,-128.25 0,-128.25"/>
<polygon fill="#666666" stroke="#666666" points="0,-113.25 0,-113.25 79,-113.25 79,-113.25 0,-113.25"/>
<polygon fill="none" stroke="#666666" points="0,-96.25 0,-145.25 79,-145.25 79,-96.25 0,-96.25"/>
</a>
</g>
</g>
<!-- Node2&#45;&gt;Node1 -->
<g id="edge5_Node000001_Node000002" class="edge">
<title>Node2&#45;&gt;Node1</title>
<g id="a_edge5_Node000001_Node000002"><a xlink:title=" ">
<path fill="none" stroke="#63b8ff" d="M52.72,-86.06C57.56,-73.74 62.92,-60.08 67.33,-48.86"/>
<polygon fill="none" stroke="#63b8ff" points="49.6,-84.46 49.2,-95.04 56.11,-87.01 49.6,-84.46"/>
</a>
</g>
</g>
<!-- Node3 -->
<g id="Node000003" class="node">
<title>Node3</title>
<g id="a_Node000003"><a xlink:title=" ">
<polygon fill="white" stroke="none" points="131.5,-145.25 97.5,-145.25 97.5,-96.25 131.5,-96.25 131.5,-145.25"/>
<text text-anchor="start" x="102.5" y="-131.75" font-family="Helvetica,sans-Serif" font-size="10.00">const</text>
<text text-anchor="start" x="113" y="-116.75" font-family="Helvetica,sans-Serif" font-size="10.00"> </text>
<text text-anchor="start" x="113" y="-101.75" font-family="Helvetica,sans-Serif" font-size="10.00"> </text>
<polygon fill="#666666" stroke="#666666" points="97.5,-128.25 97.5,-128.25 131.5,-128.25 131.5,-128.25 97.5,-128.25"/>
<polygon fill="#666666" stroke="#666666" points="97.5,-113.25 97.5,-113.25 131.5,-113.25 131.5,-113.25 97.5,-113.25"/>
<polygon fill="none" stroke="#666666" points="97.5,-96.25 97.5,-145.25 131.5,-145.25 131.5,-96.25 97.5,-96.25"/>
</a>
</g>
</g>
<!-- Node3&#45;&gt;Node1 -->
<g id="edge6_Node000001_Node000003" class="edge">
<title>Node3&#45;&gt;Node1</title>
<g id="a_edge6_Node000001_Node000003"><a xlink:title=" ">
<path fill="none" stroke="#63b8ff" d="M105.11,-96.45C100.77,-85.69 95.52,-72.68 90.71,-60.75"/>
<polygon fill="none" stroke="#63b8ff" points="90.74,-60.82 84.79,-56.75 86.25,-49.69 92.21,-53.76 90.74,-60.82"/>
</a>
</g>
<text text-anchor="middle" x="116" y="-68.75" font-family="Helvetica,sans-Serif" font-size="10.00" fill="grey"> +HOME</text>
</g>
</g>
</svg>
