<?xml version="1.0" encoding="UTF-8" standalone="no"?>
<!DOCTYPE svg PUBLIC "-//W3C//DTD SVG 1.1//EN"
 "http://www.w3.org/Graphics/SVG/1.1/DTD/svg11.dtd">
<!-- Generated by graphviz version 10.0.1 (20240210.2158)
 -->
<!-- Title: Category Pages: 1 -->
<svg width="69pt" height="142pt"
 viewBox="0.00 0.00 69.00 142.00" xmlns="http://www.w3.org/2000/svg" xmlns:xlink="http://www.w3.org/1999/xlink">
<g id="graph0" class="graph" transform="scale(1 1) rotate(0) translate(4 138)">
<title>Category</title>
<!-- Node1 -->
<g id="Node000001" class="node">
<title>Node1</title>
<g id="a_Node000001"><a xlink:title=" ">
<polygon fill="#999999" stroke="none" points="61,-49 0,-49 0,0 61,0 61,-49"/>
<text text-anchor="start" x="10.62" y="-35.5" font-family="Helvetica,sans-Serif" font-size="10.00">Category</text>
<text text-anchor="start" x="4.38" y="-20.5" font-family="Helvetica,sans-Serif" font-size="10.00">#</text>
<text text-anchor="start" x="14" y="-20.5" font-family="Helvetica,sans-Serif" font-size="10.00">$fillable</text>
<text text-anchor="start" x="4" y="-5.5" font-family="Helvetica,sans-Serif" font-size="10.00">+</text>
<text text-anchor="start" x="14" y="-5.5" font-family="Helvetica,sans-Serif" font-size="10.00">products()</text>
<polygon fill="#666666" stroke="#666666" points="0,-32 0,-32 61,-32 61,-32 0,-32"/>
<polygon fill="#666666" stroke="#666666" points="0,-17 0,-17 12,-17 12,-17 0,-17"/>
<polygon fill="#666666" stroke="#666666" points="12,-17 12,-17 61,-17 61,-17 12,-17"/>
<polygon fill="none" stroke="#666666" points="0,0 0,-49 61,-49 61,0 0,0"/>
</a>
</g>
</g>
<!-- Node2 -->
<g id="Node000002" class="node">
<title>Node2</title>
<g id="a_Node000002"><a xlink:title=" ">
<polygon fill="white" stroke="none" points="48.5,-134 12.5,-134 12.5,-85 48.5,-85 48.5,-134"/>
<text text-anchor="start" x="17.38" y="-120.5" font-family="Helvetica,sans-Serif" font-size="10.00">Model</text>
<text text-anchor="start" x="29" y="-105.5" font-family="Helvetica,sans-Serif" font-size="10.00"> </text>
<text text-anchor="start" x="29" y="-90.5" font-family="Helvetica,sans-Serif" font-size="10.00"> </text>
<polygon fill="#666666" stroke="#666666" points="12.5,-117 12.5,-117 48.5,-117 48.5,-117 12.5,-117"/>
<polygon fill="#666666" stroke="#666666" points="12.5,-102 12.5,-102 48.5,-102 48.5,-102 12.5,-102"/>
<polygon fill="none" stroke="#666666" points="12.5,-85 12.5,-134 48.5,-134 48.5,-85 12.5,-85"/>
</a>
</g>
</g>
<!-- Node2&#45;&gt;Node1 -->
<g id="edge1_Node000001_Node000002" class="edge">
<title>Node2&#45;&gt;Node1</title>
<g id="a_edge1_Node000001_Node000002"><a xlink:title=" ">
<path fill="none" stroke="#63b8ff" d="M30.5,-74.14C30.5,-65.6 30.5,-56.65 30.5,-48.78"/>
<polygon fill="none" stroke="#63b8ff" points="27,-73.87 30.5,-83.87 34,-73.87 27,-73.87"/>
</a>
</g>
</g>
</g>
</svg>
