<?xml version="1.0" encoding="UTF-8" standalone="no"?>
<!DOCTYPE svg PUBLIC "-//W3C//DTD SVG 1.1//EN"
 "http://www.w3.org/Graphics/SVG/1.1/DTD/svg11.dtd">
<!-- Generated by graphviz version 10.0.1 (20240210.2158)
 -->
<!-- Title: CategoryController Pages: 1 -->
<svg width="140pt" height="339pt"
 viewBox="0.00 0.00 140.00 339.00" xmlns="http://www.w3.org/2000/svg" xmlns:xlink="http://www.w3.org/1999/xlink">
<g id="graph0" class="graph" transform="scale(1 1) rotate(0) translate(4 335)">
<title>CategoryController</title>
<!-- Node1 -->
<g id="Node000001" class="node">
<title>Node1</title>
<g id="a_Node000001"><a xlink:title=" ">
<polygon fill="#999999" stroke="none" points="132,-161 0,-161 0,0 132,0 132,-161"/>
<text text-anchor="start" x="25.12" y="-147.5" font-family="Helvetica,sans-Serif" font-size="10.00">CategoryController</text>
<text text-anchor="start" x="64.5" y="-132.5" font-family="Helvetica,sans-Serif" font-size="10.00"> </text>
<text text-anchor="start" x="4" y="-117.5" font-family="Helvetica,sans-Serif" font-size="10.00">+</text>
<text text-anchor="start" x="14" y="-117.5" font-family="Helvetica,sans-Serif" font-size="10.00">index()</text>
<text text-anchor="start" x="4" y="-102.5" font-family="Helvetica,sans-Serif" font-size="10.00">+</text>
<text text-anchor="start" x="14" y="-102.5" font-family="Helvetica,sans-Serif" font-size="10.00">create()</text>
<text text-anchor="start" x="4" y="-87.5" font-family="Helvetica,sans-Serif" font-size="10.00">+</text>
<text text-anchor="start" x="14" y="-87.5" font-family="Helvetica,sans-Serif" font-size="10.00">store(Request $request)</text>
<text text-anchor="start" x="4" y="-72.5" font-family="Helvetica,sans-Serif" font-size="10.00">+</text>
<text text-anchor="start" x="14" y="-72.5" font-family="Helvetica,sans-Serif" font-size="10.00">show(Category $category)</text>
<text text-anchor="start" x="4" y="-57.5" font-family="Helvetica,sans-Serif" font-size="10.00">+</text>
<text text-anchor="start" x="14" y="-57.5" font-family="Helvetica,sans-Serif" font-size="10.00">edit(Category $category)</text>
<text text-anchor="start" x="4" y="-42.5" font-family="Helvetica,sans-Serif" font-size="10.00">+</text>
<text text-anchor="start" x="14" y="-42.5" font-family="Helvetica,sans-Serif" font-size="10.00">update(Request $request,</text>
<text text-anchor="start" x="14" y="-31.25" font-family="Helvetica,sans-Serif" font-size="10.00"> Category $category)</text>
<text text-anchor="start" x="4" y="-16.5" font-family="Helvetica,sans-Serif" font-size="10.00">+</text>
<text text-anchor="start" x="14" y="-16.5" font-family="Helvetica,sans-Serif" font-size="10.00">destroy(Category </text>
<text text-anchor="start" x="14" y="-5.25" font-family="Helvetica,sans-Serif" font-size="10.00">$category)</text>
<polygon fill="#666666" stroke="#666666" points="0,-144 0,-144 132,-144 132,-144 0,-144"/>
<polygon fill="#666666" stroke="#666666" points="0,-129 0,-129 132,-129 132,-129 0,-129"/>
<polygon fill="none" stroke="#666666" points="0,0 0,-161 132,-161 132,0 0,0"/>
</a>
</g>
</g>
<!-- Node2 -->
<g id="Node000002" class="node">
<title>Node2</title>
<g id="a_Node000002"><a xlink:href="class_app_1_1_http_1_1_controllers_1_1_controller.html" target="_top" xlink:title=" ">
<polygon fill="white" stroke="none" points="92,-246 40,-246 40,-197 92,-197 92,-246"/>
<text text-anchor="start" x="45" y="-232.5" font-family="Helvetica,sans-Serif" font-size="10.00">Controller</text>
<text text-anchor="start" x="64.5" y="-217.5" font-family="Helvetica,sans-Serif" font-size="10.00"> </text>
<text text-anchor="start" x="64.5" y="-202.5" font-family="Helvetica,sans-Serif" font-size="10.00"> </text>
<polygon fill="#666666" stroke="#666666" points="40,-229 40,-229 92,-229 92,-229 40,-229"/>
<polygon fill="#666666" stroke="#666666" points="40,-214 40,-214 92,-214 92,-214 40,-214"/>
<polygon fill="none" stroke="#666666" points="40,-197 40,-246 92,-246 92,-197 40,-197"/>
</a>
</g>
</g>
<!-- Node2&#45;&gt;Node1 -->
<g id="edge1_Node000001_Node000002" class="edge">
<title>Node2&#45;&gt;Node1</title>
<g id="a_edge1_Node000001_Node000002"><a xlink:title=" ">
<path fill="none" stroke="#63b8ff" d="M66,-185.84C66,-178.13 66,-169.66 66,-160.97"/>
<polygon fill="none" stroke="#63b8ff" points="62.5,-185.72 66,-195.72 69.5,-185.72 62.5,-185.72"/>
</a>
</g>
</g>
<!-- Node3 -->
<g id="Node000003" class="node">
<title>Node3</title>
<g id="a_Node000003"><a xlink:href="class_base_controller.html" target="_top" xlink:title=" ">
<polygon fill="white" stroke="none" points="103,-331 29,-331 29,-282 103,-282 103,-331"/>
<text text-anchor="start" x="33.75" y="-317.5" font-family="Helvetica,sans-Serif" font-size="10.00">BaseController</text>
<text text-anchor="start" x="64.5" y="-302.5" font-family="Helvetica,sans-Serif" font-size="10.00"> </text>
<text text-anchor="start" x="64.5" y="-287.5" font-family="Helvetica,sans-Serif" font-size="10.00"> </text>
<polygon fill="#666666" stroke="#666666" points="29,-314 29,-314 103,-314 103,-314 29,-314"/>
<polygon fill="#666666" stroke="#666666" points="29,-299 29,-299 103,-299 103,-299 29,-299"/>
<polygon fill="none" stroke="#666666" points="29,-282 29,-331 103,-331 103,-282 29,-282"/>
</a>
</g>
</g>
<!-- Node3&#45;&gt;Node2 -->
<g id="edge2_Node000002_Node000003" class="edge">
<title>Node3&#45;&gt;Node2</title>
<g id="a_edge2_Node000002_Node000003"><a xlink:title=" ">
<path fill="none" stroke="#63b8ff" d="M66,-271.14C66,-262.6 66,-253.65 66,-245.78"/>
<polygon fill="none" stroke="#63b8ff" points="62.5,-270.87 66,-280.87 69.5,-270.87 62.5,-270.87"/>
</a>
</g>
</g>
</g>
</svg>
