<?xml version="1.0" encoding="UTF-8" standalone="no"?>
<!DOCTYPE svg PUBLIC "-//W3C//DTD SVG 1.1//EN"
 "http://www.w3.org/Graphics/SVG/1.1/DTD/svg11.dtd">
<!-- Generated by graphviz version 10.0.1 (20240210.2158)
 -->
<!-- Title: HttpKernel Pages: 1 -->
<svg width="112pt" height="172pt"
 viewBox="0.00 0.00 112.00 172.00" xmlns="http://www.w3.org/2000/svg" xmlns:xlink="http://www.w3.org/1999/xlink">
<g id="graph0" class="graph" transform="scale(1 1) rotate(0) translate(4 168)">
<title>HttpKernel</title>
<!-- Node1 -->
<g id="Node000001" class="node">
<title>Node1</title>
<g id="a_Node000001"><a xlink:title=" ">
<polygon fill="#999999" stroke="none" points="80,-164 24,-164 24,-115 80,-115 80,-164"/>
<text text-anchor="start" x="28.75" y="-150.5" font-family="Helvetica,sans-Serif" font-size="10.00">HttpKernel</text>
<text text-anchor="start" x="50.5" y="-135.5" font-family="Helvetica,sans-Serif" font-size="10.00"> </text>
<text text-anchor="start" x="50.5" y="-120.5" font-family="Helvetica,sans-Serif" font-size="10.00"> </text>
<polygon fill="#666666" stroke="#666666" points="24,-147 24,-147 80,-147 80,-147 24,-147"/>
<polygon fill="#666666" stroke="#666666" points="24,-132 24,-132 80,-132 80,-132 24,-132"/>
<polygon fill="none" stroke="#666666" points="24,-115 24,-164 80,-164 80,-115 24,-115"/>
</a>
</g>
</g>
<!-- Node2 -->
<g id="Node000002" class="node">
<title>Node2</title>
<g id="a_Node000002"><a xlink:href="class_app_1_1_http_1_1_kernel.html" target="_top" xlink:title=" ">
<polygon fill="white" stroke="none" points="104,-79 0,-79 0,0 104,0 104,-79"/>
<text text-anchor="start" x="38.12" y="-65.5" font-family="Helvetica,sans-Serif" font-size="10.00">Kernel</text>
<text text-anchor="start" x="3.88" y="-50.5" font-family="Helvetica,sans-Serif" font-size="10.00">#</text>
<text text-anchor="start" x="13" y="-50.5" font-family="Helvetica,sans-Serif" font-size="10.00">$middleware</text>
<text text-anchor="start" x="3.88" y="-35.5" font-family="Helvetica,sans-Serif" font-size="10.00">#</text>
<text text-anchor="start" x="13" y="-35.5" font-family="Helvetica,sans-Serif" font-size="10.00">$middlewareGroups</text>
<text text-anchor="start" x="3.88" y="-20.5" font-family="Helvetica,sans-Serif" font-size="10.00">#</text>
<text text-anchor="start" x="13" y="-20.5" font-family="Helvetica,sans-Serif" font-size="10.00">$middlewareAliases</text>
<text text-anchor="start" x="50.5" y="-5.5" font-family="Helvetica,sans-Serif" font-size="10.00"> </text>
<polygon fill="#666666" stroke="#666666" points="0,-62 0,-62 104,-62 104,-62 0,-62"/>
<polygon fill="#666666" stroke="#666666" points="0,-17 0,-17 11,-17 11,-17 0,-17"/>
<polygon fill="#666666" stroke="#666666" points="11,-17 11,-17 104,-17 104,-17 11,-17"/>
<polygon fill="none" stroke="#666666" points="0,0 0,-79 104,-79 104,0 0,0"/>
</a>
</g>
</g>
<!-- Node1&#45;&gt;Node2 -->
<g id="edge1_Node000001_Node000002" class="edge">
<title>Node1&#45;&gt;Node2</title>
<g id="a_edge1_Node000001_Node000002"><a xlink:title=" ">
<path fill="none" stroke="#63b8ff" d="M52,-103.93C52,-95.83 52,-87.14 52,-78.88"/>
<polygon fill="none" stroke="#63b8ff" points="48.5,-103.76 52,-113.76 55.5,-103.76 48.5,-103.76"/>
</a>
</g>
</g>
</g>
</svg>
