<?xml version="1.0" encoding="UTF-8" standalone="no"?>
<!DOCTYPE svg PUBLIC "-//W3C//DTD SVG 1.1//EN"
 "http://www.w3.org/Graphics/SVG/1.1/DTD/svg11.dtd">
<!-- Generated by graphviz version 10.0.1 (20240210.2158)
 -->
<!-- Title: ExceptionHandler Pages: 1 -->
<svg width="95pt" height="142pt"
 viewBox="0.00 0.00 95.00 142.00" xmlns="http://www.w3.org/2000/svg" xmlns:xlink="http://www.w3.org/1999/xlink">
<g id="graph0" class="graph" transform="scale(1 1) rotate(0) translate(4 138)">
<title>ExceptionHandler</title>
<!-- Node1 -->
<g id="Node000001" class="node">
<title>Node1</title>
<g id="a_Node000001"><a xlink:title=" ">
<polygon fill="#999999" stroke="none" points="87,-134 0,-134 0,-85 87,-85 87,-134"/>
<text text-anchor="start" x="4.88" y="-120.5" font-family="Helvetica,sans-Serif" font-size="10.00">ExceptionHandler</text>
<text text-anchor="start" x="42" y="-105.5" font-family="Helvetica,sans-Serif" font-size="10.00"> </text>
<text text-anchor="start" x="42" y="-90.5" font-family="Helvetica,sans-Serif" font-size="10.00"> </text>
<polygon fill="#666666" stroke="#666666" points="0,-117 0,-117 87,-117 87,-117 0,-117"/>
<polygon fill="#666666" stroke="#666666" points="0,-102 0,-102 87,-102 87,-102 0,-102"/>
<polygon fill="none" stroke="#666666" points="0,-85 0,-134 87,-134 87,-85 0,-85"/>
</a>
</g>
</g>
<!-- Node2 -->
<g id="Node000002" class="node">
<title>Node2</title>
<g id="a_Node000002"><a xlink:href="class_app_1_1_exceptions_1_1_handler.html" target="_top" xlink:title=" ">
<polygon fill="white" stroke="none" points="76.5,-49 10.5,-49 10.5,0 76.5,0 76.5,-49"/>
<text text-anchor="start" x="26.62" y="-35.5" font-family="Helvetica,sans-Serif" font-size="10.00">Handler</text>
<text text-anchor="start" x="14.88" y="-20.5" font-family="Helvetica,sans-Serif" font-size="10.00">#</text>
<text text-anchor="start" x="24.5" y="-20.5" font-family="Helvetica,sans-Serif" font-size="10.00">$dontFlash</text>
<text text-anchor="start" x="14.5" y="-5.5" font-family="Helvetica,sans-Serif" font-size="10.00">+</text>
<text text-anchor="start" x="24.5" y="-5.5" font-family="Helvetica,sans-Serif" font-size="10.00">register()</text>
<polygon fill="#666666" stroke="#666666" points="10.5,-32 10.5,-32 76.5,-32 76.5,-32 10.5,-32"/>
<polygon fill="#666666" stroke="#666666" points="10.5,-17 10.5,-17 22.5,-17 22.5,-17 10.5,-17"/>
<polygon fill="#666666" stroke="#666666" points="22.5,-17 22.5,-17 76.5,-17 76.5,-17 22.5,-17"/>
<polygon fill="none" stroke="#666666" points="10.5,0 10.5,-49 76.5,-49 76.5,0 10.5,0"/>
</a>
</g>
</g>
<!-- Node1&#45;&gt;Node2 -->
<g id="edge1_Node000001_Node000002" class="edge">
<title>Node1&#45;&gt;Node2</title>
<g id="a_edge1_Node000001_Node000002"><a xlink:title=" ">
<path fill="none" stroke="#63b8ff" d="M43.5,-74.14C43.5,-65.6 43.5,-56.65 43.5,-48.78"/>
<polygon fill="none" stroke="#63b8ff" points="40,-73.87 43.5,-83.87 47,-73.87 40,-73.87"/>
</a>
</g>
</g>
</g>
</svg>
