<?xml version="1.0" encoding="UTF-8" standalone="no"?>
<!DOCTYPE svg PUBLIC "-//W3C//DTD SVG 1.1//EN"
 "http://www.w3.org/Graphics/SVG/1.1/DTD/svg11.dtd">
<!-- Generated by graphviz version 10.0.1 (20240210.2158)
 -->
<!-- Title: Illuminate Pages: 1 -->
<svg width="376pt" height="157pt"
 viewBox="0.00 0.00 376.00 157.00" xmlns="http://www.w3.org/2000/svg" xmlns:xlink="http://www.w3.org/1999/xlink">

<svg id="main" version="1.1" xmlns="http://www.w3.org/2000/svg" xmlns:xlink="http://www.w3.org/1999/xlink" xml:space="preserve" onload="init(evt)">
<style type="text/css"><![CDATA[
.node, .edge {opacity: 0.7;}
.node.selected, .edge.selected {opacity: 1;}
.edge:hover path { stroke: red; }
.edge:hover polygon { stroke: red; fill: red; }
]]></style>
<script type="application/ecmascript" xlink:href="svg.min.js"/>
<svg id="graph" class="graph">
<g id="graph0" class="graph" transform="scale(1 1) rotate(0) translate(4 153)">
<title>Illuminate</title>
<!-- Node1 -->
<g id="Node000001" class="node">
<title>Node1</title>
<g id="a_Node000001"><a xlink:title=" ">
<polygon fill="#999999" stroke="none" points="219,-149 167,-149 167,-100 219,-100 219,-149"/>
<text text-anchor="start" x="172" y="-135.5" font-family="Helvetica,sans-Serif" font-size="10.00">Illuminate</text>
<text text-anchor="start" x="191.5" y="-120.5" font-family="Helvetica,sans-Serif" font-size="10.00"> </text>
<text text-anchor="start" x="191.5" y="-105.5" font-family="Helvetica,sans-Serif" font-size="10.00"> </text>
<polygon fill="#666666" stroke="#666666" points="167,-132 167,-132 219,-132 219,-132 167,-132"/>
<polygon fill="#666666" stroke="#666666" points="167,-117 167,-117 219,-117 219,-117 167,-117"/>
<polygon fill="none" stroke="#666666" points="167,-100 167,-149 219,-149 219,-100 167,-100"/>
</a>
</g>
</g>
<!-- Node2 -->
<g id="Node000002" class="node">
<title>Node2</title>
<g id="a_Node000002"><a xlink:href="class_database_1_1_factories_1_1_category_factory.html" target="_top" xlink:title=" ">
<polygon fill="white" stroke="none" points="82,-56.5 0,-56.5 0,-7.5 82,-7.5 82,-56.5"/>
<text text-anchor="start" x="4.62" y="-43" font-family="Helvetica,sans-Serif" font-size="10.00">CategoryFactory</text>
<text text-anchor="start" x="39.5" y="-28" font-family="Helvetica,sans-Serif" font-size="10.00"> </text>
<text text-anchor="start" x="8.5" y="-13" font-family="Helvetica,sans-Serif" font-size="10.00">+</text>
<text text-anchor="start" x="23" y="-13" font-family="Helvetica,sans-Serif" font-size="10.00">definition()</text>
<polygon fill="#666666" stroke="#666666" points="0,-39.5 0,-39.5 82,-39.5 82,-39.5 0,-39.5"/>
<polygon fill="#666666" stroke="#666666" points="0,-24.5 0,-24.5 82,-24.5 82,-24.5 0,-24.5"/>
<polygon fill="none" stroke="#666666" points="0,-7.5 0,-56.5 82,-56.5 82,-7.5 0,-7.5"/>
</a>
</g>
</g>
<!-- Node1&#45;&gt;Node2 -->
<g id="edge1_Node000001_Node000002" class="edge">
<title>Node1&#45;&gt;Node2</title>
<g id="a_edge1_Node000001_Node000002"><a xlink:title=" ">
<path fill="none" stroke="#63b8ff" d="M157.54,-103.13C137.86,-91.75 112.99,-77.23 91,-64 86.97,-61.58 82.78,-59.03 78.61,-56.47"/>
<polygon fill="none" stroke="#63b8ff" points="155.6,-106.05 166.01,-108.02 159.1,-99.99 155.6,-106.05"/>
</a>
</g>
</g>
<!-- Node3 -->
<g id="Node000003" class="node">
<title>Node3</title>
<g id="a_Node000003"><a xlink:href="class_database_1_1_factories_1_1_personnel_factory.html" target="_top" xlink:title=" ">
<polygon fill="white" stroke="none" points="186,-56.5 100,-56.5 100,-7.5 186,-7.5 186,-56.5"/>
<text text-anchor="start" x="104.75" y="-43" font-family="Helvetica,sans-Serif" font-size="10.00">PersonnelFactory</text>
<text text-anchor="start" x="141.5" y="-28" font-family="Helvetica,sans-Serif" font-size="10.00"> </text>
<text text-anchor="start" x="109.5" y="-13" font-family="Helvetica,sans-Serif" font-size="10.00">+</text>
<text text-anchor="start" x="125" y="-13" font-family="Helvetica,sans-Serif" font-size="10.00">definition()</text>
<polygon fill="#666666" stroke="#666666" points="100,-39.5 100,-39.5 186,-39.5 186,-39.5 100,-39.5"/>
<polygon fill="#666666" stroke="#666666" points="100,-24.5 100,-24.5 186,-24.5 186,-24.5 100,-24.5"/>
<polygon fill="none" stroke="#666666" points="100,-7.5 100,-56.5 186,-56.5 186,-7.5 100,-7.5"/>
</a>
</g>
</g>
<!-- Node1&#45;&gt;Node3 -->
<g id="edge2_Node000001_Node000003" class="edge">
<title>Node1&#45;&gt;Node3</title>
<g id="a_edge2_Node000001_Node000003"><a xlink:title=" ">
<path fill="none" stroke="#63b8ff" d="M174.61,-90.21C168.37,-78.92 161.54,-66.56 155.83,-56.23"/>
<polygon fill="none" stroke="#63b8ff" points="171.49,-91.81 179.39,-98.87 177.62,-88.42 171.49,-91.81"/>
</a>
</g>
</g>
<!-- Node4 -->
<g id="Node000004" class="node">
<title>Node4</title>
<g id="a_Node000004"><a xlink:href="class_database_1_1_factories_1_1_produits_factory.html" target="_top" xlink:title=" ">
<polygon fill="white" stroke="none" points="283.5,-56.5 204.5,-56.5 204.5,-7.5 283.5,-7.5 283.5,-56.5"/>
<text text-anchor="start" x="209.5" y="-43" font-family="Helvetica,sans-Serif" font-size="10.00">ProduitsFactory</text>
<text text-anchor="start" x="242.5" y="-28" font-family="Helvetica,sans-Serif" font-size="10.00"> </text>
<text text-anchor="start" x="212.5" y="-13" font-family="Helvetica,sans-Serif" font-size="10.00">+</text>
<text text-anchor="start" x="226.5" y="-13" font-family="Helvetica,sans-Serif" font-size="10.00">definition()</text>
<polygon fill="#666666" stroke="#666666" points="204.5,-39.5 204.5,-39.5 283.5,-39.5 283.5,-39.5 204.5,-39.5"/>
<polygon fill="#666666" stroke="#666666" points="204.5,-24.5 204.5,-24.5 283.5,-24.5 283.5,-24.5 204.5,-24.5"/>
<polygon fill="none" stroke="#666666" points="204.5,-7.5 204.5,-56.5 283.5,-56.5 283.5,-7.5 204.5,-7.5"/>
</a>
</g>
</g>
<!-- Node1&#45;&gt;Node4 -->
<g id="edge3_Node000001_Node000004" class="edge">
<title>Node1&#45;&gt;Node4</title>
<g id="a_edge3_Node000001_Node000004"><a xlink:title=" ">
<path fill="none" stroke="#63b8ff" d="M211.76,-90.21C218.12,-78.92 225.09,-66.56 230.91,-56.23"/>
<polygon fill="none" stroke="#63b8ff" points="208.74,-88.45 206.88,-98.88 214.84,-91.88 208.74,-88.45"/>
</a>
</g>
</g>
<!-- Node5 -->
<g id="Node000005" class="node">
<title>Node5</title>
<g id="a_Node000005"><a xlink:href="class_database_1_1_factories_1_1_user_factory.html" target="_top" xlink:title=" ">
<polygon fill="white" stroke="none" points="368,-64 302,-64 302,0 368,0 368,-64"/>
<text text-anchor="start" x="308" y="-50.5" font-family="Helvetica,sans-Serif" font-size="10.00">UserFactory</text>
<text text-anchor="start" x="333.5" y="-35.5" font-family="Helvetica,sans-Serif" font-size="10.00"> </text>
<text text-anchor="start" x="306" y="-20.5" font-family="Helvetica,sans-Serif" font-size="10.00">+</text>
<text text-anchor="start" x="316" y="-20.5" font-family="Helvetica,sans-Serif" font-size="10.00">definition()</text>
<text text-anchor="start" x="306" y="-5.5" font-family="Helvetica,sans-Serif" font-size="10.00">+</text>
<text text-anchor="start" x="316" y="-5.5" font-family="Helvetica,sans-Serif" font-size="10.00">unverified()</text>
<polygon fill="#666666" stroke="#666666" points="302,-47 302,-47 368,-47 368,-47 302,-47"/>
<polygon fill="#666666" stroke="#666666" points="302,-32 302,-32 368,-32 368,-32 302,-32"/>
<polygon fill="none" stroke="#666666" points="302,0 302,-64 368,-64 368,0 302,0"/>
</a>
</g>
</g>
<!-- Node1&#45;&gt;Node5 -->
<g id="edge4_Node000001_Node000005" class="edge">
<title>Node1&#45;&gt;Node5</title>
<g id="a_edge4_Node000001_Node000005"><a xlink:title=" ">
<path fill="none" stroke="#63b8ff" d="M228.81,-103.35C248.11,-92.2 272.17,-77.83 293,-64 296.02,-61.99 299.12,-59.86 302.21,-57.68"/>
<polygon fill="none" stroke="#63b8ff" points="227.16,-100.26 220.23,-108.27 230.64,-106.33 227.16,-100.26"/>
</a>
</g>
</g>
</g>
</svg>
</svg>

<style type='text/css'>
<![CDATA[
[data-mouse-over-selected='false'] { opacity: 0.7; }
[data-mouse-over-selected='true']  { opacity: 1.0; }
]]>
</style>
<script type="application/ecmascript"><![CDATA[
document.addEventListener('DOMContentLoaded', (event) => {
  highlightEdges();
  highlightAdjacentNodes();
});
]]></script>
</svg>
