<?xml version="1.0" encoding="UTF-8" standalone="no"?>
<!DOCTYPE svg PUBLIC "-//W3C//DTD SVG 1.1//EN"
 "http://www.w3.org/Graphics/SVG/1.1/DTD/svg11.dtd">
<!-- Generated by graphviz version 10.0.1 (20240210.2158)
 -->
<!-- Title: UpdateProduitsRequest Pages: 1 -->
<svg width="122pt" height="157pt"
 viewBox="0.00 0.00 122.00 157.00" xmlns="http://www.w3.org/2000/svg" xmlns:xlink="http://www.w3.org/1999/xlink">

<svg id="main" version="1.1" xmlns="http://www.w3.org/2000/svg" xmlns:xlink="http://www.w3.org/1999/xlink" xml:space="preserve" onload="init(evt)">
<style type="text/css"><![CDATA[
.node, .edge {opacity: 0.7;}
.node.selected, .edge.selected {opacity: 1;}
.edge:hover path { stroke: red; }
.edge:hover polygon { stroke: red; fill: red; }
]]></style>
<script type="application/ecmascript" xlink:href="svg.min.js"/>
<svg id="graph" class="graph">
<g id="graph0" class="graph" transform="scale(1 1) rotate(0) translate(4 153)">
<title>UpdateProduitsRequest</title>
<!-- Node1 -->
<g id="Node000001" class="node">
<title>Node1</title>
<g id="a_Node000001"><a xlink:title=" ">
<polygon fill="#999999" stroke="none" points="114,-64 0,-64 0,0 114,0 114,-64"/>
<text text-anchor="start" x="4.88" y="-50.5" font-family="Helvetica,sans-Serif" font-size="10.00">UpdateProduitsRequest</text>
<text text-anchor="start" x="55.5" y="-35.5" font-family="Helvetica,sans-Serif" font-size="10.00"> </text>
<text text-anchor="start" x="16.5" y="-20.5" font-family="Helvetica,sans-Serif" font-size="10.00">+</text>
<text text-anchor="start" x="39" y="-20.5" font-family="Helvetica,sans-Serif" font-size="10.00">authorize()</text>
<text text-anchor="start" x="16.5" y="-5.5" font-family="Helvetica,sans-Serif" font-size="10.00">+</text>
<text text-anchor="start" x="39" y="-5.5" font-family="Helvetica,sans-Serif" font-size="10.00">rules()</text>
<polygon fill="#666666" stroke="#666666" points="0,-47 0,-47 114,-47 114,-47 0,-47"/>
<polygon fill="#666666" stroke="#666666" points="0,-32 0,-32 114,-32 114,-32 0,-32"/>
<polygon fill="none" stroke="#666666" points="0,0 0,-64 114,-64 114,0 0,0"/>
</a>
</g>
</g>
<!-- Node2 -->
<g id="Node000002" class="node">
<title>Node2</title>
<g id="a_Node000002"><a xlink:title=" ">
<polygon fill="white" stroke="none" points="91.5,-149 22.5,-149 22.5,-100 91.5,-100 91.5,-149"/>
<text text-anchor="start" x="27.38" y="-135.5" font-family="Helvetica,sans-Serif" font-size="10.00">FormRequest</text>
<text text-anchor="start" x="55.5" y="-120.5" font-family="Helvetica,sans-Serif" font-size="10.00"> </text>
<text text-anchor="start" x="55.5" y="-105.5" font-family="Helvetica,sans-Serif" font-size="10.00"> </text>
<polygon fill="#666666" stroke="#666666" points="22.5,-132 22.5,-132 91.5,-132 91.5,-132 22.5,-132"/>
<polygon fill="#666666" stroke="#666666" points="22.5,-117 22.5,-117 91.5,-117 91.5,-117 22.5,-117"/>
<polygon fill="none" stroke="#666666" points="22.5,-100 22.5,-149 91.5,-149 91.5,-100 22.5,-100"/>
</a>
</g>
</g>
<!-- Node2&#45;&gt;Node1 -->
<g id="edge1_Node000001_Node000002" class="edge">
<title>Node2&#45;&gt;Node1</title>
<g id="a_edge1_Node000001_Node000002"><a xlink:title=" ">
<path fill="none" stroke="#63b8ff" d="M57,-88.93C57,-80.64 57,-71.84 57,-63.74"/>
<polygon fill="none" stroke="#63b8ff" points="53.5,-88.68 57,-98.68 60.5,-88.68 53.5,-88.68"/>
</a>
</g>
</g>
</g>
</svg>
</svg>

<style type='text/css'>
<![CDATA[
[data-mouse-over-selected='false'] { opacity: 0.7; }
[data-mouse-over-selected='true']  { opacity: 1.0; }
]]>
</style>
<script type="application/ecmascript"><![CDATA[
document.addEventListener('DOMContentLoaded', (event) => {
  highlightEdges();
  highlightAdjacentNodes();
});
]]></script>
</svg>
