<?xml version="1.0" encoding="UTF-8" standalone="no"?>
<!DOCTYPE svg PUBLIC "-//W3C//DTD SVG 1.1//EN"
 "http://www.w3.org/Graphics/SVG/1.1/DTD/svg11.dtd">
<!-- Generated by graphviz version 10.0.1 (20240210.2158)
 -->
<!-- Title: Authenticatable Pages: 1 -->
<svg width="85pt" height="172pt"
 viewBox="0.00 0.00 85.00 172.00" xmlns="http://www.w3.org/2000/svg" xmlns:xlink="http://www.w3.org/1999/xlink">
<g id="graph0" class="graph" transform="scale(1 1) rotate(0) translate(4 168)">
<title>Authenticatable</title>
<!-- Node1 -->
<g id="Node000001" class="node">
<title>Node1</title>
<g id="a_Node000001"><a xlink:title=" ">
<polygon fill="#999999" stroke="none" points="77,-164 0,-164 0,-115 77,-115 77,-164"/>
<text text-anchor="start" x="4.75" y="-150.5" font-family="Helvetica,sans-Serif" font-size="10.00">Authenticatable</text>
<text text-anchor="start" x="37" y="-135.5" font-family="Helvetica,sans-Serif" font-size="10.00"> </text>
<text text-anchor="start" x="37" y="-120.5" font-family="Helvetica,sans-Serif" font-size="10.00"> </text>
<polygon fill="#666666" stroke="#666666" points="0,-147 0,-147 77,-147 77,-147 0,-147"/>
<polygon fill="#666666" stroke="#666666" points="0,-132 0,-132 77,-132 77,-132 0,-132"/>
<polygon fill="none" stroke="#666666" points="0,-115 0,-164 77,-164 77,-115 0,-115"/>
</a>
</g>
</g>
<!-- Node2 -->
<g id="Node000002" class="node">
<title>Node2</title>
<g id="a_Node000002"><a xlink:href="class_app_1_1_models_1_1_user.html" target="_top" xlink:title=" ">
<polygon fill="white" stroke="none" points="63.5,-79 13.5,-79 13.5,0 63.5,0 63.5,-79"/>
<text text-anchor="start" x="28" y="-65.5" font-family="Helvetica,sans-Serif" font-size="10.00">User</text>
<text text-anchor="start" x="17.38" y="-50.5" font-family="Helvetica,sans-Serif" font-size="10.00">#</text>
<text text-anchor="start" x="26.5" y="-50.5" font-family="Helvetica,sans-Serif" font-size="10.00">$fillable</text>
<text text-anchor="start" x="17.38" y="-35.5" font-family="Helvetica,sans-Serif" font-size="10.00">#</text>
<text text-anchor="start" x="26.5" y="-35.5" font-family="Helvetica,sans-Serif" font-size="10.00">$hidden</text>
<text text-anchor="start" x="17.38" y="-20.5" font-family="Helvetica,sans-Serif" font-size="10.00">#</text>
<text text-anchor="start" x="26.5" y="-20.5" font-family="Helvetica,sans-Serif" font-size="10.00">$casts</text>
<text text-anchor="start" x="37" y="-5.5" font-family="Helvetica,sans-Serif" font-size="10.00"> </text>
<polygon fill="#666666" stroke="#666666" points="13.5,-62 13.5,-62 63.5,-62 63.5,-62 13.5,-62"/>
<polygon fill="#666666" stroke="#666666" points="13.5,-17 13.5,-17 24.5,-17 24.5,-17 13.5,-17"/>
<polygon fill="#666666" stroke="#666666" points="24.5,-17 24.5,-17 63.5,-17 63.5,-17 24.5,-17"/>
<polygon fill="none" stroke="#666666" points="13.5,0 13.5,-79 63.5,-79 63.5,0 13.5,0"/>
</a>
</g>
</g>
<!-- Node1&#45;&gt;Node2 -->
<g id="edge1_Node000001_Node000002" class="edge">
<title>Node1&#45;&gt;Node2</title>
<g id="a_edge1_Node000001_Node000002"><a xlink:title=" ">
<path fill="none" stroke="#63b8ff" d="M38.5,-103.93C38.5,-95.83 38.5,-87.14 38.5,-78.88"/>
<polygon fill="none" stroke="#63b8ff" points="35,-103.76 38.5,-113.76 42,-103.76 35,-103.76"/>
</a>
</g>
</g>
</g>
</svg>
