<?xml version="1.0" encoding="UTF-8" standalone="no"?>
<!DOCTYPE svg PUBLIC "-//W3C//DTD SVG 1.1//EN"
 "http://www.w3.org/Graphics/SVG/1.1/DTD/svg11.dtd">
<!-- Generated by graphviz version 10.0.1 (20240210.2158)
 -->
<!-- Title: VerifyCsrfToken Pages: 1 -->
<svg width="88pt" height="142pt"
 viewBox="0.00 0.00 88.00 142.00" xmlns="http://www.w3.org/2000/svg" xmlns:xlink="http://www.w3.org/1999/xlink">
<g id="graph0" class="graph" transform="scale(1 1) rotate(0) translate(4 138)">
<title>VerifyCsrfToken</title>
<!-- Node1 -->
<g id="Node000001" class="node">
<title>Node1</title>
<g id="a_Node000001"><a xlink:title=" ">
<polygon fill="#999999" stroke="none" points="80,-49 0,-49 0,0 80,0 80,-49"/>
<text text-anchor="start" x="4.75" y="-35.5" font-family="Helvetica,sans-Serif" font-size="10.00">VerifyCsrfToken</text>
<text text-anchor="start" x="10.88" y="-20.5" font-family="Helvetica,sans-Serif" font-size="10.00">#</text>
<text text-anchor="start" x="27" y="-20.5" font-family="Helvetica,sans-Serif" font-size="10.00">$except</text>
<text text-anchor="start" x="38.5" y="-5.5" font-family="Helvetica,sans-Serif" font-size="10.00"> </text>
<polygon fill="#666666" stroke="#666666" points="0,-32 0,-32 80,-32 80,-32 0,-32"/>
<polygon fill="#666666" stroke="#666666" points="0,-17 0,-17 25,-17 25,-17 0,-17"/>
<polygon fill="#666666" stroke="#666666" points="25,-17 25,-17 80,-17 80,-17 25,-17"/>
<polygon fill="none" stroke="#666666" points="0,0 0,-49 80,-49 80,0 0,0"/>
</a>
</g>
</g>
<!-- Node2 -->
<g id="Node000002" class="node">
<title>Node2</title>
<g id="a_Node000002"><a xlink:href="class_middleware.html" target="_top" xlink:title=" ">
<polygon fill="white" stroke="none" points="69.5,-134 10.5,-134 10.5,-85 69.5,-85 69.5,-134"/>
<text text-anchor="start" x="15.25" y="-120.5" font-family="Helvetica,sans-Serif" font-size="10.00">Middleware</text>
<text text-anchor="start" x="38.5" y="-105.5" font-family="Helvetica,sans-Serif" font-size="10.00"> </text>
<text text-anchor="start" x="38.5" y="-90.5" font-family="Helvetica,sans-Serif" font-size="10.00"> </text>
<polygon fill="#666666" stroke="#666666" points="10.5,-117 10.5,-117 69.5,-117 69.5,-117 10.5,-117"/>
<polygon fill="#666666" stroke="#666666" points="10.5,-102 10.5,-102 69.5,-102 69.5,-102 10.5,-102"/>
<polygon fill="none" stroke="#666666" points="10.5,-85 10.5,-134 69.5,-134 69.5,-85 10.5,-85"/>
</a>
</g>
</g>
<!-- Node2&#45;&gt;Node1 -->
<g id="edge1_Node000001_Node000002" class="edge">
<title>Node2&#45;&gt;Node1</title>
<g id="a_edge1_Node000001_Node000002"><a xlink:title=" ">
<path fill="none" stroke="#63b8ff" d="M40,-74.14C40,-65.6 40,-56.65 40,-48.78"/>
<polygon fill="none" stroke="#63b8ff" points="36.5,-73.87 40,-83.87 43.5,-73.87 36.5,-73.87"/>
</a>
</g>
</g>
</g>
</svg>
