<?xml version="1.0" encoding="UTF-8" standalone="no"?>
<!DOCTYPE svg PUBLIC "-//W3C//DTD SVG 1.1//EN"
 "http://www.w3.org/Graphics/SVG/1.1/DTD/svg11.dtd">
<!-- Generated by graphviz version 10.0.1 (20240210.2158)
 -->
<!-- Title: CreateSallesTable Pages: 1 -->
<svg width="97pt" height="157pt"
 viewBox="0.00 0.00 97.00 157.00" xmlns="http://www.w3.org/2000/svg" xmlns:xlink="http://www.w3.org/1999/xlink">
<g id="graph0" class="graph" transform="scale(1 1) rotate(0) translate(4 153)">
<title>CreateSallesTable</title>
<!-- Node1 -->
<g id="Node000001" class="node">
<title>Node1</title>
<g id="a_Node000001"><a xlink:title=" ">
<polygon fill="#999999" stroke="none" points="89,-64 0,-64 0,0 89,0 89,-64"/>
<text text-anchor="start" x="4.75" y="-50.5" font-family="Helvetica,sans-Serif" font-size="10.00">CreateSallesTable</text>
<text text-anchor="start" x="43" y="-35.5" font-family="Helvetica,sans-Serif" font-size="10.00"> </text>
<text text-anchor="start" x="14.5" y="-20.5" font-family="Helvetica,sans-Serif" font-size="10.00">+</text>
<text text-anchor="start" x="35" y="-20.5" font-family="Helvetica,sans-Serif" font-size="10.00">up()</text>
<text text-anchor="start" x="14.5" y="-5.5" font-family="Helvetica,sans-Serif" font-size="10.00">+</text>
<text text-anchor="start" x="35" y="-5.5" font-family="Helvetica,sans-Serif" font-size="10.00">down()</text>
<polygon fill="#666666" stroke="#666666" points="0,-47 0,-47 89,-47 89,-47 0,-47"/>
<polygon fill="#666666" stroke="#666666" points="0,-32 0,-32 89,-32 89,-32 0,-32"/>
<polygon fill="none" stroke="#666666" points="0,0 0,-64 89,-64 89,0 0,0"/>
</a>
</g>
</g>
<!-- Node2 -->
<g id="Node000002" class="node">
<title>Node2</title>
<g id="a_Node000002"><a xlink:title=" ">
<polygon fill="white" stroke="none" points="69,-149 20,-149 20,-100 69,-100 69,-149"/>
<text text-anchor="start" x="24.62" y="-135.5" font-family="Helvetica,sans-Serif" font-size="10.00">Migration</text>
<text text-anchor="start" x="43" y="-120.5" font-family="Helvetica,sans-Serif" font-size="10.00"> </text>
<text text-anchor="start" x="43" y="-105.5" font-family="Helvetica,sans-Serif" font-size="10.00"> </text>
<polygon fill="#666666" stroke="#666666" points="20,-132 20,-132 69,-132 69,-132 20,-132"/>
<polygon fill="#666666" stroke="#666666" points="20,-117 20,-117 69,-117 69,-117 20,-117"/>
<polygon fill="none" stroke="#666666" points="20,-100 20,-149 69,-149 69,-100 20,-100"/>
</a>
</g>
</g>
<!-- Node2&#45;&gt;Node1 -->
<g id="edge1_Node000001_Node000002" class="edge">
<title>Node2&#45;&gt;Node1</title>
<g id="a_edge1_Node000001_Node000002"><a xlink:title=" ">
<path fill="none" stroke="#63b8ff" d="M44.5,-88.93C44.5,-80.64 44.5,-71.84 44.5,-63.74"/>
<polygon fill="none" stroke="#63b8ff" points="41,-88.68 44.5,-98.68 48,-88.68 41,-88.68"/>
</a>
</g>
</g>
</g>
</svg>
