<?xml version="1.0" encoding="UTF-8" standalone="no"?>
<!DOCTYPE svg PUBLIC "-//W3C//DTD SVG 1.1//EN"
 "http://www.w3.org/Graphics/SVG/1.1/DTD/svg11.dtd">
<!-- Generated by graphviz version 10.0.1 (20240210.2158)
 -->
<!-- Title: Middleware Pages: 1 -->
<!--zoomable 157 -->

<svg id="main" version="1.1" xmlns="http://www.w3.org/2000/svg" xmlns:xlink="http://www.w3.org/1999/xlink" xml:space="preserve" onload="init(evt)">
<style type="text/css"><![CDATA[
.node, .edge {opacity: 0.7;}
.node.selected, .edge.selected {opacity: 1;}
.edge:hover path { stroke: red; }
.edge:hover polygon { stroke: red; fill: red; }
]]></style>

<defs>
  <circle id="rim" cx="0" cy="0" r="7"/>
  <circle id="rim2" cx="0" cy="0" r="3.5"/>
  <g id="zoomPlus">
    <use xlink:href="#rim" fill="#404040"><set attributeName="fill" to="#808080" begin="zoomplus.mouseover" end="zoomplus.mouseout"/></use>
    <path d="M-4,0h8M0,-4v8" fill="none" stroke="white" stroke-width="1.5" pointer-events="none"/>
  </g>
  <g id="zoomMin">
    <use xlink:href="#rim" fill="#404040"><set attributeName="fill" to="#808080" begin="zoomminus.mouseover" end="zoomminus.mouseout"/></use>
    <path d="M-4,0h8" fill="none" stroke="white" stroke-width="1.5" pointer-events="none"/>
  </g>
  <g id="arrowUp" transform="translate(30 24)">
    <use xlink:href="#rim"/>
    <path pointer-events="none" fill="none" stroke="white" stroke-width="1.5" d="M0,-3.0v7 M-2.5,-0.5L0,-3.0L2.5,-0.5"/>
  </g>
  <g id="arrowRight" transform="rotate(90) translate(36 -43)">
    <use xlink:href="#rim"/>
    <path pointer-events="none" fill="none" stroke="white" stroke-width="1.5" d="M0,-3.0v7 M-2.5,-0.5L0,-3.0L2.5,-0.5"/>
  </g>
  <g id="arrowDown" transform="rotate(180) translate(-30 -48)">
    <use xlink:href="#rim"/>
    <path pointer-events="none" fill="none" stroke="white" stroke-width="1.5" d="M0,-3.0v7 M-2.5,-0.5L0,-3.0L2.5,-0.5"/>
  </g>
  <g id="arrowLeft" transform="rotate(270) translate(-36 17)">
    <use xlink:href="#rim"/>
    <path pointer-events="none" fill="none" stroke="white" stroke-width="1.5" d="M0,-3.0v7 M-2.5,-0.5L0,-3.0L2.5,-0.5"/>
  </g>
  <g id="resetDef">
    <use xlink:href="#rim2" fill="#404040"><set attributeName="fill" to="#808080" begin="reset.mouseover" end="reset.mouseout"/></use>
  </g>
</defs>
<script type="application/ecmascript">
var viewWidth = 831;
var viewHeight = 157;
var sectionId = 'dynsection-0';
</script>
<script type="application/ecmascript" xlink:href="svg.min.js"/>
<svg id="graph" class="graph">
<g id="viewport">
<title>Middleware</title>
<!-- Node1 -->
<g id="Node000001" class="node">
<title>Node1</title>
<g id="a_Node000001"><a xlink:title=" ">
<polygon fill="#999999" stroke="none" points="499,-149 440,-149 440,-100 499,-100 499,-149"/>
<text text-anchor="start" x="444.75" y="-135.5" font-family="Helvetica,sans-Serif" font-size="10.00">Middleware</text>
<text text-anchor="start" x="468" y="-120.5" font-family="Helvetica,sans-Serif" font-size="10.00"> </text>
<text text-anchor="start" x="468" y="-105.5" font-family="Helvetica,sans-Serif" font-size="10.00"> </text>
<polygon fill="#666666" stroke="#666666" points="440,-132 440,-132 499,-132 499,-132 440,-132"/>
<polygon fill="#666666" stroke="#666666" points="440,-117 440,-117 499,-117 499,-117 440,-117"/>
<polygon fill="none" stroke="#666666" points="440,-100 440,-149 499,-149 499,-100 440,-100"/>
</a>
</g>
</g>
<!-- Node2 -->
<g id="Node000002" class="node">
<title>Node2</title>
<g id="a_Node000002"><a xlink:href="class_app_1_1_http_1_1_middleware_1_1_authenticate.html" target="_top" xlink:title=" ">
<polygon fill="white" stroke="none" points="99,-62 0,-62 0,-2 99,-2 99,-62"/>
<text text-anchor="start" x="22.12" y="-48.5" font-family="Helvetica,sans-Serif" font-size="10.00">Authenticate</text>
<text text-anchor="start" x="48" y="-33.5" font-family="Helvetica,sans-Serif" font-size="10.00"> </text>
<text text-anchor="start" x="3.88" y="-18.5" font-family="Helvetica,sans-Serif" font-size="10.00">#</text>
<text text-anchor="start" x="13" y="-18.5" font-family="Helvetica,sans-Serif" font-size="10.00">redirectTo(Request</text>
<text text-anchor="start" x="13" y="-7.25" font-family="Helvetica,sans-Serif" font-size="10.00"> $request)</text>
<polygon fill="#666666" stroke="#666666" points="0,-45 0,-45 99,-45 99,-45 0,-45"/>
<polygon fill="#666666" stroke="#666666" points="0,-30 0,-30 99,-30 99,-30 0,-30"/>
<polygon fill="none" stroke="#666666" points="0,-2 0,-62 99,-62 99,-2 0,-2"/>
</a>
</g>
</g>
<!-- Node1&#45;&gt;Node2 -->
<g id="edge1_Node000001_Node000002" class="edge">
<title>Node1&#45;&gt;Node2</title>
<g id="a_edge1_Node000001_Node000002"><a xlink:title=" ">
<path fill="none" stroke="#63b8ff" d="M428.61,-121.14C360.42,-116.26 219.88,-102.1 107.5,-64 104.58,-63.01 101.63,-61.88 98.69,-60.66"/>
<polygon fill="none" stroke="#63b8ff" points="428.37,-124.63 438.58,-121.82 428.84,-117.65 428.37,-124.63"/>
</a>
</g>
</g>
<!-- Node3 -->
<g id="Node000003" class="node">
<title>Node3</title>
<g id="a_Node000003"><a xlink:href="class_app_1_1_http_1_1_middleware_1_1_encrypt_cookies.html" target="_top" xlink:title=" ">
<polygon fill="white" stroke="none" points="196,-56.5 117,-56.5 117,-7.5 196,-7.5 196,-56.5"/>
<text text-anchor="start" x="121.62" y="-43" font-family="Helvetica,sans-Serif" font-size="10.00">EncryptCookies</text>
<text text-anchor="start" x="127.88" y="-28" font-family="Helvetica,sans-Serif" font-size="10.00">#</text>
<text text-anchor="start" x="144" y="-28" font-family="Helvetica,sans-Serif" font-size="10.00">$except</text>
<text text-anchor="start" x="155" y="-13" font-family="Helvetica,sans-Serif" font-size="10.00"> </text>
<polygon fill="#666666" stroke="#666666" points="117,-39.5 117,-39.5 196,-39.5 196,-39.5 117,-39.5"/>
<polygon fill="#666666" stroke="#666666" points="117,-24.5 117,-24.5 142,-24.5 142,-24.5 117,-24.5"/>
<polygon fill="#666666" stroke="#666666" points="142,-24.5 142,-24.5 196,-24.5 196,-24.5 142,-24.5"/>
<polygon fill="none" stroke="#666666" points="117,-7.5 117,-56.5 196,-56.5 196,-7.5 117,-7.5"/>
</a>
</g>
</g>
<!-- Node1&#45;&gt;Node3 -->
<g id="edge2_Node000001_Node000003" class="edge">
<title>Node1&#45;&gt;Node3</title>
<g id="a_edge2_Node000001_Node000003"><a xlink:title=" ">
<path fill="none" stroke="#63b8ff" d="M428.93,-118.9C375.74,-111.88 280.3,-95.79 204.5,-64 199.47,-61.89 194.38,-59.26 189.5,-56.42"/>
<polygon fill="none" stroke="#63b8ff" points="428.38,-122.36 438.74,-120.15 429.27,-115.42 428.38,-122.36"/>
</a>
</g>
</g>
<!-- Node4 -->
<g id="Node000004" class="node">
<title>Node4</title>
<g id="a_Node000004"><a xlink:href="class_app_1_1_http_1_1_middleware_1_1_prevent_requests_during_maintenance.html" target="_top" xlink:title=" ">
<polygon fill="white" stroke="none" points="383,-56.5 214,-56.5 214,-7.5 383,-7.5 383,-56.5"/>
<text text-anchor="start" x="218.62" y="-43" font-family="Helvetica,sans-Serif" font-size="10.00">PreventRequestsDuringMaintenance</text>
<text text-anchor="start" x="247.38" y="-28" font-family="Helvetica,sans-Serif" font-size="10.00">#</text>
<text text-anchor="start" x="286" y="-28" font-family="Helvetica,sans-Serif" font-size="10.00">$except</text>
<text text-anchor="start" x="297" y="-13" font-family="Helvetica,sans-Serif" font-size="10.00"> </text>
<polygon fill="#666666" stroke="#666666" points="214,-39.5 214,-39.5 383,-39.5 383,-39.5 214,-39.5"/>
<polygon fill="#666666" stroke="#666666" points="214,-24.5 214,-24.5 284,-24.5 284,-24.5 214,-24.5"/>
<polygon fill="#666666" stroke="#666666" points="284,-24.5 284,-24.5 383,-24.5 383,-24.5 284,-24.5"/>
<polygon fill="none" stroke="#666666" points="214,-7.5 214,-56.5 383,-56.5 383,-7.5 214,-7.5"/>
</a>
</g>
</g>
<!-- Node1&#45;&gt;Node4 -->
<g id="edge3_Node000001_Node000004" class="edge">
<title>Node1&#45;&gt;Node4</title>
<g id="a_edge3_Node000001_Node000004"><a xlink:title=" ">
<path fill="none" stroke="#63b8ff" d="M430.16,-102.68C404.02,-88.84 369.65,-70.65 342.58,-56.33"/>
<polygon fill="none" stroke="#63b8ff" points="428.29,-105.65 438.77,-107.23 431.56,-99.46 428.29,-105.65"/>
</a>
</g>
</g>
<!-- Node5 -->
<g id="Node000005" class="node">
<title>Node5</title>
<g id="a_Node000005"><a xlink:href="class_app_1_1_http_1_1_middleware_1_1_trim_strings.html" target="_top" xlink:title=" ">
<polygon fill="white" stroke="none" points="461.5,-56.5 401.5,-56.5 401.5,-7.5 461.5,-7.5 461.5,-56.5"/>
<text text-anchor="start" x="406.38" y="-43" font-family="Helvetica,sans-Serif" font-size="10.00">TrimStrings</text>
<text text-anchor="start" x="407.38" y="-28" font-family="Helvetica,sans-Serif" font-size="10.00">#</text>
<text text-anchor="start" x="418.5" y="-28" font-family="Helvetica,sans-Serif" font-size="10.00">$except</text>
<text text-anchor="start" x="430" y="-13" font-family="Helvetica,sans-Serif" font-size="10.00"> </text>
<polygon fill="#666666" stroke="#666666" points="401.5,-39.5 401.5,-39.5 461.5,-39.5 461.5,-39.5 401.5,-39.5"/>
<polygon fill="#666666" stroke="#666666" points="401.5,-24.5 401.5,-24.5 416.5,-24.5 416.5,-24.5 401.5,-24.5"/>
<polygon fill="#666666" stroke="#666666" points="416.5,-24.5 416.5,-24.5 461.5,-24.5 461.5,-24.5 416.5,-24.5"/>
<polygon fill="none" stroke="#666666" points="401.5,-7.5 401.5,-56.5 461.5,-56.5 461.5,-7.5 401.5,-7.5"/>
</a>
</g>
</g>
<!-- Node1&#45;&gt;Node5 -->
<g id="edge4_Node000001_Node000005" class="edge">
<title>Node1&#45;&gt;Node5</title>
<g id="a_edge4_Node000001_Node000005"><a xlink:title=" ">
<path fill="none" stroke="#63b8ff" d="M455.38,-89.87C450.68,-78.67 445.55,-66.46 441.25,-56.23"/>
<polygon fill="none" stroke="#63b8ff" points="452.03,-90.93 459.13,-98.8 458.48,-88.22 452.03,-90.93"/>
</a>
</g>
</g>
<!-- Node6 -->
<g id="Node000006" class="node">
<title>Node6</title>
<g id="a_Node000006"><a xlink:href="class_app_1_1_http_1_1_middleware_1_1_trust_hosts.html" target="_top" xlink:title=" ">
<polygon fill="white" stroke="none" points="537.5,-56.5 479.5,-56.5 479.5,-7.5 537.5,-7.5 537.5,-56.5"/>
<text text-anchor="start" x="484.12" y="-43" font-family="Helvetica,sans-Serif" font-size="10.00">TrustHosts</text>
<text text-anchor="start" x="507" y="-28" font-family="Helvetica,sans-Serif" font-size="10.00"> </text>
<text text-anchor="start" x="486" y="-13" font-family="Helvetica,sans-Serif" font-size="10.00">+</text>
<text text-anchor="start" x="498.5" y="-13" font-family="Helvetica,sans-Serif" font-size="10.00">hosts()</text>
<polygon fill="#666666" stroke="#666666" points="479.5,-39.5 479.5,-39.5 537.5,-39.5 537.5,-39.5 479.5,-39.5"/>
<polygon fill="#666666" stroke="#666666" points="479.5,-24.5 479.5,-24.5 537.5,-24.5 537.5,-24.5 479.5,-24.5"/>
<polygon fill="none" stroke="#666666" points="479.5,-7.5 479.5,-56.5 537.5,-56.5 537.5,-7.5 479.5,-7.5"/>
</a>
</g>
</g>
<!-- Node1&#45;&gt;Node6 -->
<g id="edge5_Node000001_Node000006" class="edge">
<title>Node1&#45;&gt;Node6</title>
<g id="a_edge5_Node000001_Node000006"><a xlink:title=" ">
<path fill="none" stroke="#63b8ff" d="M483.99,-89.87C488.82,-78.67 494.08,-66.46 498.49,-56.23"/>
<polygon fill="none" stroke="#63b8ff" points="480.89,-88.24 480.14,-98.8 487.31,-91.01 480.89,-88.24"/>
</a>
</g>
</g>
<!-- Node7 -->
<g id="Node000007" class="node">
<title>Node7</title>
<g id="a_Node000007"><a xlink:href="class_app_1_1_http_1_1_middleware_1_1_trust_proxies.html" target="_top" xlink:title=" ">
<polygon fill="white" stroke="none" points="621,-64 556,-64 556,0 621,0 621,-64"/>
<text text-anchor="start" x="560.75" y="-50.5" font-family="Helvetica,sans-Serif" font-size="10.00">TrustProxies</text>
<text text-anchor="start" x="561.88" y="-35.5" font-family="Helvetica,sans-Serif" font-size="10.00">#</text>
<text text-anchor="start" x="573" y="-35.5" font-family="Helvetica,sans-Serif" font-size="10.00">$proxies</text>
<text text-anchor="start" x="561.88" y="-20.5" font-family="Helvetica,sans-Serif" font-size="10.00">#</text>
<text text-anchor="start" x="573" y="-20.5" font-family="Helvetica,sans-Serif" font-size="10.00">$headers</text>
<text text-anchor="start" x="587" y="-5.5" font-family="Helvetica,sans-Serif" font-size="10.00"> </text>
<polygon fill="#666666" stroke="#666666" points="556,-47 556,-47 621,-47 621,-47 556,-47"/>
<polygon fill="#666666" stroke="#666666" points="556,-17 556,-17 571,-17 571,-17 556,-17"/>
<polygon fill="#666666" stroke="#666666" points="571,-17 571,-17 621,-17 621,-17 571,-17"/>
<polygon fill="none" stroke="#666666" points="556,0 556,-64 621,-64 621,0 556,0"/>
</a>
</g>
</g>
<!-- Node1&#45;&gt;Node7 -->
<g id="edge6_Node000001_Node000007" class="edge">
<title>Node1&#45;&gt;Node7</title>
<g id="a_edge6_Node000001_Node000007"><a xlink:title=" ">
<path fill="none" stroke="#63b8ff" d="M507.79,-94.38C523.36,-82.54 541.16,-69 556.08,-57.66"/>
<polygon fill="none" stroke="#63b8ff" points="505.96,-91.37 500.12,-100.21 510.2,-96.95 505.96,-91.37"/>
</a>
</g>
</g>
<!-- Node8 -->
<g id="Node000008" class="node">
<title>Node8</title>
<g id="a_Node000008"><a xlink:href="class_app_1_1_http_1_1_middleware_1_1_validate_signature.html" target="_top" xlink:title=" ">
<polygon fill="white" stroke="none" points="724,-56.5 639,-56.5 639,-7.5 724,-7.5 724,-56.5"/>
<text text-anchor="start" x="643.62" y="-43" font-family="Helvetica,sans-Serif" font-size="10.00">ValidateSignature</text>
<text text-anchor="start" x="651.38" y="-28" font-family="Helvetica,sans-Serif" font-size="10.00">#</text>
<text text-anchor="start" x="669" y="-28" font-family="Helvetica,sans-Serif" font-size="10.00">$except</text>
<text text-anchor="start" x="680" y="-13" font-family="Helvetica,sans-Serif" font-size="10.00"> </text>
<polygon fill="#666666" stroke="#666666" points="639,-39.5 639,-39.5 724,-39.5 724,-39.5 639,-39.5"/>
<polygon fill="#666666" stroke="#666666" points="639,-24.5 639,-24.5 667,-24.5 667,-24.5 639,-24.5"/>
<polygon fill="#666666" stroke="#666666" points="667,-24.5 667,-24.5 724,-24.5 724,-24.5 667,-24.5"/>
<polygon fill="none" stroke="#666666" points="639,-7.5 639,-56.5 724,-56.5 724,-7.5 639,-7.5"/>
</a>
</g>
</g>
<!-- Node1&#45;&gt;Node8 -->
<g id="edge7_Node000001_Node000008" class="edge">
<title>Node1&#45;&gt;Node8</title>
<g id="a_edge7_Node000001_Node000008"><a xlink:title=" ">
<path fill="none" stroke="#63b8ff" d="M509.62,-111.06C542.74,-100.23 590.6,-83.28 630.5,-64 635.26,-61.7 640.14,-59.09 644.92,-56.38"/>
<polygon fill="none" stroke="#63b8ff" points="508.87,-107.63 500.43,-114.03 511.02,-114.29 508.87,-107.63"/>
</a>
</g>
</g>
<!-- Node9 -->
<g id="Node000009" class="node">
<title>Node9</title>
<g id="a_Node000009"><a xlink:href="class_app_1_1_http_1_1_middleware_1_1_verify_csrf_token.html" target="_top" xlink:title=" ">
<polygon fill="white" stroke="none" points="822.5,-56.5 742.5,-56.5 742.5,-7.5 822.5,-7.5 822.5,-56.5"/>
<text text-anchor="start" x="747.25" y="-43" font-family="Helvetica,sans-Serif" font-size="10.00">VerifyCsrfToken</text>
<text text-anchor="start" x="753.38" y="-28" font-family="Helvetica,sans-Serif" font-size="10.00">#</text>
<text text-anchor="start" x="769.5" y="-28" font-family="Helvetica,sans-Serif" font-size="10.00">$except</text>
<text text-anchor="start" x="781" y="-13" font-family="Helvetica,sans-Serif" font-size="10.00"> </text>
<polygon fill="#666666" stroke="#666666" points="742.5,-39.5 742.5,-39.5 822.5,-39.5 822.5,-39.5 742.5,-39.5"/>
<polygon fill="#666666" stroke="#666666" points="742.5,-24.5 742.5,-24.5 767.5,-24.5 767.5,-24.5 742.5,-24.5"/>
<polygon fill="#666666" stroke="#666666" points="767.5,-24.5 767.5,-24.5 822.5,-24.5 822.5,-24.5 767.5,-24.5"/>
<polygon fill="none" stroke="#666666" points="742.5,-7.5 742.5,-56.5 822.5,-56.5 822.5,-7.5 742.5,-7.5"/>
</a>
</g>
</g>
<!-- Node1&#45;&gt;Node9 -->
<g id="edge8_Node000001_Node000009" class="edge">
<title>Node1&#45;&gt;Node9</title>
<g id="a_edge8_Node000001_Node000009"><a xlink:title=" ">
<path fill="none" stroke="#63b8ff" d="M509.87,-118.77C562.81,-111.6 657.84,-95.36 733.5,-64 738.61,-61.88 743.79,-59.24 748.77,-56.4"/>
<polygon fill="none" stroke="#63b8ff" points="509.57,-115.28 500.11,-120.05 510.48,-122.22 509.57,-115.28"/>
</a>
</g>
</g>
</g>
</svg>

<g id="navigator" transform="translate(0 0)" fill="#404254">
  <rect fill="#f2f5e9" fill-opacity="0.5" stroke="#606060" stroke-width=".5" x="0" y="0" width="60" height="60"/>
  <use id="zoomplus" xlink:href="#zoomPlus" x="17" y="9" onmousedown="handleZoom(evt,'in')"/>
  <use id="zoomminus" xlink:href="#zoomMin" x="42" y="9" onmousedown="handleZoom(evt,'out')"/>
  <use id="reset" xlink:href="#resetDef" x="30" y="36" onmousedown="handleReset()"/>
   <use id="arrowup" xlink:href="#arrowUp" x="0" y="0" onmousedown="handlePan(0,-1)"/>
  <use id="arrowright" xlink:href="#arrowRight" x="0" y="0" onmousedown="handlePan(1,0)"/>
  <use id="arrowdown" xlink:href="#arrowDown" x="0" y="0" onmousedown="handlePan(0,1)"/>
  <use id="arrowleft" xlink:href="#arrowLeft" x="0" y="0" onmousedown="handlePan(-1,0)"/>
</g>
<svg viewBox="0 0 15 15" width="100%" height="30px" preserveAspectRatio="xMaxYMin meet">
 <g id="arrow_out" transform="scale(0.3 0.3)">
  <a xlink:href="class_middleware__inherit__graph_org.svg" target="_base">
   <rect id="button" ry="5" rx="5" y="6" x="6" height="38" width="38"
        fill="#f2f5e9" fill-opacity="0.5" stroke="#606060" stroke-width="1.0"/>
   <path id="arrow"
     d="M 11.500037,31.436501 C 11.940474,20.09759 22.043105,11.32322 32.158766,21.979434 L 37.068811,17.246167 C 37.068811,17.246167 37.088388,32 37.088388,32 L 22.160133,31.978069 C 22.160133,31.978069 26.997745,27.140456 26.997745,27.140456 C 18.528582,18.264221 13.291696,25.230495 11.500037,31.436501 z"
     style="fill:#404040;"/>
  </a>
 </g>
</svg>

<style type='text/css'>
<![CDATA[
[data-mouse-over-selected='false'] { opacity: 0.7; }
[data-mouse-over-selected='true']  { opacity: 1.0; }
]]>
</style>
<script type="application/ecmascript"><![CDATA[
document.addEventListener('DOMContentLoaded', (event) => {
  highlightEdges();
  highlightAdjacentNodes();
});
]]></script>
</svg>
