<?xml version="1.0" encoding="UTF-8" standalone="no"?>
<!DOCTYPE svg PUBLIC "-//W3C//DTD SVG 1.1//EN"
 "http://www.w3.org/Graphics/SVG/1.1/DTD/svg11.dtd">
<!-- Generated by graphviz version 10.0.1 (20240210.2158)
 -->
<!-- Title: Produits Pages: 1 -->
<svg width="133pt" height="153pt"
 viewBox="0.00 0.00 132.75 153.25" xmlns="http://www.w3.org/2000/svg" xmlns:xlink="http://www.w3.org/1999/xlink">
<g id="graph0" class="graph" transform="scale(1 1) rotate(0) translate(4 149.25)">
<title>Produits</title>
<!-- Node1 -->
<g id="Node000001" class="node">
<title>Node1</title>
<g id="a_Node000001"><a xlink:title=" ">
<polygon fill="#999999" stroke="none" points="69.5,-49 18.5,-49 18.5,0 69.5,0 69.5,-49"/>
<text text-anchor="start" x="26" y="-35.5" font-family="Helvetica,sans-Serif" font-size="10.00">Produits</text>
<text text-anchor="start" x="22.88" y="-20.5" font-family="Helvetica,sans-Serif" font-size="10.00">#</text>
<text text-anchor="start" x="32.5" y="-20.5" font-family="Helvetica,sans-Serif" font-size="10.00">$fillable</text>
<text text-anchor="start" x="22.5" y="-5.5" font-family="Helvetica,sans-Serif" font-size="10.00">+</text>
<text text-anchor="start" x="32.5" y="-5.5" font-family="Helvetica,sans-Serif" font-size="10.00">salle()</text>
<polygon fill="#666666" stroke="#666666" points="18.5,-32 18.5,-32 69.5,-32 69.5,-32 18.5,-32"/>
<polygon fill="#666666" stroke="#666666" points="18.5,-17 18.5,-17 30.5,-17 30.5,-17 18.5,-17"/>
<polygon fill="#666666" stroke="#666666" points="30.5,-17 30.5,-17 69.5,-17 69.5,-17 30.5,-17"/>
<polygon fill="none" stroke="#666666" points="18.5,0 18.5,-49 69.5,-49 69.5,0 18.5,0"/>
</a>
</g>
</g>
<!-- Node2 -->
<g id="Node000002" class="node">
<title>Node2</title>
<g id="a_Node000002"><a xlink:title=" ">
<polygon fill="white" stroke="none" points="36,-145.25 0,-145.25 0,-96.25 36,-96.25 36,-145.25"/>
<text text-anchor="start" x="4.88" y="-131.75" font-family="Helvetica,sans-Serif" font-size="10.00">Model</text>
<text text-anchor="start" x="16.5" y="-116.75" font-family="Helvetica,sans-Serif" font-size="10.00"> </text>
<text text-anchor="start" x="16.5" y="-101.75" font-family="Helvetica,sans-Serif" font-size="10.00"> </text>
<polygon fill="#666666" stroke="#666666" points="0,-128.25 0,-128.25 36,-128.25 36,-128.25 0,-128.25"/>
<polygon fill="#666666" stroke="#666666" points="0,-113.25 0,-113.25 36,-113.25 36,-113.25 0,-113.25"/>
<polygon fill="none" stroke="#666666" points="0,-96.25 0,-145.25 36,-145.25 36,-96.25 0,-96.25"/>
</a>
</g>
</g>
<!-- Node2&#45;&gt;Node1 -->
<g id="edge1_Node000001_Node000002" class="edge">
<title>Node2&#45;&gt;Node1</title>
<g id="a_edge1_Node000001_Node000002"><a xlink:title=" ">
<path fill="none" stroke="#63b8ff" d="M27.4,-85.69C30.77,-73.46 34.49,-59.97 37.56,-48.86"/>
<polygon fill="none" stroke="#63b8ff" points="24.11,-84.42 24.83,-94.99 30.86,-86.28 24.11,-84.42"/>
</a>
</g>
</g>
<!-- Node3 -->
<g id="Node000003" class="node">
<title>Node3</title>
<g id="a_Node000003"><a xlink:title=" ">
<polygon fill="white" stroke="none" points="88,-145.25 54,-145.25 54,-96.25 88,-96.25 88,-145.25"/>
<text text-anchor="start" x="59" y="-131.75" font-family="Helvetica,sans-Serif" font-size="10.00">static</text>
<text text-anchor="start" x="69.5" y="-116.75" font-family="Helvetica,sans-Serif" font-size="10.00"> </text>
<text text-anchor="start" x="69.5" y="-101.75" font-family="Helvetica,sans-Serif" font-size="10.00"> </text>
<polygon fill="#666666" stroke="#666666" points="54,-128.25 54,-128.25 88,-128.25 88,-128.25 54,-128.25"/>
<polygon fill="#666666" stroke="#666666" points="54,-113.25 54,-113.25 88,-113.25 88,-113.25 54,-113.25"/>
<polygon fill="none" stroke="#666666" points="54,-96.25 54,-145.25 88,-145.25 88,-96.25 54,-96.25"/>
</a>
</g>
</g>
<!-- Node3&#45;&gt;Node1 -->
<g id="edge2_Node000001_Node000003" class="edge">
<title>Node3&#45;&gt;Node1</title>
<g id="a_edge2_Node000001_Node000003"><a xlink:title=" ">
<path fill="none" stroke="#63b8ff" d="M64.33,-96.45C61.28,-85.8 57.59,-72.95 54.21,-61.13"/>
<polygon fill="none" stroke="#63b8ff" points="54.24,-61.26 48.75,-56.59 50.94,-49.72 56.44,-54.39 54.24,-61.26"/>
</a>
</g>
<text text-anchor="middle" x="91.38" y="-68.75" font-family="Helvetica,sans-Serif" font-size="10.00" fill="grey"> +$createRules</text>
</g>
</g>
</svg>
