<?xml version="1.0" encoding="UTF-8" standalone="no"?>
<!DOCTYPE svg PUBLIC "-//W3C//DTD SVG 1.1//EN"
 "http://www.w3.org/Graphics/SVG/1.1/DTD/svg11.dtd">
<!-- Generated by graphviz version 10.0.1 (20240210.2158)
 -->
<!-- Title: Authenticate Pages: 1 -->
<svg width="107pt" height="153pt"
 viewBox="0.00 0.00 107.00 153.00" xmlns="http://www.w3.org/2000/svg" xmlns:xlink="http://www.w3.org/1999/xlink">
<g id="graph0" class="graph" transform="scale(1 1) rotate(0) translate(4 149)">
<title>Authenticate</title>
<!-- Node1 -->
<g id="Node000001" class="node">
<title>Node1</title>
<g id="a_Node000001"><a xlink:title=" ">
<polygon fill="#999999" stroke="none" points="99,-60 0,-60 0,0 99,0 99,-60"/>
<text text-anchor="start" x="22.12" y="-46.5" font-family="Helvetica,sans-Serif" font-size="10.00">Authenticate</text>
<text text-anchor="start" x="48" y="-31.5" font-family="Helvetica,sans-Serif" font-size="10.00"> </text>
<text text-anchor="start" x="3.88" y="-16.5" font-family="Helvetica,sans-Serif" font-size="10.00">#</text>
<text text-anchor="start" x="13" y="-16.5" font-family="Helvetica,sans-Serif" font-size="10.00">redirectTo(Request</text>
<text text-anchor="start" x="13" y="-5.25" font-family="Helvetica,sans-Serif" font-size="10.00"> $request)</text>
<polygon fill="#666666" stroke="#666666" points="0,-43 0,-43 99,-43 99,-43 0,-43"/>
<polygon fill="#666666" stroke="#666666" points="0,-28 0,-28 99,-28 99,-28 0,-28"/>
<polygon fill="none" stroke="#666666" points="0,0 0,-60 99,-60 99,0 0,0"/>
</a>
</g>
</g>
<!-- Node2 -->
<g id="Node000002" class="node">
<title>Node2</title>
<g id="a_Node000002"><a xlink:href="class_middleware.html" target="_top" xlink:title=" ">
<polygon fill="white" stroke="none" points="79,-145 20,-145 20,-96 79,-96 79,-145"/>
<text text-anchor="start" x="24.75" y="-131.5" font-family="Helvetica,sans-Serif" font-size="10.00">Middleware</text>
<text text-anchor="start" x="48" y="-116.5" font-family="Helvetica,sans-Serif" font-size="10.00"> </text>
<text text-anchor="start" x="48" y="-101.5" font-family="Helvetica,sans-Serif" font-size="10.00"> </text>
<polygon fill="#666666" stroke="#666666" points="20,-128 20,-128 79,-128 79,-128 20,-128"/>
<polygon fill="#666666" stroke="#666666" points="20,-113 20,-113 79,-113 79,-113 20,-113"/>
<polygon fill="none" stroke="#666666" points="20,-96 20,-145 79,-145 79,-96 20,-96"/>
</a>
</g>
</g>
<!-- Node2&#45;&gt;Node1 -->
<g id="edge1_Node000001_Node000002" class="edge">
<title>Node2&#45;&gt;Node1</title>
<g id="a_edge1_Node000001_Node000002"><a xlink:title=" ">
<path fill="none" stroke="#63b8ff" d="M49.5,-84.94C49.5,-76.62 49.5,-67.82 49.5,-59.79"/>
<polygon fill="none" stroke="#63b8ff" points="46,-84.73 49.5,-94.73 53,-84.73 46,-84.73"/>
</a>
</g>
</g>
</g>
</svg>
