<?xml version="1.0" encoding="UTF-8" standalone="no"?>
<!DOCTYPE svg PUBLIC "-//W3C//DTD SVG 1.1//EN"
 "http://www.w3.org/Graphics/SVG/1.1/DTD/svg11.dtd">
<!-- Generated by graphviz version 10.0.1 (20240210.2158)
 -->
<!-- Title: Controller Pages: 1 -->
<!--zoomable 339 -->

<svg id="main" version="1.1" xmlns="http://www.w3.org/2000/svg" xmlns:xlink="http://www.w3.org/1999/xlink" xml:space="preserve" onload="init(evt)">
<style type="text/css"><![CDATA[
.node, .edge {opacity: 0.7;}
.node.selected, .edge.selected {opacity: 1;}
.edge:hover path { stroke: red; }
.edge:hover polygon { stroke: red; fill: red; }
]]></style>

<defs>
  <circle id="rim" cx="0" cy="0" r="7"/>
  <circle id="rim2" cx="0" cy="0" r="3.5"/>
  <g id="zoomPlus">
    <use xlink:href="#rim" fill="#404040"><set attributeName="fill" to="#808080" begin="zoomplus.mouseover" end="zoomplus.mouseout"/></use>
    <path d="M-4,0h8M0,-4v8" fill="none" stroke="white" stroke-width="1.5" pointer-events="none"/>
  </g>
  <g id="zoomMin">
    <use xlink:href="#rim" fill="#404040"><set attributeName="fill" to="#808080" begin="zoomminus.mouseover" end="zoomminus.mouseout"/></use>
    <path d="M-4,0h8" fill="none" stroke="white" stroke-width="1.5" pointer-events="none"/>
  </g>
  <g id="arrowUp" transform="translate(30 24)">
    <use xlink:href="#rim"/>
    <path pointer-events="none" fill="none" stroke="white" stroke-width="1.5" d="M0,-3.0v7 M-2.5,-0.5L0,-3.0L2.5,-0.5"/>
  </g>
  <g id="arrowRight" transform="rotate(90) translate(36 -43)">
    <use xlink:href="#rim"/>
    <path pointer-events="none" fill="none" stroke="white" stroke-width="1.5" d="M0,-3.0v7 M-2.5,-0.5L0,-3.0L2.5,-0.5"/>
  </g>
  <g id="arrowDown" transform="rotate(180) translate(-30 -48)">
    <use xlink:href="#rim"/>
    <path pointer-events="none" fill="none" stroke="white" stroke-width="1.5" d="M0,-3.0v7 M-2.5,-0.5L0,-3.0L2.5,-0.5"/>
  </g>
  <g id="arrowLeft" transform="rotate(270) translate(-36 17)">
    <use xlink:href="#rim"/>
    <path pointer-events="none" fill="none" stroke="white" stroke-width="1.5" d="M0,-3.0v7 M-2.5,-0.5L0,-3.0L2.5,-0.5"/>
  </g>
  <g id="resetDef">
    <use xlink:href="#rim2" fill="#404040"><set attributeName="fill" to="#808080" begin="reset.mouseover" end="reset.mouseout"/></use>
  </g>
</defs>
<script type="application/ecmascript">
var viewWidth = 884;
var viewHeight = 339;
var sectionId = 'dynsection-0';
</script>
<script type="application/ecmascript" xlink:href="svg.min.js"/>
<svg id="graph" class="graph">
<g id="viewport">
<title>Controller</title>
<!-- Node1 -->
<g id="Node000001" class="node">
<title>Node1</title>
<g id="a_Node000001"><a xlink:title=" ">
<polygon fill="#999999" stroke="none" points="449,-246 397,-246 397,-197 449,-197 449,-246"/>
<text text-anchor="start" x="402" y="-232.5" font-family="Helvetica,sans-Serif" font-size="10.00">Controller</text>
<text text-anchor="start" x="421.5" y="-217.5" font-family="Helvetica,sans-Serif" font-size="10.00"> </text>
<text text-anchor="start" x="421.5" y="-202.5" font-family="Helvetica,sans-Serif" font-size="10.00"> </text>
<polygon fill="#666666" stroke="#666666" points="397,-229 397,-229 449,-229 449,-229 397,-229"/>
<polygon fill="#666666" stroke="#666666" points="397,-214 397,-214 449,-214 449,-214 397,-214"/>
<polygon fill="none" stroke="#666666" points="397,-197 397,-246 449,-246 449,-197 397,-197"/>
</a>
</g>
</g>
<!-- Node3 -->
<g id="Node000003" class="node">
<title>Node3</title>
<g id="a_Node000003"><a xlink:href="class_app_1_1_http_1_1_controllers_1_1_category_controller.html" target="_top" xlink:title=" ">
<polygon fill="white" stroke="none" points="132,-161 0,-161 0,0 132,0 132,-161"/>
<text text-anchor="start" x="25.12" y="-147.5" font-family="Helvetica,sans-Serif" font-size="10.00">CategoryController</text>
<text text-anchor="start" x="64.5" y="-132.5" font-family="Helvetica,sans-Serif" font-size="10.00"> </text>
<text text-anchor="start" x="4" y="-117.5" font-family="Helvetica,sans-Serif" font-size="10.00">+</text>
<text text-anchor="start" x="14" y="-117.5" font-family="Helvetica,sans-Serif" font-size="10.00">index()</text>
<text text-anchor="start" x="4" y="-102.5" font-family="Helvetica,sans-Serif" font-size="10.00">+</text>
<text text-anchor="start" x="14" y="-102.5" font-family="Helvetica,sans-Serif" font-size="10.00">create()</text>
<text text-anchor="start" x="4" y="-87.5" font-family="Helvetica,sans-Serif" font-size="10.00">+</text>
<text text-anchor="start" x="14" y="-87.5" font-family="Helvetica,sans-Serif" font-size="10.00">store(Request $request)</text>
<text text-anchor="start" x="4" y="-72.5" font-family="Helvetica,sans-Serif" font-size="10.00">+</text>
<text text-anchor="start" x="14" y="-72.5" font-family="Helvetica,sans-Serif" font-size="10.00">show(Category $category)</text>
<text text-anchor="start" x="4" y="-57.5" font-family="Helvetica,sans-Serif" font-size="10.00">+</text>
<text text-anchor="start" x="14" y="-57.5" font-family="Helvetica,sans-Serif" font-size="10.00">edit(Category $category)</text>
<text text-anchor="start" x="4" y="-42.5" font-family="Helvetica,sans-Serif" font-size="10.00">+</text>
<text text-anchor="start" x="14" y="-42.5" font-family="Helvetica,sans-Serif" font-size="10.00">update(Request $request,</text>
<text text-anchor="start" x="14" y="-31.25" font-family="Helvetica,sans-Serif" font-size="10.00"> Category $category)</text>
<text text-anchor="start" x="4" y="-16.5" font-family="Helvetica,sans-Serif" font-size="10.00">+</text>
<text text-anchor="start" x="14" y="-16.5" font-family="Helvetica,sans-Serif" font-size="10.00">destroy(Category </text>
<text text-anchor="start" x="14" y="-5.25" font-family="Helvetica,sans-Serif" font-size="10.00">$category)</text>
<polygon fill="#666666" stroke="#666666" points="0,-144 0,-144 132,-144 132,-144 0,-144"/>
<polygon fill="#666666" stroke="#666666" points="0,-129 0,-129 132,-129 132,-129 0,-129"/>
<polygon fill="none" stroke="#666666" points="0,0 0,-161 132,-161 132,0 0,0"/>
</a>
</g>
</g>
<!-- Node1&#45;&gt;Node3 -->
<g id="edge2_Node000001_Node000003" class="edge">
<title>Node1&#45;&gt;Node3</title>
<g id="a_edge2_Node000001_Node000003"><a xlink:title=" ">
<path fill="none" stroke="#63b8ff" d="M385.89,-219.63C329.51,-216.84 220.44,-205.57 141,-161 137.86,-159.24 134.77,-157.3 131.74,-155.22"/>
<polygon fill="none" stroke="#63b8ff" points="385.44,-223.11 395.58,-220.04 385.74,-216.12 385.44,-223.11"/>
</a>
</g>
</g>
<!-- Node4 -->
<g id="Node000004" class="node">
<title>Node4</title>
<g id="a_Node000004"><a xlink:href="class_app_1_1_http_1_1_controllers_1_1_home_controller.html" target="_top" xlink:title=" ">
<polygon fill="white" stroke="none" points="228,-112.5 150,-112.5 150,-48.5 228,-48.5 228,-112.5"/>
<text text-anchor="start" x="154.88" y="-99" font-family="Helvetica,sans-Serif" font-size="10.00">HomeController</text>
<text text-anchor="start" x="187.5" y="-84" font-family="Helvetica,sans-Serif" font-size="10.00"> </text>
<text text-anchor="start" x="154.5" y="-69" font-family="Helvetica,sans-Serif" font-size="10.00">+</text>
<text text-anchor="start" x="165" y="-69" font-family="Helvetica,sans-Serif" font-size="10.00">__construct()</text>
<text text-anchor="start" x="154.5" y="-54" font-family="Helvetica,sans-Serif" font-size="10.00">+</text>
<text text-anchor="start" x="165" y="-54" font-family="Helvetica,sans-Serif" font-size="10.00">index()</text>
<polygon fill="#666666" stroke="#666666" points="150,-95.5 150,-95.5 228,-95.5 228,-95.5 150,-95.5"/>
<polygon fill="#666666" stroke="#666666" points="150,-80.5 150,-80.5 228,-80.5 228,-80.5 150,-80.5"/>
<polygon fill="none" stroke="#666666" points="150,-48.5 150,-112.5 228,-112.5 228,-48.5 150,-48.5"/>
</a>
</g>
</g>
<!-- Node1&#45;&gt;Node4 -->
<g id="edge3_Node000001_Node000004" class="edge">
<title>Node1&#45;&gt;Node4</title>
<g id="a_edge3_Node000001_Node000004"><a xlink:title=" ">
<path fill="none" stroke="#63b8ff" d="M385.98,-216.46C345.63,-210.41 280.95,-195.72 237,-161 221.06,-148.41 209.18,-128.95 201.23,-112.44"/>
<polygon fill="none" stroke="#63b8ff" points="385.29,-219.89 395.68,-217.8 386.25,-212.96 385.29,-219.89"/>
</a>
</g>
</g>
<!-- Node5 -->
<g id="Node000005" class="node">
<title>Node5</title>
<g id="a_Node000005"><a xlink:href="class_app_1_1_http_1_1_controllers_1_1_inventaire_controller.html" target="_top" xlink:title=" ">
<polygon fill="white" stroke="none" points="340,-105 246,-105 246,-56 340,-56 340,-105"/>
<text text-anchor="start" x="250.62" y="-91.5" font-family="Helvetica,sans-Serif" font-size="10.00">InventaireController</text>
<text text-anchor="start" x="291.5" y="-76.5" font-family="Helvetica,sans-Serif" font-size="10.00"> </text>
<text text-anchor="start" x="261.5" y="-61.5" font-family="Helvetica,sans-Serif" font-size="10.00">+</text>
<text text-anchor="start" x="283" y="-61.5" font-family="Helvetica,sans-Serif" font-size="10.00">index()</text>
<polygon fill="#666666" stroke="#666666" points="246,-88 246,-88 340,-88 340,-88 246,-88"/>
<polygon fill="#666666" stroke="#666666" points="246,-73 246,-73 340,-73 340,-73 246,-73"/>
<polygon fill="none" stroke="#666666" points="246,-56 246,-105 340,-105 340,-56 246,-56"/>
</a>
</g>
</g>
<!-- Node1&#45;&gt;Node5 -->
<g id="edge4_Node000001_Node000005" class="edge">
<title>Node1&#45;&gt;Node5</title>
<g id="a_edge4_Node000001_Node000005"><a xlink:title=" ">
<path fill="none" stroke="#63b8ff" d="M388.05,-195.65C375.09,-185.62 360.71,-173.48 349,-161 332.71,-143.64 317.38,-121.29 306.89,-104.71"/>
<polygon fill="none" stroke="#63b8ff" points="385.88,-198.4 395.97,-201.64 390.1,-192.81 385.88,-198.4"/>
</a>
</g>
</g>
<!-- Node6 -->
<g id="Node000006" class="node">
<title>Node6</title>
<g id="a_Node000006"><a xlink:href="class_app_1_1_http_1_1_controllers_1_1_lieux_controller.html" target="_top" xlink:title=" ">
<polygon fill="white" stroke="none" points="488,-155.5 358,-155.5 358,-5.5 488,-5.5 488,-155.5"/>
<text text-anchor="start" x="390.38" y="-142" font-family="Helvetica,sans-Serif" font-size="10.00">LieuxController</text>
<text text-anchor="start" x="421.5" y="-127" font-family="Helvetica,sans-Serif" font-size="10.00"> </text>
<text text-anchor="start" x="362" y="-112" font-family="Helvetica,sans-Serif" font-size="10.00">+</text>
<text text-anchor="start" x="372" y="-112" font-family="Helvetica,sans-Serif" font-size="10.00">getLieux()</text>
<text text-anchor="start" x="362" y="-97" font-family="Helvetica,sans-Serif" font-size="10.00">+</text>
<text text-anchor="start" x="372" y="-97" font-family="Helvetica,sans-Serif" font-size="10.00">getSallesByLieu($lieuId)</text>
<text text-anchor="start" x="362" y="-82" font-family="Helvetica,sans-Serif" font-size="10.00">+</text>
<text text-anchor="start" x="372" y="-82" font-family="Helvetica,sans-Serif" font-size="10.00">create()</text>
<text text-anchor="start" x="362" y="-67" font-family="Helvetica,sans-Serif" font-size="10.00">+</text>
<text text-anchor="start" x="372" y="-67" font-family="Helvetica,sans-Serif" font-size="10.00">store(Request $request)</text>
<text text-anchor="start" x="362" y="-52" font-family="Helvetica,sans-Serif" font-size="10.00">+</text>
<text text-anchor="start" x="372" y="-52" font-family="Helvetica,sans-Serif" font-size="10.00">edit(Lieux $lieu)</text>
<text text-anchor="start" x="362" y="-37" font-family="Helvetica,sans-Serif" font-size="10.00">+</text>
<text text-anchor="start" x="372" y="-37" font-family="Helvetica,sans-Serif" font-size="10.00">update(Request $request,</text>
<text text-anchor="start" x="372" y="-25.75" font-family="Helvetica,sans-Serif" font-size="10.00"> $lieu)</text>
<text text-anchor="start" x="362" y="-11" font-family="Helvetica,sans-Serif" font-size="10.00">+</text>
<text text-anchor="start" x="372" y="-11" font-family="Helvetica,sans-Serif" font-size="10.00">destroy(Lieux $lieu)</text>
<polygon fill="#666666" stroke="#666666" points="358,-138.5 358,-138.5 488,-138.5 488,-138.5 358,-138.5"/>
<polygon fill="#666666" stroke="#666666" points="358,-123.5 358,-123.5 488,-123.5 488,-123.5 358,-123.5"/>
<polygon fill="none" stroke="#666666" points="358,-5.5 358,-155.5 488,-155.5 488,-5.5 358,-5.5"/>
</a>
</g>
</g>
<!-- Node1&#45;&gt;Node6 -->
<g id="edge5_Node000001_Node000006" class="edge">
<title>Node1&#45;&gt;Node6</title>
<g id="a_edge5_Node000001_Node000006"><a xlink:title=" ">
<path fill="none" stroke="#63b8ff" d="M423,-186C423,-176.57 423,-165.99 423,-155.27"/>
<polygon fill="none" stroke="#63b8ff" points="419.5,-185.72 423,-195.72 426.5,-185.72 419.5,-185.72"/>
</a>
</g>
</g>
<!-- Node7 -->
<g id="Node000007" class="node">
<title>Node7</title>
<g id="a_Node000007"><a xlink:href="class_app_1_1_http_1_1_controllers_1_1_personnel_controller.html" target="_top" xlink:title=" ">
<polygon fill="white" stroke="none" points="636,-155.5 506,-155.5 506,-5.5 636,-5.5 636,-155.5"/>
<text text-anchor="start" x="528.25" y="-142" font-family="Helvetica,sans-Serif" font-size="10.00">PersonnelController</text>
<text text-anchor="start" x="569.5" y="-127" font-family="Helvetica,sans-Serif" font-size="10.00"> </text>
<text text-anchor="start" x="510" y="-112" font-family="Helvetica,sans-Serif" font-size="10.00">+</text>
<text text-anchor="start" x="520" y="-112" font-family="Helvetica,sans-Serif" font-size="10.00">index()</text>
<text text-anchor="start" x="510" y="-97" font-family="Helvetica,sans-Serif" font-size="10.00">+</text>
<text text-anchor="start" x="520" y="-97" font-family="Helvetica,sans-Serif" font-size="10.00">create()</text>
<text text-anchor="start" x="510" y="-82" font-family="Helvetica,sans-Serif" font-size="10.00">+</text>
<text text-anchor="start" x="520" y="-82" font-family="Helvetica,sans-Serif" font-size="10.00">store(Request $request)</text>
<text text-anchor="start" x="510" y="-67" font-family="Helvetica,sans-Serif" font-size="10.00">+</text>
<text text-anchor="start" x="520" y="-67" font-family="Helvetica,sans-Serif" font-size="10.00">show($id)</text>
<text text-anchor="start" x="510" y="-52" font-family="Helvetica,sans-Serif" font-size="10.00">+</text>
<text text-anchor="start" x="520" y="-52" font-family="Helvetica,sans-Serif" font-size="10.00">edit(string $id)</text>
<text text-anchor="start" x="510" y="-37" font-family="Helvetica,sans-Serif" font-size="10.00">+</text>
<text text-anchor="start" x="520" y="-37" font-family="Helvetica,sans-Serif" font-size="10.00">update(Request $request,</text>
<text text-anchor="start" x="520" y="-25.75" font-family="Helvetica,sans-Serif" font-size="10.00"> $id)</text>
<text text-anchor="start" x="510" y="-11" font-family="Helvetica,sans-Serif" font-size="10.00">+</text>
<text text-anchor="start" x="520" y="-11" font-family="Helvetica,sans-Serif" font-size="10.00">destroy($id)</text>
<polygon fill="#666666" stroke="#666666" points="506,-138.5 506,-138.5 636,-138.5 636,-138.5 506,-138.5"/>
<polygon fill="#666666" stroke="#666666" points="506,-123.5 506,-123.5 636,-123.5 636,-123.5 506,-123.5"/>
<polygon fill="none" stroke="#666666" points="506,-5.5 506,-155.5 636,-155.5 636,-5.5 506,-5.5"/>
</a>
</g>
</g>
<!-- Node1&#45;&gt;Node7 -->
<g id="edge6_Node000001_Node000007" class="edge">
<title>Node1&#45;&gt;Node7</title>
<g id="a_edge6_Node000001_Node000007"><a xlink:title=" ">
<path fill="none" stroke="#63b8ff" d="M457.68,-194.3C470.38,-184.27 484.66,-172.47 497,-161 500.04,-158.17 503.1,-155.25 506.16,-152.26"/>
<polygon fill="none" stroke="#63b8ff" points="455.68,-191.42 449.95,-200.33 459.99,-196.94 455.68,-191.42"/>
</a>
</g>
</g>
<!-- Node8 -->
<g id="Node000008" class="node">
<title>Node8</title>
<g id="a_Node000008"><a xlink:href="class_app_1_1_http_1_1_controllers_1_1_produits_controller.html" target="_top" xlink:title=" ">
<polygon fill="white" stroke="none" points="784,-155.5 654,-155.5 654,-5.5 784,-5.5 784,-155.5"/>
<text text-anchor="start" x="680" y="-142" font-family="Helvetica,sans-Serif" font-size="10.00">ProduitsController</text>
<text text-anchor="start" x="717.5" y="-127" font-family="Helvetica,sans-Serif" font-size="10.00"> </text>
<text text-anchor="start" x="658" y="-112" font-family="Helvetica,sans-Serif" font-size="10.00">+</text>
<text text-anchor="start" x="668" y="-112" font-family="Helvetica,sans-Serif" font-size="10.00">index()</text>
<text text-anchor="start" x="658" y="-97" font-family="Helvetica,sans-Serif" font-size="10.00">+</text>
<text text-anchor="start" x="668" y="-97" font-family="Helvetica,sans-Serif" font-size="10.00">create()</text>
<text text-anchor="start" x="658" y="-82" font-family="Helvetica,sans-Serif" font-size="10.00">+</text>
<text text-anchor="start" x="668" y="-82" font-family="Helvetica,sans-Serif" font-size="10.00">store(Request $request)</text>
<text text-anchor="start" x="658" y="-67" font-family="Helvetica,sans-Serif" font-size="10.00">+</text>
<text text-anchor="start" x="668" y="-67" font-family="Helvetica,sans-Serif" font-size="10.00">show(string $id)</text>
<text text-anchor="start" x="658" y="-52" font-family="Helvetica,sans-Serif" font-size="10.00">+</text>
<text text-anchor="start" x="668" y="-52" font-family="Helvetica,sans-Serif" font-size="10.00">edit(string $id)</text>
<text text-anchor="start" x="658" y="-37" font-family="Helvetica,sans-Serif" font-size="10.00">+</text>
<text text-anchor="start" x="668" y="-37" font-family="Helvetica,sans-Serif" font-size="10.00">update(Request $request,</text>
<text text-anchor="start" x="668" y="-25.75" font-family="Helvetica,sans-Serif" font-size="10.00"> $id)</text>
<text text-anchor="start" x="658" y="-11" font-family="Helvetica,sans-Serif" font-size="10.00">+</text>
<text text-anchor="start" x="668" y="-11" font-family="Helvetica,sans-Serif" font-size="10.00">destroy($id)</text>
<polygon fill="#666666" stroke="#666666" points="654,-138.5 654,-138.5 784,-138.5 784,-138.5 654,-138.5"/>
<polygon fill="#666666" stroke="#666666" points="654,-123.5 654,-123.5 784,-123.5 784,-123.5 654,-123.5"/>
<polygon fill="none" stroke="#666666" points="654,-5.5 654,-155.5 784,-155.5 784,-5.5 654,-5.5"/>
</a>
</g>
</g>
<!-- Node1&#45;&gt;Node8 -->
<g id="edge7_Node000001_Node000008" class="edge">
<title>Node1&#45;&gt;Node8</title>
<g id="a_edge7_Node000001_Node000008"><a xlink:title=" ">
<path fill="none" stroke="#63b8ff" d="M460,-216.91C506.17,-211.08 586.18,-196.38 645,-161 648.07,-159.15 651.09,-157.14 654.06,-155"/>
<polygon fill="none" stroke="#63b8ff" points="459.78,-213.42 450.26,-218.07 460.6,-220.37 459.78,-213.42"/>
</a>
</g>
</g>
<!-- Node9 -->
<g id="Node000009" class="node">
<title>Node9</title>
<g id="a_Node000009"><a xlink:href="class_app_1_1_http_1_1_controllers_1_1_user_controller.html" target="_top" xlink:title=" ">
<polygon fill="white" stroke="none" points="875.5,-105 802.5,-105 802.5,-56 875.5,-56 875.5,-105"/>
<text text-anchor="start" x="807.5" y="-91.5" font-family="Helvetica,sans-Serif" font-size="10.00">UserController</text>
<text text-anchor="start" x="837.5" y="-76.5" font-family="Helvetica,sans-Serif" font-size="10.00"> </text>
<text text-anchor="start" x="837.5" y="-61.5" font-family="Helvetica,sans-Serif" font-size="10.00"> </text>
<polygon fill="#666666" stroke="#666666" points="802.5,-88 802.5,-88 875.5,-88 875.5,-88 802.5,-88"/>
<polygon fill="#666666" stroke="#666666" points="802.5,-73 802.5,-73 875.5,-73 875.5,-73 802.5,-73"/>
<polygon fill="none" stroke="#666666" points="802.5,-56 802.5,-105 875.5,-105 875.5,-56 802.5,-56"/>
</a>
</g>
</g>
<!-- Node1&#45;&gt;Node9 -->
<g id="edge8_Node000001_Node000009" class="edge">
<title>Node1&#45;&gt;Node9</title>
<g id="a_edge8_Node000001_Node000009"><a xlink:title=" ">
<path fill="none" stroke="#63b8ff" d="M460.19,-218.53C542.95,-213.52 739.3,-197.96 793,-161 812.44,-147.62 824.78,-123.14 831.73,-104.86"/>
<polygon fill="none" stroke="#63b8ff" points="460.12,-215.03 450.34,-219.11 460.53,-222.02 460.12,-215.03"/>
</a>
</g>
</g>
<!-- Node2 -->
<g id="Node000002" class="node">
<title>Node2</title>
<g id="a_Node000002"><a xlink:href="class_base_controller.html" target="_top" xlink:title=" ">
<polygon fill="white" stroke="none" points="460,-331 386,-331 386,-282 460,-282 460,-331"/>
<text text-anchor="start" x="390.75" y="-317.5" font-family="Helvetica,sans-Serif" font-size="10.00">BaseController</text>
<text text-anchor="start" x="421.5" y="-302.5" font-family="Helvetica,sans-Serif" font-size="10.00"> </text>
<text text-anchor="start" x="421.5" y="-287.5" font-family="Helvetica,sans-Serif" font-size="10.00"> </text>
<polygon fill="#666666" stroke="#666666" points="386,-314 386,-314 460,-314 460,-314 386,-314"/>
<polygon fill="#666666" stroke="#666666" points="386,-299 386,-299 460,-299 460,-299 386,-299"/>
<polygon fill="none" stroke="#666666" points="386,-282 386,-331 460,-331 460,-282 386,-282"/>
</a>
</g>
</g>
<!-- Node2&#45;&gt;Node1 -->
<g id="edge1_Node000001_Node000002" class="edge">
<title>Node2&#45;&gt;Node1</title>
<g id="a_edge1_Node000001_Node000002"><a xlink:title=" ">
<path fill="none" stroke="#63b8ff" d="M423,-271.14C423,-262.6 423,-253.65 423,-245.78"/>
<polygon fill="none" stroke="#63b8ff" points="419.5,-270.87 423,-280.87 426.5,-270.87 419.5,-270.87"/>
</a>
</g>
</g>
</g>
</svg>

<g id="navigator" transform="translate(0 0)" fill="#404254">
  <rect fill="#f2f5e9" fill-opacity="0.5" stroke="#606060" stroke-width=".5" x="0" y="0" width="60" height="60"/>
  <use id="zoomplus" xlink:href="#zoomPlus" x="17" y="9" onmousedown="handleZoom(evt,'in')"/>
  <use id="zoomminus" xlink:href="#zoomMin" x="42" y="9" onmousedown="handleZoom(evt,'out')"/>
  <use id="reset" xlink:href="#resetDef" x="30" y="36" onmousedown="handleReset()"/>
   <use id="arrowup" xlink:href="#arrowUp" x="0" y="0" onmousedown="handlePan(0,-1)"/>
  <use id="arrowright" xlink:href="#arrowRight" x="0" y="0" onmousedown="handlePan(1,0)"/>
  <use id="arrowdown" xlink:href="#arrowDown" x="0" y="0" onmousedown="handlePan(0,1)"/>
  <use id="arrowleft" xlink:href="#arrowLeft" x="0" y="0" onmousedown="handlePan(-1,0)"/>
</g>
<svg viewBox="0 0 15 15" width="100%" height="30px" preserveAspectRatio="xMaxYMin meet">
 <g id="arrow_out" transform="scale(0.3 0.3)">
  <a xlink:href="class_app_1_1_http_1_1_controllers_1_1_controller__inherit__graph_org.svg" target="_base">
   <rect id="button" ry="5" rx="5" y="6" x="6" height="38" width="38"
        fill="#f2f5e9" fill-opacity="0.5" stroke="#606060" stroke-width="1.0"/>
   <path id="arrow"
     d="M 11.500037,31.436501 C 11.940474,20.09759 22.043105,11.32322 32.158766,21.979434 L 37.068811,17.246167 C 37.068811,17.246167 37.088388,32 37.088388,32 L 22.160133,31.978069 C 22.160133,31.978069 26.997745,27.140456 26.997745,27.140456 C 18.528582,18.264221 13.291696,25.230495 11.500037,31.436501 z"
     style="fill:#404040;"/>
  </a>
 </g>
</svg>

<style type='text/css'>
<![CDATA[
[data-mouse-over-selected='false'] { opacity: 0.7; }
[data-mouse-over-selected='true']  { opacity: 1.0; }
]]>
</style>
<script type="application/ecmascript"><![CDATA[
document.addEventListener('DOMContentLoaded', (event) => {
  highlightEdges();
  highlightAdjacentNodes();
});
]]></script>
</svg>
