<?xml version="1.0" encoding="UTF-8" standalone="no"?>
<!DOCTYPE svg PUBLIC "-//W3C//DTD SVG 1.1//EN"
 "http://www.w3.org/Graphics/SVG/1.1/DTD/svg11.dtd">
<!-- Generated by graphviz version 10.0.1 (20240210.2158)
 -->
<!-- Title: UserFactory Pages: 1 -->
<svg width="122pt" height="157pt"
 viewBox="0.00 0.00 121.50 157.00" xmlns="http://www.w3.org/2000/svg" xmlns:xlink="http://www.w3.org/1999/xlink">

<svg id="main" version="1.1" xmlns="http://www.w3.org/2000/svg" xmlns:xlink="http://www.w3.org/1999/xlink" xml:space="preserve" onload="init(evt)">
<style type="text/css"><![CDATA[
.node, .edge {opacity: 0.7;}
.node.selected, .edge.selected {opacity: 1;}
.edge:hover path { stroke: red; }
.edge:hover polygon { stroke: red; fill: red; }
]]></style>
<script type="application/ecmascript" xlink:href="svg.min.js"/>
<svg id="graph" class="graph">
<g id="graph0" class="graph" transform="scale(1 1) rotate(0) translate(4 153)">
<title>UserFactory</title>
<!-- Node1 -->
<g id="Node000001" class="node">
<title>Node1</title>
<g id="a_Node000001"><a xlink:title=" ">
<polygon fill="#999999" stroke="none" points="92,-64 26,-64 26,0 92,0 92,-64"/>
<text text-anchor="start" x="32" y="-50.5" font-family="Helvetica,sans-Serif" font-size="10.00">UserFactory</text>
<text text-anchor="start" x="57.5" y="-35.5" font-family="Helvetica,sans-Serif" font-size="10.00"> </text>
<text text-anchor="start" x="30" y="-20.5" font-family="Helvetica,sans-Serif" font-size="10.00">+</text>
<text text-anchor="start" x="40" y="-20.5" font-family="Helvetica,sans-Serif" font-size="10.00">definition()</text>
<text text-anchor="start" x="30" y="-5.5" font-family="Helvetica,sans-Serif" font-size="10.00">+</text>
<text text-anchor="start" x="40" y="-5.5" font-family="Helvetica,sans-Serif" font-size="10.00">unverified()</text>
<polygon fill="#666666" stroke="#666666" points="26,-47 26,-47 92,-47 92,-47 26,-47"/>
<polygon fill="#666666" stroke="#666666" points="26,-32 26,-32 92,-32 92,-32 26,-32"/>
<polygon fill="none" stroke="#666666" points="26,0 26,-64 92,-64 92,0 26,0"/>
</a>
</g>
</g>
<!-- Node2 -->
<g id="Node000002" class="node">
<title>Node2</title>
<g id="a_Node000002"><a xlink:href="class_illuminate.html" target="_top" xlink:title=" ">
<polygon fill="white" stroke="none" points="52,-149 0,-149 0,-100 52,-100 52,-149"/>
<text text-anchor="start" x="5" y="-135.5" font-family="Helvetica,sans-Serif" font-size="10.00">Illuminate</text>
<text text-anchor="start" x="24.5" y="-120.5" font-family="Helvetica,sans-Serif" font-size="10.00"> </text>
<text text-anchor="start" x="24.5" y="-105.5" font-family="Helvetica,sans-Serif" font-size="10.00"> </text>
<polygon fill="#666666" stroke="#666666" points="0,-132 0,-132 52,-132 52,-132 0,-132"/>
<polygon fill="#666666" stroke="#666666" points="0,-117 0,-117 52,-117 52,-117 0,-117"/>
<polygon fill="none" stroke="#666666" points="0,-100 0,-149 52,-149 52,-100 0,-100"/>
</a>
</g>
</g>
<!-- Node2&#45;&gt;Node1 -->
<g id="edge1_Node000001_Node000002" class="edge">
<title>Node2&#45;&gt;Node1</title>
<g id="a_edge1_Node000001_Node000002"><a xlink:title=" ">
<path fill="none" stroke="#63b8ff" d="M38.4,-89.51C41.48,-81.05 44.77,-72.03 47.79,-63.74"/>
<polygon fill="none" stroke="#63b8ff" points="35.15,-88.18 35.02,-98.77 41.73,-90.58 35.15,-88.18"/>
</a>
</g>
</g>
<!-- Node3 -->
<g id="Node000003" class="node">
<title>Node3</title>
<g id="a_Node000003"><a xlink:title=" ">
<polygon fill="white" stroke="none" points="113.5,-149 70.5,-149 70.5,-100 113.5,-100 113.5,-149"/>
<text text-anchor="start" x="75.5" y="-135.5" font-family="Helvetica,sans-Serif" font-size="10.00">Factory</text>
<text text-anchor="start" x="90.5" y="-120.5" font-family="Helvetica,sans-Serif" font-size="10.00"> </text>
<text text-anchor="start" x="90.5" y="-105.5" font-family="Helvetica,sans-Serif" font-size="10.00"> </text>
<polygon fill="#666666" stroke="#666666" points="70.5,-132 70.5,-132 113.5,-132 113.5,-132 70.5,-132"/>
<polygon fill="#666666" stroke="#666666" points="70.5,-117 70.5,-117 113.5,-117 113.5,-117 70.5,-117"/>
<polygon fill="none" stroke="#666666" points="70.5,-100 70.5,-149 113.5,-149 113.5,-100 70.5,-100"/>
</a>
</g>
</g>
<!-- Node3&#45;&gt;Node1 -->
<g id="edge2_Node000001_Node000003" class="edge">
<title>Node3&#45;&gt;Node1</title>
<g id="a_edge2_Node000001_Node000003"><a xlink:title=" ">
<path fill="none" stroke="#63b8ff" d="M79.6,-89.51C76.52,-81.05 73.23,-72.03 70.21,-63.74"/>
<polygon fill="none" stroke="#63b8ff" points="76.27,-90.58 82.98,-98.77 82.85,-88.18 76.27,-90.58"/>
</a>
</g>
</g>
</g>
</svg>
</svg>

<style type='text/css'>
<![CDATA[
[data-mouse-over-selected='false'] { opacity: 0.7; }
[data-mouse-over-selected='true']  { opacity: 1.0; }
]]>
</style>
<script type="application/ecmascript"><![CDATA[
document.addEventListener('DOMContentLoaded', (event) => {
  highlightEdges();
  highlightAdjacentNodes();
});
]]></script>
</svg>
