<?xml version="1.0" encoding="UTF-8" standalone="no"?>
<!DOCTYPE svg PUBLIC "-//W3C//DTD SVG 1.1//EN"
 "http://www.w3.org/Graphics/SVG/1.1/DTD/svg11.dtd">
<!-- Generated by graphviz version 10.0.1 (20240210.2158)
 -->
<!-- Title: Personnel Pages: 1 -->
<svg width="66pt" height="142pt"
 viewBox="0.00 0.00 66.00 142.00" xmlns="http://www.w3.org/2000/svg" xmlns:xlink="http://www.w3.org/1999/xlink">
<g id="graph0" class="graph" transform="scale(1 1) rotate(0) translate(4 138)">
<title>Personnel</title>
<!-- Node1 -->
<g id="Node000001" class="node">
<title>Node1</title>
<g id="a_Node000001"><a xlink:title=" ">
<polygon fill="#999999" stroke="none" points="58,-49 0,-49 0,0 58,0 58,-49"/>
<text text-anchor="start" x="7.25" y="-35.5" font-family="Helvetica,sans-Serif" font-size="10.00">Personnel</text>
<text text-anchor="start" x="4.38" y="-20.5" font-family="Helvetica,sans-Serif" font-size="10.00">#</text>
<text text-anchor="start" x="14" y="-20.5" font-family="Helvetica,sans-Serif" font-size="10.00">$fillable</text>
<text text-anchor="start" x="4" y="-5.5" font-family="Helvetica,sans-Serif" font-size="10.00">+</text>
<text text-anchor="start" x="14" y="-5.5" font-family="Helvetica,sans-Serif" font-size="10.00">produits()</text>
<polygon fill="#666666" stroke="#666666" points="0,-32 0,-32 58,-32 58,-32 0,-32"/>
<polygon fill="#666666" stroke="#666666" points="0,-17 0,-17 12,-17 12,-17 0,-17"/>
<polygon fill="#666666" stroke="#666666" points="12,-17 12,-17 58,-17 58,-17 12,-17"/>
<polygon fill="none" stroke="#666666" points="0,0 0,-49 58,-49 58,0 0,0"/>
</a>
</g>
</g>
<!-- Node2 -->
<g id="Node000002" class="node">
<title>Node2</title>
<g id="a_Node000002"><a xlink:title=" ">
<polygon fill="white" stroke="none" points="47,-134 11,-134 11,-85 47,-85 47,-134"/>
<text text-anchor="start" x="15.88" y="-120.5" font-family="Helvetica,sans-Serif" font-size="10.00">Model</text>
<text text-anchor="start" x="27.5" y="-105.5" font-family="Helvetica,sans-Serif" font-size="10.00"> </text>
<text text-anchor="start" x="27.5" y="-90.5" font-family="Helvetica,sans-Serif" font-size="10.00"> </text>
<polygon fill="#666666" stroke="#666666" points="11,-117 11,-117 47,-117 47,-117 11,-117"/>
<polygon fill="#666666" stroke="#666666" points="11,-102 11,-102 47,-102 47,-102 11,-102"/>
<polygon fill="none" stroke="#666666" points="11,-85 11,-134 47,-134 47,-85 11,-85"/>
</a>
</g>
</g>
<!-- Node2&#45;&gt;Node1 -->
<g id="edge1_Node000001_Node000002" class="edge">
<title>Node2&#45;&gt;Node1</title>
<g id="a_edge1_Node000001_Node000002"><a xlink:title=" ">
<path fill="none" stroke="#63b8ff" d="M29,-74.14C29,-65.6 29,-56.65 29,-48.78"/>
<polygon fill="none" stroke="#63b8ff" points="25.5,-73.87 29,-83.87 32.5,-73.87 25.5,-73.87"/>
</a>
</g>
</g>
</g>
</svg>
