<?xml version="1.0" encoding="UTF-8" standalone="no"?>
<!DOCTYPE svg PUBLIC "-//W3C//DTD SVG 1.1//EN"
 "http://www.w3.org/Graphics/SVG/1.1/DTD/svg11.dtd">
<!-- Generated by graphviz version 10.0.1 (20240210.2158)
 -->
<!-- Title: EventServiceProvider Pages: 1 -->
<svg width="130pt" height="157pt"
 viewBox="0.00 0.00 130.00 157.00" xmlns="http://www.w3.org/2000/svg" xmlns:xlink="http://www.w3.org/1999/xlink">
<g id="graph0" class="graph" transform="scale(1 1) rotate(0) translate(4 153)">
<title>EventServiceProvider</title>
<!-- Node1 -->
<g id="Node000001" class="node">
<title>Node1</title>
<g id="a_Node000001"><a xlink:title=" ">
<polygon fill="#999999" stroke="none" points="122,-64 0,-64 0,0 122,0 122,-64"/>
<text text-anchor="start" x="13.75" y="-50.5" font-family="Helvetica,sans-Serif" font-size="10.00">EventServiceProvider</text>
<text text-anchor="start" x="4.38" y="-35.5" font-family="Helvetica,sans-Serif" font-size="10.00">#</text>
<text text-anchor="start" x="14" y="-35.5" font-family="Helvetica,sans-Serif" font-size="10.00">$listen</text>
<text text-anchor="start" x="4" y="-20.5" font-family="Helvetica,sans-Serif" font-size="10.00">+</text>
<text text-anchor="start" x="14" y="-20.5" font-family="Helvetica,sans-Serif" font-size="10.00">boot()</text>
<text text-anchor="start" x="4" y="-5.5" font-family="Helvetica,sans-Serif" font-size="10.00">+</text>
<text text-anchor="start" x="14" y="-5.5" font-family="Helvetica,sans-Serif" font-size="10.00">shouldDiscoverEvents()</text>
<polygon fill="#666666" stroke="#666666" points="0,-47 0,-47 122,-47 122,-47 0,-47"/>
<polygon fill="#666666" stroke="#666666" points="0,-32 0,-32 12,-32 12,-32 0,-32"/>
<polygon fill="#666666" stroke="#666666" points="12,-32 12,-32 122,-32 122,-32 12,-32"/>
<polygon fill="none" stroke="#666666" points="0,0 0,-64 122,-64 122,0 0,0"/>
</a>
</g>
</g>
<!-- Node2 -->
<g id="Node000002" class="node">
<title>Node2</title>
<g id="a_Node000002"><a xlink:title=" ">
<polygon fill="white" stroke="none" points="100.5,-149 21.5,-149 21.5,-100 100.5,-100 100.5,-149"/>
<text text-anchor="start" x="26.5" y="-135.5" font-family="Helvetica,sans-Serif" font-size="10.00">ServiceProvider</text>
<text text-anchor="start" x="59.5" y="-120.5" font-family="Helvetica,sans-Serif" font-size="10.00"> </text>
<text text-anchor="start" x="59.5" y="-105.5" font-family="Helvetica,sans-Serif" font-size="10.00"> </text>
<polygon fill="#666666" stroke="#666666" points="21.5,-132 21.5,-132 100.5,-132 100.5,-132 21.5,-132"/>
<polygon fill="#666666" stroke="#666666" points="21.5,-117 21.5,-117 100.5,-117 100.5,-117 21.5,-117"/>
<polygon fill="none" stroke="#666666" points="21.5,-100 21.5,-149 100.5,-149 100.5,-100 21.5,-100"/>
</a>
</g>
</g>
<!-- Node2&#45;&gt;Node1 -->
<g id="edge1_Node000001_Node000002" class="edge">
<title>Node2&#45;&gt;Node1</title>
<g id="a_edge1_Node000001_Node000002"><a xlink:title=" ">
<path fill="none" stroke="#63b8ff" d="M61,-88.93C61,-80.64 61,-71.84 61,-63.74"/>
<polygon fill="none" stroke="#63b8ff" points="57.5,-88.68 61,-98.68 64.5,-88.68 57.5,-88.68"/>
</a>
</g>
</g>
</g>
</svg>
