<?xml version="1.0" encoding="UTF-8" standalone="no"?>
<!DOCTYPE svg PUBLIC "-//W3C//DTD SVG 1.1//EN"
 "http://www.w3.org/Graphics/SVG/1.1/DTD/svg11.dtd">
<!-- Generated by graphviz version 10.0.1 (20240210.2158)
 -->
<!-- Title: CategoryPolicy Pages: 1 -->
<svg width="143pt" height="202pt"
 viewBox="0.00 0.00 143.00 202.00" xmlns="http://www.w3.org/2000/svg" xmlns:xlink="http://www.w3.org/1999/xlink">
<g id="graph0" class="graph" transform="scale(1 1) rotate(0) translate(4 198)">
<title>CategoryPolicy</title>
<!-- Node1 -->
<g id="Node000001" class="node">
<title>Node1</title>
<g id="a_Node000001"><a xlink:title=" ">
<polygon fill="#999999" stroke="none" points="135,-194 0,-194 0,0 135,0 135,-194"/>
<text text-anchor="start" x="34.12" y="-180.5" font-family="Helvetica,sans-Serif" font-size="10.00">CategoryPolicy</text>
<text text-anchor="start" x="66" y="-165.5" font-family="Helvetica,sans-Serif" font-size="10.00"> </text>
<text text-anchor="start" x="4" y="-150.5" font-family="Helvetica,sans-Serif" font-size="10.00">+</text>
<text text-anchor="start" x="14" y="-150.5" font-family="Helvetica,sans-Serif" font-size="10.00">viewAny(User $user)</text>
<text text-anchor="start" x="4" y="-135.5" font-family="Helvetica,sans-Serif" font-size="10.00">+</text>
<text text-anchor="start" x="14" y="-135.5" font-family="Helvetica,sans-Serif" font-size="10.00">view(User $user, Category</text>
<text text-anchor="start" x="14" y="-124.25" font-family="Helvetica,sans-Serif" font-size="10.00"> $category)</text>
<text text-anchor="start" x="4" y="-109.5" font-family="Helvetica,sans-Serif" font-size="10.00">+</text>
<text text-anchor="start" x="14" y="-109.5" font-family="Helvetica,sans-Serif" font-size="10.00">create(User $user)</text>
<text text-anchor="start" x="4" y="-94.5" font-family="Helvetica,sans-Serif" font-size="10.00">+</text>
<text text-anchor="start" x="14" y="-94.5" font-family="Helvetica,sans-Serif" font-size="10.00">update(User $user,</text>
<text text-anchor="start" x="14" y="-83.25" font-family="Helvetica,sans-Serif" font-size="10.00"> Category $category)</text>
<text text-anchor="start" x="4" y="-68.5" font-family="Helvetica,sans-Serif" font-size="10.00">+</text>
<text text-anchor="start" x="14" y="-68.5" font-family="Helvetica,sans-Serif" font-size="10.00">delete(User $user,</text>
<text text-anchor="start" x="14" y="-57.25" font-family="Helvetica,sans-Serif" font-size="10.00"> Category $category)</text>
<text text-anchor="start" x="4" y="-42.5" font-family="Helvetica,sans-Serif" font-size="10.00">+</text>
<text text-anchor="start" x="14" y="-42.5" font-family="Helvetica,sans-Serif" font-size="10.00">restore(User $user,</text>
<text text-anchor="start" x="14" y="-31.25" font-family="Helvetica,sans-Serif" font-size="10.00"> Category $category)</text>
<text text-anchor="start" x="4" y="-16.5" font-family="Helvetica,sans-Serif" font-size="10.00">+</text>
<text text-anchor="start" x="14" y="-16.5" font-family="Helvetica,sans-Serif" font-size="10.00">forceDelete(User </text>
<text text-anchor="start" x="14" y="-5.25" font-family="Helvetica,sans-Serif" font-size="10.00">$user, Category $category)</text>
<polygon fill="#666666" stroke="#666666" points="0,-177 0,-177 135,-177 135,-177 0,-177"/>
<polygon fill="#666666" stroke="#666666" points="0,-162 0,-162 135,-162 135,-162 0,-162"/>
<polygon fill="none" stroke="#666666" points="0,0 0,-194 135,-194 135,0 0,0"/>
</a>
</g>
</g>
</g>
</svg>
