<?xml version="1.0" encoding="UTF-8" standalone="no"?>
<!DOCTYPE svg PUBLIC "-//W3C//DTD SVG 1.1//EN"
 "http://www.w3.org/Graphics/SVG/1.1/DTD/svg11.dtd">
<!-- Generated by graphviz version 10.0.1 (20240210.2158)
 -->
<!-- Title: TrustProxies Pages: 1 -->
<svg width="73pt" height="157pt"
 viewBox="0.00 0.00 73.00 157.00" xmlns="http://www.w3.org/2000/svg" xmlns:xlink="http://www.w3.org/1999/xlink">
<g id="graph0" class="graph" transform="scale(1 1) rotate(0) translate(4 153)">
<title>TrustProxies</title>
<!-- Node1 -->
<g id="Node000001" class="node">
<title>Node1</title>
<g id="a_Node000001"><a xlink:title=" ">
<polygon fill="#999999" stroke="none" points="65,-64 0,-64 0,0 65,0 65,-64"/>
<text text-anchor="start" x="4.75" y="-50.5" font-family="Helvetica,sans-Serif" font-size="10.00">TrustProxies</text>
<text text-anchor="start" x="5.88" y="-35.5" font-family="Helvetica,sans-Serif" font-size="10.00">#</text>
<text text-anchor="start" x="17" y="-35.5" font-family="Helvetica,sans-Serif" font-size="10.00">$proxies</text>
<text text-anchor="start" x="5.88" y="-20.5" font-family="Helvetica,sans-Serif" font-size="10.00">#</text>
<text text-anchor="start" x="17" y="-20.5" font-family="Helvetica,sans-Serif" font-size="10.00">$headers</text>
<text text-anchor="start" x="31" y="-5.5" font-family="Helvetica,sans-Serif" font-size="10.00"> </text>
<polygon fill="#666666" stroke="#666666" points="0,-47 0,-47 65,-47 65,-47 0,-47"/>
<polygon fill="#666666" stroke="#666666" points="0,-17 0,-17 15,-17 15,-17 0,-17"/>
<polygon fill="#666666" stroke="#666666" points="15,-17 15,-17 65,-17 65,-17 15,-17"/>
<polygon fill="none" stroke="#666666" points="0,0 0,-64 65,-64 65,0 0,0"/>
</a>
</g>
</g>
<!-- Node2 -->
<g id="Node000002" class="node">
<title>Node2</title>
<g id="a_Node000002"><a xlink:href="class_middleware.html" target="_top" xlink:title=" ">
<polygon fill="white" stroke="none" points="62,-149 3,-149 3,-100 62,-100 62,-149"/>
<text text-anchor="start" x="7.75" y="-135.5" font-family="Helvetica,sans-Serif" font-size="10.00">Middleware</text>
<text text-anchor="start" x="31" y="-120.5" font-family="Helvetica,sans-Serif" font-size="10.00"> </text>
<text text-anchor="start" x="31" y="-105.5" font-family="Helvetica,sans-Serif" font-size="10.00"> </text>
<polygon fill="#666666" stroke="#666666" points="3,-132 3,-132 62,-132 62,-132 3,-132"/>
<polygon fill="#666666" stroke="#666666" points="3,-117 3,-117 62,-117 62,-117 3,-117"/>
<polygon fill="none" stroke="#666666" points="3,-100 3,-149 62,-149 62,-100 3,-100"/>
</a>
</g>
</g>
<!-- Node2&#45;&gt;Node1 -->
<g id="edge1_Node000001_Node000002" class="edge">
<title>Node2&#45;&gt;Node1</title>
<g id="a_edge1_Node000001_Node000002"><a xlink:title=" ">
<path fill="none" stroke="#63b8ff" d="M32.5,-88.93C32.5,-80.64 32.5,-71.84 32.5,-63.74"/>
<polygon fill="none" stroke="#63b8ff" points="29,-88.68 32.5,-98.68 36,-88.68 29,-88.68"/>
</a>
</g>
</g>
</g>
</svg>
