<?xml version="1.0" encoding="UTF-8" standalone="no"?>
<!DOCTYPE svg PUBLIC "-//W3C//DTD SVG 1.1//EN"
 "http://www.w3.org/Graphics/SVG/1.1/DTD/svg11.dtd">
<!-- Generated by graphviz version 10.0.1 (20240210.2158)
 -->
<!-- Title: UpdatePersonnelRequest Pages: 1 -->
<svg width="129pt" height="157pt"
 viewBox="0.00 0.00 129.00 157.00" xmlns="http://www.w3.org/2000/svg" xmlns:xlink="http://www.w3.org/1999/xlink">

<svg id="main" version="1.1" xmlns="http://www.w3.org/2000/svg" xmlns:xlink="http://www.w3.org/1999/xlink" xml:space="preserve" onload="init(evt)">
<style type="text/css"><![CDATA[
.node, .edge {opacity: 0.7;}
.node.selected, .edge.selected {opacity: 1;}
.edge:hover path { stroke: red; }
.edge:hover polygon { stroke: red; fill: red; }
]]></style>
<script type="application/ecmascript" xlink:href="svg.min.js"/>
<svg id="graph" class="graph">
<g id="graph0" class="graph" transform="scale(1 1) rotate(0) translate(4 153)">
<title>UpdatePersonnelRequest</title>
<!-- Node1 -->
<g id="Node000001" class="node">
<title>Node1</title>
<g id="a_Node000001"><a xlink:title=" ">
<polygon fill="#999999" stroke="none" points="121,-64 0,-64 0,0 121,0 121,-64"/>
<text text-anchor="start" x="4.62" y="-50.5" font-family="Helvetica,sans-Serif" font-size="10.00">UpdatePersonnelRequest</text>
<text text-anchor="start" x="59" y="-35.5" font-family="Helvetica,sans-Serif" font-size="10.00"> </text>
<text text-anchor="start" x="18.5" y="-20.5" font-family="Helvetica,sans-Serif" font-size="10.00">+</text>
<text text-anchor="start" x="43" y="-20.5" font-family="Helvetica,sans-Serif" font-size="10.00">authorize()</text>
<text text-anchor="start" x="18.5" y="-5.5" font-family="Helvetica,sans-Serif" font-size="10.00">+</text>
<text text-anchor="start" x="43" y="-5.5" font-family="Helvetica,sans-Serif" font-size="10.00">rules()</text>
<polygon fill="#666666" stroke="#666666" points="0,-47 0,-47 121,-47 121,-47 0,-47"/>
<polygon fill="#666666" stroke="#666666" points="0,-32 0,-32 121,-32 121,-32 0,-32"/>
<polygon fill="none" stroke="#666666" points="0,0 0,-64 121,-64 121,0 0,0"/>
</a>
</g>
</g>
<!-- Node2 -->
<g id="Node000002" class="node">
<title>Node2</title>
<g id="a_Node000002"><a xlink:title=" ">
<polygon fill="white" stroke="none" points="95,-149 26,-149 26,-100 95,-100 95,-149"/>
<text text-anchor="start" x="30.88" y="-135.5" font-family="Helvetica,sans-Serif" font-size="10.00">FormRequest</text>
<text text-anchor="start" x="59" y="-120.5" font-family="Helvetica,sans-Serif" font-size="10.00"> </text>
<text text-anchor="start" x="59" y="-105.5" font-family="Helvetica,sans-Serif" font-size="10.00"> </text>
<polygon fill="#666666" stroke="#666666" points="26,-132 26,-132 95,-132 95,-132 26,-132"/>
<polygon fill="#666666" stroke="#666666" points="26,-117 26,-117 95,-117 95,-117 26,-117"/>
<polygon fill="none" stroke="#666666" points="26,-100 26,-149 95,-149 95,-100 26,-100"/>
</a>
</g>
</g>
<!-- Node2&#45;&gt;Node1 -->
<g id="edge1_Node000001_Node000002" class="edge">
<title>Node2&#45;&gt;Node1</title>
<g id="a_edge1_Node000001_Node000002"><a xlink:title=" ">
<path fill="none" stroke="#63b8ff" d="M60.5,-88.93C60.5,-80.64 60.5,-71.84 60.5,-63.74"/>
<polygon fill="none" stroke="#63b8ff" points="57,-88.68 60.5,-98.68 64,-88.68 57,-88.68"/>
</a>
</g>
</g>
</g>
</svg>
</svg>

<style type='text/css'>
<![CDATA[
[data-mouse-over-selected='false'] { opacity: 0.7; }
[data-mouse-over-selected='true']  { opacity: 1.0; }
]]>
</style>
<script type="application/ecmascript"><![CDATA[
document.addEventListener('DOMContentLoaded', (event) => {
  highlightEdges();
  highlightAdjacentNodes();
});
]]></script>
</svg>
