<?xml version="1.0" encoding="UTF-8" standalone="no"?>
<!DOCTYPE svg PUBLIC "-//W3C//DTD SVG 1.1//EN"
 "http://www.w3.org/Graphics/SVG/1.1/DTD/svg11.dtd">
<!-- Generated by graphviz version 10.0.1 (20240210.2158)
 -->
<!-- Title: InventaireController Pages: 1 -->
<svg width="102pt" height="227pt"
 viewBox="0.00 0.00 102.00 227.00" xmlns="http://www.w3.org/2000/svg" xmlns:xlink="http://www.w3.org/1999/xlink">

<svg id="main" version="1.1" xmlns="http://www.w3.org/2000/svg" xmlns:xlink="http://www.w3.org/1999/xlink" xml:space="preserve" onload="init(evt)">
<style type="text/css"><![CDATA[
.node, .edge {opacity: 0.7;}
.node.selected, .edge.selected {opacity: 1;}
.edge:hover path { stroke: red; }
.edge:hover polygon { stroke: red; fill: red; }
]]></style>
<script type="application/ecmascript" xlink:href="svg.min.js"/>
<svg id="graph" class="graph">
<g id="graph0" class="graph" transform="scale(1 1) rotate(0) translate(4 223)">
<title>InventaireController</title>
<!-- Node1 -->
<g id="Node000001" class="node">
<title>Node1</title>
<g id="a_Node000001"><a xlink:title=" ">
<polygon fill="#999999" stroke="none" points="94,-49 0,-49 0,0 94,0 94,-49"/>
<text text-anchor="start" x="4.62" y="-35.5" font-family="Helvetica,sans-Serif" font-size="10.00">InventaireController</text>
<text text-anchor="start" x="45.5" y="-20.5" font-family="Helvetica,sans-Serif" font-size="10.00"> </text>
<text text-anchor="start" x="15.5" y="-5.5" font-family="Helvetica,sans-Serif" font-size="10.00">+</text>
<text text-anchor="start" x="37" y="-5.5" font-family="Helvetica,sans-Serif" font-size="10.00">index()</text>
<polygon fill="#666666" stroke="#666666" points="0,-32 0,-32 94,-32 94,-32 0,-32"/>
<polygon fill="#666666" stroke="#666666" points="0,-17 0,-17 94,-17 94,-17 0,-17"/>
<polygon fill="none" stroke="#666666" points="0,0 0,-49 94,-49 94,0 0,0"/>
</a>
</g>
</g>
<!-- Node2 -->
<g id="Node000002" class="node">
<title>Node2</title>
<g id="a_Node000002"><a xlink:href="class_app_1_1_http_1_1_controllers_1_1_controller.html" target="_top" xlink:title=" ">
<polygon fill="white" stroke="none" points="73,-134 21,-134 21,-85 73,-85 73,-134"/>
<text text-anchor="start" x="26" y="-120.5" font-family="Helvetica,sans-Serif" font-size="10.00">Controller</text>
<text text-anchor="start" x="45.5" y="-105.5" font-family="Helvetica,sans-Serif" font-size="10.00"> </text>
<text text-anchor="start" x="45.5" y="-90.5" font-family="Helvetica,sans-Serif" font-size="10.00"> </text>
<polygon fill="#666666" stroke="#666666" points="21,-117 21,-117 73,-117 73,-117 21,-117"/>
<polygon fill="#666666" stroke="#666666" points="21,-102 21,-102 73,-102 73,-102 21,-102"/>
<polygon fill="none" stroke="#666666" points="21,-85 21,-134 73,-134 73,-85 21,-85"/>
</a>
</g>
</g>
<!-- Node2&#45;&gt;Node1 -->
<g id="edge1_Node000001_Node000002" class="edge">
<title>Node2&#45;&gt;Node1</title>
<g id="a_edge1_Node000001_Node000002"><a xlink:title=" ">
<path fill="none" stroke="#63b8ff" d="M47,-74.14C47,-65.6 47,-56.65 47,-48.78"/>
<polygon fill="none" stroke="#63b8ff" points="43.5,-73.87 47,-83.87 50.5,-73.87 43.5,-73.87"/>
</a>
</g>
</g>
<!-- Node3 -->
<g id="Node000003" class="node">
<title>Node3</title>
<g id="a_Node000003"><a xlink:href="class_base_controller.html" target="_top" xlink:title=" ">
<polygon fill="white" stroke="none" points="84,-219 10,-219 10,-170 84,-170 84,-219"/>
<text text-anchor="start" x="14.75" y="-205.5" font-family="Helvetica,sans-Serif" font-size="10.00">BaseController</text>
<text text-anchor="start" x="45.5" y="-190.5" font-family="Helvetica,sans-Serif" font-size="10.00"> </text>
<text text-anchor="start" x="45.5" y="-175.5" font-family="Helvetica,sans-Serif" font-size="10.00"> </text>
<polygon fill="#666666" stroke="#666666" points="10,-202 10,-202 84,-202 84,-202 10,-202"/>
<polygon fill="#666666" stroke="#666666" points="10,-187 10,-187 84,-187 84,-187 10,-187"/>
<polygon fill="none" stroke="#666666" points="10,-170 10,-219 84,-219 84,-170 10,-170"/>
</a>
</g>
</g>
<!-- Node3&#45;&gt;Node2 -->
<g id="edge2_Node000002_Node000003" class="edge">
<title>Node3&#45;&gt;Node2</title>
<g id="a_edge2_Node000002_Node000003"><a xlink:title=" ">
<path fill="none" stroke="#63b8ff" d="M47,-159.14C47,-150.6 47,-141.65 47,-133.78"/>
<polygon fill="none" stroke="#63b8ff" points="43.5,-158.87 47,-168.87 50.5,-158.87 43.5,-158.87"/>
</a>
</g>
</g>
</g>
</svg>
</svg>

<style type='text/css'>
<![CDATA[
[data-mouse-over-selected='false'] { opacity: 0.7; }
[data-mouse-over-selected='true']  { opacity: 1.0; }
]]>
</style>
<script type="application/ecmascript"><![CDATA[
document.addEventListener('DOMContentLoaded', (event) => {
  highlightEdges();
  highlightAdjacentNodes();
});
]]></script>
</svg>
