<?xml version="1.0" encoding="UTF-8" standalone="no"?>
<!DOCTYPE svg PUBLIC "-//W3C//DTD SVG 1.1//EN"
 "http://www.w3.org/Graphics/SVG/1.1/DTD/svg11.dtd">
<!-- Generated by graphviz version 10.0.1 (20240210.2158)
 -->
<!-- Title: Graphe hiérarchique des classes Pages: 1 -->
<svg width="195pt" height="64pt"
 viewBox="0.00 0.00 195.25 64.25" xmlns="http://www.w3.org/2000/svg" xmlns:xlink="http://www.w3.org/1999/xlink">
<g id="graph0" class="graph" transform="scale(1 1) rotate(0) translate(4 60.25)">
<title>Graphe hiérarchique des classes</title>
<!-- Node0 -->
<g id="Node000000" class="node">
<title>Node0</title>
<g id="a_Node000000"><a xlink:title=" ">
<polygon fill="#e0e0e0" stroke="#999999" points="55.75,-37.25 0,-37.25 0,-18 55.75,-18 55.75,-37.25"/>
<text text-anchor="middle" x="27.88" y="-23.75" font-family="Helvetica,sans-Serif" font-size="10.00">Migration</text>
</a>
</g>
</g>
<!-- Node1 -->
<g id="Node000001" class="node">
<title>Node1</title>
<g id="a_Node000001"><a xlink:href="class_create_lieux_table.html" target="_top" xlink:title=" ">
<polygon fill="white" stroke="#666666" points="185.38,-56.25 93.62,-56.25 93.62,-37 185.38,-37 185.38,-56.25"/>
<text text-anchor="middle" x="139.5" y="-42.75" font-family="Helvetica,sans-Serif" font-size="10.00">CreateLieuxTable</text>
</a>
</g>
</g>
<!-- Node0&#45;&gt;Node1 -->
<g id="edge37_Node000000_Node000001" class="edge">
<title>Node0&#45;&gt;Node1</title>
<g id="a_edge37_Node000000_Node000001"><a xlink:title=" ">
<path fill="none" stroke="#63b8ff" d="M67.09,-34.25C75.57,-35.72 84.64,-37.29 93.37,-38.8"/>
<polygon fill="#63b8ff" stroke="#63b8ff" points="67.92,-30.84 57.46,-32.58 66.72,-37.74 67.92,-30.84"/>
</a>
</g>
</g>
<!-- Node2 -->
<g id="Node000002" class="node">
<title>Node2</title>
<g id="a_Node000002"><a xlink:href="class_create_salles_table.html" target="_top" xlink:title=" ">
<polygon fill="white" stroke="#666666" points="187.25,-19.25 91.75,-19.25 91.75,0 187.25,0 187.25,-19.25"/>
<text text-anchor="middle" x="139.5" y="-5.75" font-family="Helvetica,sans-Serif" font-size="10.00">CreateSallesTable</text>
</a>
</g>
</g>
<!-- Node0&#45;&gt;Node2 -->
<g id="edge38_Node000000_Node000002" class="edge">
<title>Node0&#45;&gt;Node2</title>
<g id="a_edge38_Node000000_Node000002"><a xlink:title=" ">
<path fill="none" stroke="#63b8ff" d="M67.12,-21.34C75.04,-20.04 83.47,-18.66 91.65,-17.32"/>
<polygon fill="#63b8ff" stroke="#63b8ff" points="66.77,-17.86 57.47,-22.93 67.9,-24.76 66.77,-17.86"/>
</a>
</g>
</g>
</g>
</svg>
