<?xml version="1.0" encoding="UTF-8" standalone="no"?>
<!DOCTYPE svg PUBLIC "-//W3C//DTD SVG 1.1//EN"
 "http://www.w3.org/Graphics/SVG/1.1/DTD/svg11.dtd">
<!-- Generated by graphviz version 10.0.1 (20240210.2158)
 -->
<!-- Title: Graphe hiérarchique des classes Pages: 1 -->
<svg width="146pt" height="175pt"
 viewBox="0.00 0.00 145.75 175.25" xmlns="http://www.w3.org/2000/svg" xmlns:xlink="http://www.w3.org/1999/xlink">
<g id="graph0" class="graph" transform="scale(1 1) rotate(0) translate(4 171.25)">
<title>Graphe hiérarchique des classes</title>
<!-- Node0 -->
<g id="Node000000" class="node">
<title>Node0</title>
<g id="a_Node000000"><a xlink:title=" ">
<polygon fill="#e0e0e0" stroke="#999999" points="42.25,-93.25 0,-93.25 0,-74 42.25,-74 42.25,-93.25"/>
<text text-anchor="middle" x="21.12" y="-79.75" font-family="Helvetica,sans-Serif" font-size="10.00">Model</text>
</a>
</g>
</g>
<!-- Node1 -->
<g id="Node000001" class="node">
<title>Node1</title>
<g id="a_Node000001"><a xlink:href="class_app_1_1_models_1_1_category.html" target="_top" xlink:title=" ">
<polygon fill="white" stroke="#666666" points="135.88,-167.25 80.12,-167.25 80.12,-148 135.88,-148 135.88,-167.25"/>
<text text-anchor="middle" x="108" y="-153.75" font-family="Helvetica,sans-Serif" font-size="10.00">Category</text>
</a>
</g>
</g>
<!-- Node0&#45;&gt;Node1 -->
<g id="edge39_Node000000_Node000001" class="edge">
<title>Node0&#45;&gt;Node1</title>
<g id="a_edge39_Node000000_Node000001"><a xlink:title=" ">
<path fill="none" stroke="#63b8ff" d="M38.35,-101.8C49.08,-113.31 63.8,-128.13 78.25,-139.62 81.75,-142.41 85.71,-145.13 89.54,-147.57"/>
<polygon fill="#63b8ff" stroke="#63b8ff" points="41.02,-99.54 31.69,-94.52 35.86,-104.27 41.02,-99.54"/>
</a>
</g>
</g>
<!-- Node2 -->
<g id="Node000002" class="node">
<title>Node2</title>
<g id="a_Node000002"><a xlink:href="class_app_1_1_models_1_1_lieux.html" target="_top" xlink:title=" ">
<polygon fill="white" stroke="#666666" points="127.62,-130.25 88.38,-130.25 88.38,-111 127.62,-111 127.62,-130.25"/>
<text text-anchor="middle" x="108" y="-116.75" font-family="Helvetica,sans-Serif" font-size="10.00">Lieux</text>
</a>
</g>
</g>
<!-- Node0&#45;&gt;Node2 -->
<g id="edge40_Node000000_Node000002" class="edge">
<title>Node0&#45;&gt;Node2</title>
<g id="a_edge40_Node000000_Node000002"><a xlink:title=" ">
<path fill="none" stroke="#63b8ff" d="M52.99,-97.08C64.74,-102.2 77.77,-107.88 88.09,-112.38"/>
<polygon fill="#63b8ff" stroke="#63b8ff" points="54.62,-93.97 44.06,-93.19 51.83,-100.39 54.62,-93.97"/>
</a>
</g>
</g>
<!-- Node3 -->
<g id="Node000003" class="node">
<title>Node3</title>
<g id="a_Node000003"><a xlink:href="class_app_1_1_models_1_1_personnel.html" target="_top" xlink:title=" ">
<polygon fill="white" stroke="#666666" points="137.75,-93.25 78.25,-93.25 78.25,-74 137.75,-74 137.75,-93.25"/>
<text text-anchor="middle" x="108" y="-79.75" font-family="Helvetica,sans-Serif" font-size="10.00">Personnel</text>
</a>
</g>
</g>
<!-- Node0&#45;&gt;Node3 -->
<g id="edge41_Node000000_Node000003" class="edge">
<title>Node0&#45;&gt;Node3</title>
<g id="a_edge41_Node000000_Node000003"><a xlink:title=" ">
<path fill="none" stroke="#63b8ff" d="M54.05,-83.62C61.9,-83.62 70.27,-83.62 77.98,-83.62"/>
<polygon fill="#63b8ff" stroke="#63b8ff" points="54.18,-80.13 44.18,-83.63 54.18,-87.13 54.18,-80.13"/>
</a>
</g>
</g>
<!-- Node4 -->
<g id="Node000004" class="node">
<title>Node4</title>
<g id="a_Node000004"><a xlink:href="class_app_1_1_models_1_1_produits.html" target="_top" xlink:title=" ">
<polygon fill="white" stroke="#666666" points="134,-56.25 82,-56.25 82,-37 134,-37 134,-56.25"/>
<text text-anchor="middle" x="108" y="-42.75" font-family="Helvetica,sans-Serif" font-size="10.00">Produits</text>
</a>
</g>
</g>
<!-- Node0&#45;&gt;Node4 -->
<g id="edge42_Node000000_Node000004" class="edge">
<title>Node0&#45;&gt;Node4</title>
<g id="a_edge42_Node000000_Node000004"><a xlink:title=" ">
<path fill="none" stroke="#63b8ff" d="M53.21,-70.07C63.38,-65.64 74.49,-60.8 83.95,-56.67"/>
<polygon fill="#63b8ff" stroke="#63b8ff" points="51.83,-66.86 44.06,-74.06 54.62,-73.28 51.83,-66.86"/>
</a>
</g>
</g>
<!-- Node5 -->
<g id="Node000005" class="node">
<title>Node5</title>
<g id="a_Node000005"><a xlink:href="class_app_1_1_models_1_1_salle.html" target="_top" xlink:title=" ">
<polygon fill="white" stroke="#666666" points="126.88,-19.25 89.12,-19.25 89.12,0 126.88,0 126.88,-19.25"/>
<text text-anchor="middle" x="108" y="-5.75" font-family="Helvetica,sans-Serif" font-size="10.00">Salle</text>
</a>
</g>
</g>
<!-- Node0&#45;&gt;Node5 -->
<g id="edge43_Node000000_Node000005" class="edge">
<title>Node0&#45;&gt;Node5</title>
<g id="a_edge43_Node000000_Node000005"><a xlink:title=" ">
<path fill="none" stroke="#63b8ff" d="M38.35,-65.45C49.08,-53.94 63.8,-39.12 78.25,-27.62 81.75,-24.84 85.71,-22.12 89.54,-19.68"/>
<polygon fill="#63b8ff" stroke="#63b8ff" points="35.86,-62.98 31.69,-72.73 41.02,-67.71 35.86,-62.98"/>
</a>
</g>
</g>
</g>
</svg>
