<?xml version="1.0" encoding="UTF-8" standalone="no"?>
<!DOCTYPE svg PUBLIC "-//W3C//DTD SVG 1.1//EN"
 "http://www.w3.org/Graphics/SVG/1.1/DTD/svg11.dtd">
<!-- Generated by graphviz version 10.0.1 (20240210.2158)
 -->
<!-- Title: Graphe hiérarchique des classes Pages: 1 -->
<svg width="258pt" height="175pt"
 viewBox="0.00 0.00 258.25 175.25" xmlns="http://www.w3.org/2000/svg" xmlns:xlink="http://www.w3.org/1999/xlink">
<g id="graph0" class="graph" transform="scale(1 1) rotate(0) translate(4 171.25)">
<title>Graphe hiérarchique des classes</title>
<!-- Node0 -->
<g id="Node000000" class="node">
<title>Node0</title>
<g id="a_Node000000"><a xlink:title=" ">
<polygon fill="#e0e0e0" stroke="#999999" points="85,-93.25 0,-93.25 0,-74 85,-74 85,-93.25"/>
<text text-anchor="middle" x="42.5" y="-79.75" font-family="Helvetica,sans-Serif" font-size="10.00">ServiceProvider</text>
</a>
</g>
</g>
<!-- Node1 -->
<g id="Node000001" class="node">
<title>Node1</title>
<g id="a_Node000001"><a xlink:href="class_app_1_1_providers_1_1_app_service_provider.html" target="_top" xlink:title=" ">
<polygon fill="white" stroke="#666666" points="236.75,-167.25 134.5,-167.25 134.5,-148 236.75,-148 236.75,-167.25"/>
<text text-anchor="middle" x="185.62" y="-153.75" font-family="Helvetica,sans-Serif" font-size="10.00">AppServiceProvider</text>
</a>
</g>
</g>
<!-- Node0&#45;&gt;Node1 -->
<g id="edge48_Node000000_Node000001" class="edge">
<title>Node0&#45;&gt;Node1</title>
<g id="a_edge48_Node000000_Node000001"><a xlink:title=" ">
<path fill="none" stroke="#63b8ff" d="M63.16,-100.83C78.13,-113.15 99.72,-129.33 121,-139.62 127.3,-142.68 134.22,-145.29 141.09,-147.51"/>
<polygon fill="#63b8ff" stroke="#63b8ff" points="65.81,-98.49 55.91,-94.71 61.3,-103.84 65.81,-98.49"/>
</a>
</g>
</g>
<!-- Node2 -->
<g id="Node000002" class="node">
<title>Node2</title>
<g id="a_Node000002"><a xlink:href="class_app_1_1_providers_1_1_auth_service_provider.html" target="_top" xlink:title=" ">
<polygon fill="white" stroke="#666666" points="238.25,-130.25 133,-130.25 133,-111 238.25,-111 238.25,-130.25"/>
<text text-anchor="middle" x="185.62" y="-116.75" font-family="Helvetica,sans-Serif" font-size="10.00">AuthServiceProvider</text>
</a>
</g>
</g>
<!-- Node0&#45;&gt;Node2 -->
<g id="edge49_Node000000_Node000002" class="edge">
<title>Node0&#45;&gt;Node2</title>
<g id="a_edge49_Node000000_Node000002"><a xlink:title=" ">
<path fill="none" stroke="#63b8ff" d="M93.17,-96.65C110.54,-101.2 129.78,-106.25 146.11,-110.53"/>
<polygon fill="#63b8ff" stroke="#63b8ff" points="94.09,-93.27 83.53,-94.12 92.31,-100.04 94.09,-93.27"/>
</a>
</g>
</g>
<!-- Node3 -->
<g id="Node000003" class="node">
<title>Node3</title>
<g id="a_Node000003"><a xlink:href="class_app_1_1_providers_1_1_broadcast_service_provider.html" target="_top" xlink:title=" ">
<polygon fill="white" stroke="#666666" points="250.25,-93.25 121,-93.25 121,-74 250.25,-74 250.25,-93.25"/>
<text text-anchor="middle" x="185.62" y="-79.75" font-family="Helvetica,sans-Serif" font-size="10.00">BroadcastServiceProvider</text>
</a>
</g>
</g>
<!-- Node0&#45;&gt;Node3 -->
<g id="edge50_Node000000_Node000003" class="edge">
<title>Node0&#45;&gt;Node3</title>
<g id="a_edge50_Node000000_Node000003"><a xlink:title=" ">
<path fill="none" stroke="#63b8ff" d="M96.93,-83.62C104.66,-83.62 112.69,-83.62 120.61,-83.62"/>
<polygon fill="#63b8ff" stroke="#63b8ff" points="96.97,-80.13 86.97,-83.63 96.97,-87.13 96.97,-80.13"/>
</a>
</g>
</g>
<!-- Node4 -->
<g id="Node000004" class="node">
<title>Node4</title>
<g id="a_Node000004"><a xlink:href="class_app_1_1_providers_1_1_event_service_provider.html" target="_top" xlink:title=" ">
<polygon fill="white" stroke="#666666" points="240.88,-56.25 130.38,-56.25 130.38,-37 240.88,-37 240.88,-56.25"/>
<text text-anchor="middle" x="185.62" y="-42.75" font-family="Helvetica,sans-Serif" font-size="10.00">EventServiceProvider</text>
</a>
</g>
</g>
<!-- Node0&#45;&gt;Node4 -->
<g id="edge51_Node000000_Node000004" class="edge">
<title>Node0&#45;&gt;Node4</title>
<g id="a_edge51_Node000000_Node000004"><a xlink:title=" ">
<path fill="none" stroke="#63b8ff" d="M93.17,-70.6C110.54,-66.05 129.78,-61 146.11,-56.72"/>
<polygon fill="#63b8ff" stroke="#63b8ff" points="92.31,-67.21 83.53,-73.13 94.09,-73.98 92.31,-67.21"/>
</a>
</g>
</g>
<!-- Node5 -->
<g id="Node000005" class="node">
<title>Node5</title>
<g id="a_Node000005"><a xlink:href="class_app_1_1_providers_1_1_route_service_provider.html" target="_top" xlink:title=" ">
<polygon fill="white" stroke="#666666" points="241.25,-19.25 130,-19.25 130,0 241.25,0 241.25,-19.25"/>
<text text-anchor="middle" x="185.62" y="-5.75" font-family="Helvetica,sans-Serif" font-size="10.00">RouteServiceProvider</text>
</a>
</g>
</g>
<!-- Node0&#45;&gt;Node5 -->
<g id="edge52_Node000000_Node000005" class="edge">
<title>Node0&#45;&gt;Node5</title>
<g id="a_edge52_Node000000_Node000005"><a xlink:title=" ">
<path fill="none" stroke="#63b8ff" d="M63.16,-66.42C78.13,-54.1 99.72,-37.92 121,-27.62 127.3,-24.57 134.22,-21.96 141.09,-19.74"/>
<polygon fill="#63b8ff" stroke="#63b8ff" points="61.3,-63.41 55.91,-72.54 65.81,-68.76 61.3,-63.41"/>
</a>
</g>
</g>
</g>
</svg>
