<?xml version="1.0" encoding="UTF-8" standalone="no"?>
<!DOCTYPE svg PUBLIC "-//W3C//DTD SVG 1.1//EN"
 "http://www.w3.org/Graphics/SVG/1.1/DTD/svg11.dtd">
<!-- Generated by graphviz version 10.0.1 (20240210.2158)
 -->
<!-- Title: Graphe hiérarchique des classes Pages: 1 -->
<svg width="247pt" height="212pt"
 viewBox="0.00 0.00 247.00 212.25" xmlns="http://www.w3.org/2000/svg" xmlns:xlink="http://www.w3.org/1999/xlink">
<g id="graph0" class="graph" transform="scale(1 1) rotate(0) translate(4 208.25)">
<title>Graphe hiérarchique des classes</title>
<!-- Node0 -->
<g id="Node000000" class="node">
<title>Node0</title>
<g id="a_Node000000"><a xlink:title=" ">
<polygon fill="#e0e0e0" stroke="#999999" points="75.25,-111.25 0,-111.25 0,-92 75.25,-92 75.25,-111.25"/>
<text text-anchor="middle" x="37.62" y="-97.75" font-family="Helvetica,sans-Serif" font-size="10.00">FormRequest</text>
</a>
</g>
</g>
<!-- Node1 -->
<g id="Node000001" class="node">
<title>Node1</title>
<g id="a_Node000001"><a xlink:href="class_app_1_1_http_1_1_requests_1_1_store_category_request.html" target="_top" xlink:title=" ">
<polygon fill="white" stroke="#666666" points="233,-204.25 117.25,-204.25 117.25,-185 233,-185 233,-204.25"/>
<text text-anchor="middle" x="175.12" y="-190.75" font-family="Helvetica,sans-Serif" font-size="10.00">StoreCategoryRequest</text>
</a>
</g>
</g>
<!-- Node0&#45;&gt;Node1 -->
<g id="edge14_Node000000_Node000001" class="edge">
<title>Node0&#45;&gt;Node1</title>
<g id="a_edge14_Node000000_Node000001"><a xlink:title=" ">
<path fill="none" stroke="#63b8ff" d="M52.24,-120.53C65.48,-137.58 87.08,-162.13 111.25,-176.62 116.51,-179.78 122.35,-182.4 128.28,-184.58"/>
<polygon fill="#63b8ff" stroke="#63b8ff" points="55.17,-118.6 46.37,-112.7 49.57,-122.8 55.17,-118.6"/>
</a>
</g>
</g>
<!-- Node2 -->
<g id="Node000002" class="node">
<title>Node2</title>
<g id="a_Node000002"><a xlink:href="class_app_1_1_http_1_1_requests_1_1_store_personnel_request.html" target="_top" xlink:title=" ">
<polygon fill="white" stroke="#666666" points="234.88,-167.25 115.38,-167.25 115.38,-148 234.88,-148 234.88,-167.25"/>
<text text-anchor="middle" x="175.12" y="-153.75" font-family="Helvetica,sans-Serif" font-size="10.00">StorePersonnelRequest</text>
</a>
</g>
</g>
<!-- Node0&#45;&gt;Node2 -->
<g id="edge15_Node000000_Node000002" class="edge">
<title>Node0&#45;&gt;Node2</title>
<g id="a_edge15_Node000000_Node000002"><a xlink:title=" ">
<path fill="none" stroke="#63b8ff" d="M65.47,-117.34C78.91,-124.78 95.61,-133.37 111.25,-139.62 118.63,-142.58 126.67,-145.26 134.47,-147.6"/>
<polygon fill="#63b8ff" stroke="#63b8ff" points="67.22,-114.31 56.79,-112.44 63.78,-120.41 67.22,-114.31"/>
</a>
</g>
</g>
<!-- Node3 -->
<g id="Node000003" class="node">
<title>Node3</title>
<g id="a_Node000003"><a xlink:href="class_app_1_1_http_1_1_requests_1_1_store_produits_request.html" target="_top" xlink:title=" ">
<polygon fill="white" stroke="#666666" points="231.12,-130.25 119.12,-130.25 119.12,-111 231.12,-111 231.12,-130.25"/>
<text text-anchor="middle" x="175.12" y="-116.75" font-family="Helvetica,sans-Serif" font-size="10.00">StoreProduitsRequest</text>
</a>
</g>
</g>
<!-- Node0&#45;&gt;Node3 -->
<g id="edge16_Node000000_Node000003" class="edge">
<title>Node0&#45;&gt;Node3</title>
<g id="a_edge16_Node000000_Node000003"><a xlink:title=" ">
<path fill="none" stroke="#63b8ff" d="M86.97,-108.4C97.3,-109.85 108.28,-111.39 118.84,-112.87"/>
<polygon fill="#63b8ff" stroke="#63b8ff" points="87.54,-104.95 77.15,-107.03 86.57,-111.88 87.54,-104.95"/>
</a>
</g>
</g>
<!-- Node4 -->
<g id="Node000004" class="node">
<title>Node4</title>
<g id="a_Node000004"><a xlink:href="class_app_1_1_http_1_1_requests_1_1_update_category_request.html" target="_top" xlink:title=" ">
<polygon fill="white" stroke="#666666" points="237.12,-93.25 113.12,-93.25 113.12,-74 237.12,-74 237.12,-93.25"/>
<text text-anchor="middle" x="175.12" y="-79.75" font-family="Helvetica,sans-Serif" font-size="10.00">UpdateCategoryRequest</text>
</a>
</g>
</g>
<!-- Node0&#45;&gt;Node4 -->
<g id="edge17_Node000000_Node000004" class="edge">
<title>Node0&#45;&gt;Node4</title>
<g id="a_edge17_Node000000_Node000004"><a xlink:title=" ">
<path fill="none" stroke="#63b8ff" d="M87.04,-95.19C95.34,-94.09 104.06,-92.93 112.64,-91.79"/>
<polygon fill="#63b8ff" stroke="#63b8ff" points="86.6,-91.72 77.15,-96.51 87.53,-98.66 86.6,-91.72"/>
</a>
</g>
</g>
<!-- Node5 -->
<g id="Node000005" class="node">
<title>Node5</title>
<g id="a_Node000005"><a xlink:href="class_app_1_1_http_1_1_requests_1_1_update_personnel_request.html" target="_top" xlink:title=" ">
<polygon fill="white" stroke="#666666" points="239,-56.25 111.25,-56.25 111.25,-37 239,-37 239,-56.25"/>
<text text-anchor="middle" x="175.12" y="-42.75" font-family="Helvetica,sans-Serif" font-size="10.00">UpdatePersonnelRequest</text>
</a>
</g>
</g>
<!-- Node0&#45;&gt;Node5 -->
<g id="edge18_Node000000_Node000005" class="edge">
<title>Node0&#45;&gt;Node5</title>
<g id="a_edge18_Node000000_Node000005"><a xlink:title=" ">
<path fill="none" stroke="#63b8ff" d="M66.06,-86.07C79.41,-78.91 95.87,-70.68 111.25,-64.62 118.65,-61.71 126.7,-59.05 134.49,-56.71"/>
<polygon fill="#63b8ff" stroke="#63b8ff" points="64.51,-82.92 57.42,-90.79 67.87,-89.07 64.51,-82.92"/>
</a>
</g>
</g>
<!-- Node6 -->
<g id="Node000006" class="node">
<title>Node6</title>
<g id="a_Node000006"><a xlink:href="class_app_1_1_http_1_1_requests_1_1_update_produits_request.html" target="_top" xlink:title=" ">
<polygon fill="white" stroke="#666666" points="235.25,-19.25 115,-19.25 115,0 235.25,0 235.25,-19.25"/>
<text text-anchor="middle" x="175.12" y="-5.75" font-family="Helvetica,sans-Serif" font-size="10.00">UpdateProduitsRequest</text>
</a>
</g>
</g>
<!-- Node0&#45;&gt;Node6 -->
<g id="edge19_Node000000_Node000006" class="edge">
<title>Node0&#45;&gt;Node6</title>
<g id="a_edge19_Node000000_Node000006"><a xlink:title=" ">
<path fill="none" stroke="#63b8ff" d="M52.51,-82.71C65.8,-65.9 87.33,-41.86 111.25,-27.62 116.52,-24.49 122.36,-21.88 128.3,-19.7"/>
<polygon fill="#63b8ff" stroke="#63b8ff" points="49.9,-80.36 46.6,-90.43 55.46,-84.62 49.9,-80.36"/>
</a>
</g>
</g>
</g>
</svg>
