<?xml version="1.0" encoding="UTF-8" standalone="no"?>
<!DOCTYPE svg PUBLIC "-//W3C//DTD SVG 1.1//EN"
 "http://www.w3.org/Graphics/SVG/1.1/DTD/svg11.dtd">
<!-- Generated by graphviz version 10.0.1 (20240210.2158)
 -->
<!-- Title: Graphe hiérarchique des classes Pages: 1 -->
<svg width="292pt" height="27pt"
 viewBox="0.00 0.00 291.50 27.25" xmlns="http://www.w3.org/2000/svg" xmlns:xlink="http://www.w3.org/1999/xlink">
<g id="graph0" class="graph" transform="scale(1 1) rotate(0) translate(4 23.25)">
<title>Graphe hiérarchique des classes</title>
<!-- Node0 -->
<g id="Node000000" class="node">
<title>Node0</title>
<g id="a_Node000000"><a xlink:href="class_base_test_case.html" target="_top" xlink:title=" ">
<polygon fill="white" stroke="#666666" points="80.5,-19.25 0,-19.25 0,0 80.5,0 80.5,-19.25"/>
<text text-anchor="middle" x="40.25" y="-5.75" font-family="Helvetica,sans-Serif" font-size="10.00">BaseTestCase</text>
</a>
</g>
</g>
<!-- Node1 -->
<g id="Node000001" class="node">
<title>Node1</title>
<g id="a_Node000001"><a xlink:href="class_tests_1_1_test_case.html" target="_top" xlink:title=" ">
<polygon fill="white" stroke="#666666" points="174.5,-19.25 116.5,-19.25 116.5,0 174.5,0 174.5,-19.25"/>
<text text-anchor="middle" x="145.5" y="-5.75" font-family="Helvetica,sans-Serif" font-size="10.00">TestCase</text>
</a>
</g>
</g>
<!-- Node0&#45;&gt;Node1 -->
<g id="edge10_Node000000_Node000001" class="edge">
<title>Node0&#45;&gt;Node1</title>
<g id="a_edge10_Node000000_Node000001"><a xlink:title=" ">
<path fill="none" stroke="#63b8ff" d="M92.31,-9.62C100.48,-9.62 108.66,-9.62 116.04,-9.62"/>
<polygon fill="#63b8ff" stroke="#63b8ff" points="92.39,-6.13 82.39,-9.63 92.39,-13.13 92.39,-6.13"/>
</a>
</g>
</g>
<!-- Node2 -->
<g id="Node000002" class="node">
<title>Node2</title>
<g id="a_Node000002"><a xlink:href="class_tests_1_1_feature_1_1_example_test.html" target="_top" xlink:title=" ">
<polygon fill="white" stroke="#666666" points="283.5,-19.25 210.5,-19.25 210.5,0 283.5,0 283.5,-19.25"/>
<text text-anchor="middle" x="247" y="-5.75" font-family="Helvetica,sans-Serif" font-size="10.00">ExampleTest</text>
</a>
</g>
</g>
<!-- Node1&#45;&gt;Node2 -->
<g id="edge11_Node000001_Node000002" class="edge">
<title>Node1&#45;&gt;Node2</title>
<g id="a_edge11_Node000001_Node000002"><a xlink:title=" ">
<path fill="none" stroke="#63b8ff" d="M186.07,-9.62C194.04,-9.62 202.38,-9.62 210.22,-9.62"/>
<polygon fill="#63b8ff" stroke="#63b8ff" points="186.26,-6.13 176.26,-9.63 186.26,-13.13 186.26,-6.13"/>
</a>
</g>
</g>
</g>
</svg>
