<?xml version="1.0" encoding="UTF-8" standalone="no"?>
<!DOCTYPE svg PUBLIC "-//W3C//DTD SVG 1.1//EN"
 "http://www.w3.org/Graphics/SVG/1.1/DTD/svg11.dtd">
<!-- Generated by graphviz version 10.0.1 (20240210.2158)
 -->
<!-- Title: Graphe hiérarchique des classes Pages: 1 -->
<svg width="285pt" height="286pt"
 viewBox="0.00 0.00 285.25 286.25" xmlns="http://www.w3.org/2000/svg" xmlns:xlink="http://www.w3.org/1999/xlink">
<g id="graph0" class="graph" transform="scale(1 1) rotate(0) translate(4 282.25)">
<title>Graphe hiérarchique des classes</title>
<!-- Node0 -->
<g id="Node000000" class="node">
<title>Node0</title>
<g id="a_Node000000"><a xlink:href="class_middleware.html" target="_top" xlink:title=" ">
<polygon fill="white" stroke="#666666" points="65.5,-148.25 0,-148.25 0,-129 65.5,-129 65.5,-148.25"/>
<text text-anchor="middle" x="32.75" y="-134.75" font-family="Helvetica,sans-Serif" font-size="10.00">Middleware</text>
</a>
</g>
</g>
<!-- Node1 -->
<g id="Node000001" class="node">
<title>Node1</title>
<g id="a_Node000001"><a xlink:href="class_app_1_1_http_1_1_middleware_1_1_authenticate.html" target="_top" xlink:title=" ">
<polygon fill="white" stroke="#666666" points="224.75,-278.25 154,-278.25 154,-259 224.75,-259 224.75,-278.25"/>
<text text-anchor="middle" x="189.38" y="-264.75" font-family="Helvetica,sans-Serif" font-size="10.00">Authenticate</text>
</a>
</g>
</g>
<!-- Node0&#45;&gt;Node1 -->
<g id="edge29_Node000000_Node000001" class="edge">
<title>Node0&#45;&gt;Node1</title>
<g id="a_edge29_Node000000_Node000001"><a xlink:title=" ">
<path fill="none" stroke="#63b8ff" d="M40.43,-159.3C49.82,-184.93 69.46,-227.97 101.5,-250.62 116.59,-261.3 136.62,-265.92 153.65,-267.82"/>
<polygon fill="#63b8ff" stroke="#63b8ff" points="43.8,-158.33 37.22,-150.02 37.18,-160.62 43.8,-158.33"/>
</a>
</g>
</g>
<!-- Node2 -->
<g id="Node000002" class="node">
<title>Node2</title>
<g id="a_Node000002"><a xlink:href="class_app_1_1_http_1_1_middleware_1_1_encrypt_cookies.html" target="_top" xlink:title=" ">
<polygon fill="white" stroke="#666666" points="232.25,-241.25 146.5,-241.25 146.5,-222 232.25,-222 232.25,-241.25"/>
<text text-anchor="middle" x="189.38" y="-227.75" font-family="Helvetica,sans-Serif" font-size="10.00">EncryptCookies</text>
</a>
</g>
</g>
<!-- Node0&#45;&gt;Node2 -->
<g id="edge30_Node000000_Node000002" class="edge">
<title>Node0&#45;&gt;Node2</title>
<g id="a_edge30_Node000000_Node000002"><a xlink:title=" ">
<path fill="none" stroke="#63b8ff" d="M45.93,-157.96C57.92,-175.31 77.83,-200.06 101.5,-213.62 115,-221.36 131.37,-225.79 146.24,-228.32"/>
<polygon fill="#63b8ff" stroke="#63b8ff" points="49.1,-156.41 40.66,-150 43.27,-160.27 49.1,-156.41"/>
</a>
</g>
</g>
<!-- Node3 -->
<g id="Node000003" class="node">
<title>Node3</title>
<g id="a_Node000003"><a xlink:href="class_app_1_1_http_1_1_middleware_1_1_prevent_requests_during_maintenance.html" target="_top" xlink:title=" ">
<polygon fill="white" stroke="#666666" points="277.25,-204.25 101.5,-204.25 101.5,-185 277.25,-185 277.25,-204.25"/>
<text text-anchor="middle" x="189.38" y="-190.75" font-family="Helvetica,sans-Serif" font-size="10.00">PreventRequestsDuringMaintenance</text>
</a>
</g>
</g>
<!-- Node0&#45;&gt;Node3 -->
<g id="edge31_Node000000_Node000003" class="edge">
<title>Node0&#45;&gt;Node3</title>
<g id="a_edge31_Node000000_Node000003"><a xlink:title=" ">
<path fill="none" stroke="#63b8ff" d="M58.11,-154.7C70.63,-162.32 86.4,-170.98 101.5,-176.62 109.87,-179.75 118.9,-182.39 127.87,-184.59"/>
<polygon fill="#63b8ff" stroke="#63b8ff" points="60.05,-151.78 49.72,-149.43 56.33,-157.71 60.05,-151.78"/>
</a>
</g>
</g>
<!-- Node4 -->
<g id="Node000004" class="node">
<title>Node4</title>
<g id="a_Node000004"><a xlink:href="class_app_1_1_http_1_1_middleware_1_1_trim_strings.html" target="_top" xlink:title=" ">
<polygon fill="white" stroke="#666666" points="222.5,-167.25 156.25,-167.25 156.25,-148 222.5,-148 222.5,-167.25"/>
<text text-anchor="middle" x="189.38" y="-153.75" font-family="Helvetica,sans-Serif" font-size="10.00">TrimStrings</text>
</a>
</g>
</g>
<!-- Node0&#45;&gt;Node4 -->
<g id="edge32_Node000000_Node000004" class="edge">
<title>Node0&#45;&gt;Node4</title>
<g id="a_edge32_Node000000_Node000004"><a xlink:title=" ">
<path fill="none" stroke="#63b8ff" d="M77.15,-143.96C102.12,-147.03 132.97,-150.82 155.85,-153.63"/>
<polygon fill="#63b8ff" stroke="#63b8ff" points="77.64,-140.49 67.29,-142.75 76.79,-147.44 77.64,-140.49"/>
</a>
</g>
</g>
<!-- Node5 -->
<g id="Node000005" class="node">
<title>Node5</title>
<g id="a_Node000005"><a xlink:href="class_app_1_1_http_1_1_middleware_1_1_trust_hosts.html" target="_top" xlink:title=" ">
<polygon fill="white" stroke="#666666" points="221.75,-130.25 157,-130.25 157,-111 221.75,-111 221.75,-130.25"/>
<text text-anchor="middle" x="189.38" y="-116.75" font-family="Helvetica,sans-Serif" font-size="10.00">TrustHosts</text>
</a>
</g>
</g>
<!-- Node0&#45;&gt;Node5 -->
<g id="edge33_Node000000_Node000005" class="edge">
<title>Node0&#45;&gt;Node5</title>
<g id="a_edge33_Node000000_Node000005"><a xlink:title=" ">
<path fill="none" stroke="#63b8ff" d="M76.93,-133.6C102.23,-130.65 133.63,-127 156.64,-124.32"/>
<polygon fill="#63b8ff" stroke="#63b8ff" points="76.82,-130.09 67.29,-134.72 77.63,-137.04 76.82,-130.09"/>
</a>
</g>
</g>
<!-- Node6 -->
<g id="Node000006" class="node">
<title>Node6</title>
<g id="a_Node000006"><a xlink:href="class_app_1_1_http_1_1_middleware_1_1_trust_proxies.html" target="_top" xlink:title=" ">
<polygon fill="white" stroke="#666666" points="225.12,-93.25 153.62,-93.25 153.62,-74 225.12,-74 225.12,-93.25"/>
<text text-anchor="middle" x="189.38" y="-79.75" font-family="Helvetica,sans-Serif" font-size="10.00">TrustProxies</text>
</a>
</g>
</g>
<!-- Node0&#45;&gt;Node6 -->
<g id="edge34_Node000000_Node000006" class="edge">
<title>Node0&#45;&gt;Node6</title>
<g id="a_edge34_Node000000_Node000006"><a xlink:title=" ">
<path fill="none" stroke="#63b8ff" d="M58.66,-122.71C71.11,-115.36 86.66,-107.08 101.5,-101.62 118.13,-95.52 137.35,-91.26 153.47,-88.43"/>
<polygon fill="#63b8ff" stroke="#63b8ff" points="57.02,-119.61 50.3,-127.79 60.66,-125.59 57.02,-119.61"/>
</a>
</g>
</g>
<!-- Node7 -->
<g id="Node000007" class="node">
<title>Node7</title>
<g id="a_Node000007"><a xlink:href="class_app_1_1_http_1_1_middleware_1_1_validate_signature.html" target="_top" xlink:title=" ">
<polygon fill="white" stroke="#666666" points="235.25,-56.25 143.5,-56.25 143.5,-37 235.25,-37 235.25,-56.25"/>
<text text-anchor="middle" x="189.38" y="-42.75" font-family="Helvetica,sans-Serif" font-size="10.00">ValidateSignature</text>
</a>
</g>
</g>
<!-- Node0&#45;&gt;Node7 -->
<g id="edge35_Node000000_Node000007" class="edge">
<title>Node0&#45;&gt;Node7</title>
<g id="a_edge35_Node000000_Node000007"><a xlink:title=" ">
<path fill="none" stroke="#63b8ff" d="M45.99,-119.55C58.02,-102.43 77.96,-78.01 101.5,-64.62 114.09,-57.47 129.14,-53.14 143.16,-50.53"/>
<polygon fill="#63b8ff" stroke="#63b8ff" points="43.4,-117.14 40.71,-127.39 49.2,-121.06 43.4,-117.14"/>
</a>
</g>
</g>
<!-- Node8 -->
<g id="Node000008" class="node">
<title>Node8</title>
<g id="a_Node000008"><a xlink:href="class_app_1_1_http_1_1_middleware_1_1_verify_csrf_token.html" target="_top" xlink:title=" ">
<polygon fill="white" stroke="#666666" points="232.62,-19.25 146.12,-19.25 146.12,0 232.62,0 232.62,-19.25"/>
<text text-anchor="middle" x="189.38" y="-5.75" font-family="Helvetica,sans-Serif" font-size="10.00">VerifyCsrfToken</text>
</a>
</g>
</g>
<!-- Node0&#45;&gt;Node8 -->
<g id="edge36_Node000000_Node000008" class="edge">
<title>Node0&#45;&gt;Node8</title>
<g id="a_edge36_Node000000_Node000008"><a xlink:title=" ">
<path fill="none" stroke="#63b8ff" d="M40.48,-118.13C49.93,-92.73 69.63,-50.07 101.5,-27.62 114.35,-18.58 130.75,-13.88 145.83,-11.51"/>
<polygon fill="#63b8ff" stroke="#63b8ff" points="37.27,-116.72 37.26,-127.32 43.87,-119.04 37.27,-116.72"/>
</a>
</g>
</g>
</g>
</svg>
