<?xml version="1.0" encoding="UTF-8" standalone="no"?>
<!DOCTYPE svg PUBLIC "-//W3C//DTD SVG 1.1//EN"
 "http://www.w3.org/Graphics/SVG/1.1/DTD/svg11.dtd">
<!-- Generated by graphviz version 10.0.1 (20240210.2158)
 -->
<!-- Title: Graphe hiérarchique des classes Pages: 1 -->
<svg width="204pt" height="138pt"
 viewBox="0.00 0.00 204.25 138.25" xmlns="http://www.w3.org/2000/svg" xmlns:xlink="http://www.w3.org/1999/xlink">
<g id="graph0" class="graph" transform="scale(1 1) rotate(0) translate(4 134.25)">
<title>Graphe hiérarchique des classes</title>
<!-- Node0 -->
<g id="Node000000" class="node">
<title>Node0</title>
<g id="a_Node000000"><a xlink:title=" ">
<polygon fill="#e0e0e0" stroke="#999999" points="46.75,-74.25 0,-74.25 0,-55 46.75,-55 46.75,-74.25"/>
<text text-anchor="middle" x="23.38" y="-60.75" font-family="Helvetica,sans-Serif" font-size="10.00">Seeder</text>
</a>
</g>
</g>
<!-- Node1 -->
<g id="Node000001" class="node">
<title>Node1</title>
<g id="a_Node000001"><a xlink:href="class_database_1_1_seeders_1_1_category_seeder.html" target="_top" xlink:title=" ">
<polygon fill="white" stroke="#666666" points="182.75,-130.25 96.25,-130.25 96.25,-111 182.75,-111 182.75,-130.25"/>
<text text-anchor="middle" x="139.5" y="-116.75" font-family="Helvetica,sans-Serif" font-size="10.00">CategorySeeder</text>
</a>
</g>
</g>
<!-- Node0&#45;&gt;Node1 -->
<g id="edge44_Node000000_Node000001" class="edge">
<title>Node0&#45;&gt;Node1</title>
<g id="a_edge44_Node000000_Node000001"><a xlink:title=" ">
<path fill="none" stroke="#63b8ff" d="M46.52,-81.03C57.1,-88.34 70.18,-96.63 82.75,-102.62 88.99,-105.6 95.85,-108.26 102.56,-110.57"/>
<polygon fill="#63b8ff" stroke="#63b8ff" points="48.65,-78.25 38.47,-75.31 44.59,-83.95 48.65,-78.25"/>
</a>
</g>
</g>
<!-- Node2 -->
<g id="Node000002" class="node">
<title>Node2</title>
<g id="a_Node000002"><a xlink:href="class_database_1_1_seeders_1_1_database_seeder.html" target="_top" xlink:title=" ">
<polygon fill="white" stroke="#666666" points="183.88,-93.25 95.12,-93.25 95.12,-74 183.88,-74 183.88,-93.25"/>
<text text-anchor="middle" x="139.5" y="-79.75" font-family="Helvetica,sans-Serif" font-size="10.00">DatabaseSeeder</text>
</a>
</g>
</g>
<!-- Node0&#45;&gt;Node2 -->
<g id="edge45_Node000000_Node000002" class="edge">
<title>Node0&#45;&gt;Node2</title>
<g id="a_edge45_Node000000_Node000002"><a xlink:title=" ">
<path fill="none" stroke="#63b8ff" d="M58.49,-70.3C69.94,-72.21 82.86,-74.36 94.93,-76.37"/>
<polygon fill="#63b8ff" stroke="#63b8ff" points="59.13,-66.86 48.69,-68.67 57.98,-73.77 59.13,-66.86"/>
</a>
</g>
</g>
<!-- Node3 -->
<g id="Node000003" class="node">
<title>Node3</title>
<g id="a_Node000003"><a xlink:href="class_database_1_1_seeders_1_1_produits_table_seeder.html" target="_top" xlink:title=" ">
<polygon fill="white" stroke="#666666" points="192.5,-56.25 86.5,-56.25 86.5,-37 192.5,-37 192.5,-56.25"/>
<text text-anchor="middle" x="139.5" y="-42.75" font-family="Helvetica,sans-Serif" font-size="10.00">ProduitsTableSeeder</text>
</a>
</g>
</g>
<!-- Node0&#45;&gt;Node3 -->
<g id="edge46_Node000000_Node000003" class="edge">
<title>Node0&#45;&gt;Node3</title>
<g id="a_edge46_Node000000_Node000003"><a xlink:title=" ">
<path fill="none" stroke="#63b8ff" d="M58.54,-59.24C67.33,-57.85 76.99,-56.33 86.46,-54.83"/>
<polygon fill="#63b8ff" stroke="#63b8ff" points="58.02,-55.77 48.69,-60.79 59.11,-62.69 58.02,-55.77"/>
</a>
</g>
</g>
<!-- Node4 -->
<g id="Node000004" class="node">
<title>Node4</title>
<g id="a_Node000004"><a xlink:href="class_personnel_table_seeder.html" target="_top" xlink:title=" ">
<polygon fill="white" stroke="#666666" points="196.25,-19.25 82.75,-19.25 82.75,0 196.25,0 196.25,-19.25"/>
<text text-anchor="middle" x="139.5" y="-5.75" font-family="Helvetica,sans-Serif" font-size="10.00">PersonnelTableSeeder</text>
</a>
</g>
</g>
<!-- Node0&#45;&gt;Node4 -->
<g id="edge47_Node000000_Node000004" class="edge">
<title>Node0&#45;&gt;Node4</title>
<g id="a_edge47_Node000000_Node000004"><a xlink:title=" ">
<path fill="none" stroke="#63b8ff" d="M46.99,-48.4C57.51,-41.36 70.4,-33.42 82.75,-27.62 89.01,-24.69 95.88,-22.04 102.59,-19.74"/>
<polygon fill="#63b8ff" stroke="#63b8ff" points="45.23,-45.37 38.98,-53.92 49.2,-51.13 45.23,-45.37"/>
</a>
</g>
</g>
</g>
</svg>
