<?xml version="1.0" encoding="UTF-8" standalone="no"?>
<!DOCTYPE svg PUBLIC "-//W3C//DTD SVG 1.1//EN"
 "http://www.w3.org/Graphics/SVG/1.1/DTD/svg11.dtd">
<!-- Generated by graphviz version 10.0.1 (20240210.2158)
 -->
<!-- Title: Graphe hiérarchique des classes Pages: 1 -->
<svg width="320pt" height="249pt"
 viewBox="0.00 0.00 320.00 249.25" xmlns="http://www.w3.org/2000/svg" xmlns:xlink="http://www.w3.org/1999/xlink">
<g id="graph0" class="graph" transform="scale(1 1) rotate(0) translate(4 245.25)">
<title>Graphe hiérarchique des classes</title>
<!-- Node0 -->
<g id="Node000000" class="node">
<title>Node0</title>
<g id="a_Node000000"><a xlink:href="class_base_controller.html" target="_top" xlink:title=" ">
<polygon fill="white" stroke="#666666" points="80.5,-130.25 0,-130.25 0,-111 80.5,-111 80.5,-130.25"/>
<text text-anchor="middle" x="40.25" y="-116.75" font-family="Helvetica,sans-Serif" font-size="10.00">BaseController</text>
</a>
</g>
</g>
<!-- Node1 -->
<g id="Node000001" class="node">
<title>Node1</title>
<g id="a_Node000001"><a xlink:href="class_app_1_1_http_1_1_controllers_1_1_controller.html" target="_top" xlink:title=" ">
<polygon fill="white" stroke="#666666" points="174.5,-130.25 116.5,-130.25 116.5,-111 174.5,-111 174.5,-130.25"/>
<text text-anchor="middle" x="145.5" y="-116.75" font-family="Helvetica,sans-Serif" font-size="10.00">Controller</text>
</a>
</g>
</g>
<!-- Node0&#45;&gt;Node1 -->
<g id="edge2_Node000000_Node000001" class="edge">
<title>Node0&#45;&gt;Node1</title>
<g id="a_edge2_Node000000_Node000001"><a xlink:title=" ">
<path fill="none" stroke="#63b8ff" d="M92.31,-120.62C100.48,-120.62 108.66,-120.62 116.04,-120.62"/>
<polygon fill="#63b8ff" stroke="#63b8ff" points="92.39,-117.13 82.39,-120.63 92.39,-124.13 92.39,-117.13"/>
</a>
</g>
</g>
<!-- Node2 -->
<g id="Node000002" class="node">
<title>Node2</title>
<g id="a_Node000002"><a xlink:href="class_app_1_1_http_1_1_controllers_1_1_category_controller.html" target="_top" xlink:title=" ">
<polygon fill="white" stroke="#666666" points="310.12,-241.25 212.38,-241.25 212.38,-222 310.12,-222 310.12,-241.25"/>
<text text-anchor="middle" x="261.25" y="-227.75" font-family="Helvetica,sans-Serif" font-size="10.00">CategoryController</text>
</a>
</g>
</g>
<!-- Node1&#45;&gt;Node2 -->
<g id="edge3_Node000001_Node000002" class="edge">
<title>Node1&#45;&gt;Node2</title>
<g id="a_edge3_Node000001_Node000002"><a xlink:title=" ">
<path fill="none" stroke="#63b8ff" d="M155.72,-140.86C166.22,-161.8 185.24,-194.12 210.5,-213.62 214.57,-216.77 219.24,-219.4 224.05,-221.59"/>
<polygon fill="#63b8ff" stroke="#63b8ff" points="158.91,-139.42 151.43,-131.91 152.6,-142.44 158.91,-139.42"/>
</a>
</g>
</g>
<!-- Node3 -->
<g id="Node000003" class="node">
<title>Node3</title>
<g id="a_Node000003"><a xlink:href="class_app_1_1_http_1_1_controllers_1_1_home_controller.html" target="_top" xlink:title=" ">
<polygon fill="white" stroke="#666666" points="303.38,-204.25 219.12,-204.25 219.12,-185 303.38,-185 303.38,-204.25"/>
<text text-anchor="middle" x="261.25" y="-190.75" font-family="Helvetica,sans-Serif" font-size="10.00">HomeController</text>
</a>
</g>
</g>
<!-- Node1&#45;&gt;Node3 -->
<g id="edge4_Node000001_Node000003" class="edge">
<title>Node1&#45;&gt;Node3</title>
<g id="a_edge4_Node000001_Node000003"><a xlink:title=" ">
<path fill="none" stroke="#63b8ff" d="M163.47,-138.65C175.62,-150.72 192.9,-166.24 210.5,-176.62 215.64,-179.66 221.38,-182.31 227.08,-184.58"/>
<polygon fill="#63b8ff" stroke="#63b8ff" points="166.14,-136.37 156.64,-131.67 161.13,-141.27 166.14,-136.37"/>
</a>
</g>
</g>
<!-- Node4 -->
<g id="Node000004" class="node">
<title>Node4</title>
<g id="a_Node000004"><a xlink:href="class_app_1_1_http_1_1_controllers_1_1_inventaire_controller.html" target="_top" xlink:title=" ">
<polygon fill="white" stroke="#666666" points="311.62,-167.25 210.88,-167.25 210.88,-148 311.62,-148 311.62,-167.25"/>
<text text-anchor="middle" x="261.25" y="-153.75" font-family="Helvetica,sans-Serif" font-size="10.00">InventaireController</text>
</a>
</g>
</g>
<!-- Node1&#45;&gt;Node4 -->
<g id="edge5_Node000001_Node000004" class="edge">
<title>Node1&#45;&gt;Node4</title>
<g id="a_edge5_Node000001_Node000004"><a xlink:title=" ">
<path fill="none" stroke="#63b8ff" d="M185.48,-133.31C199.83,-137.97 215.88,-143.19 229.41,-147.59"/>
<polygon fill="#63b8ff" stroke="#63b8ff" points="186.94,-130.1 176.35,-130.33 184.78,-136.76 186.94,-130.1"/>
</a>
</g>
</g>
<!-- Node5 -->
<g id="Node000005" class="node">
<title>Node5</title>
<g id="a_Node000005"><a xlink:href="class_app_1_1_http_1_1_controllers_1_1_lieux_controller.html" target="_top" xlink:title=" ">
<polygon fill="white" stroke="#666666" points="301.88,-130.25 220.62,-130.25 220.62,-111 301.88,-111 301.88,-130.25"/>
<text text-anchor="middle" x="261.25" y="-116.75" font-family="Helvetica,sans-Serif" font-size="10.00">LieuxController</text>
</a>
</g>
</g>
<!-- Node1&#45;&gt;Node5 -->
<g id="edge6_Node000001_Node000005" class="edge">
<title>Node1&#45;&gt;Node5</title>
<g id="a_edge6_Node000001_Node000005"><a xlink:title=" ">
<path fill="none" stroke="#63b8ff" d="M186.36,-120.62C197.32,-120.62 209.22,-120.62 220.2,-120.62"/>
<polygon fill="#63b8ff" stroke="#63b8ff" points="186.42,-117.13 176.42,-120.63 186.42,-124.13 186.42,-117.13"/>
</a>
</g>
</g>
<!-- Node6 -->
<g id="Node000006" class="node">
<title>Node6</title>
<g id="a_Node000006"><a xlink:href="class_app_1_1_http_1_1_controllers_1_1_personnel_controller.html" target="_top" xlink:title=" ">
<polygon fill="white" stroke="#666666" points="312,-93.25 210.5,-93.25 210.5,-74 312,-74 312,-93.25"/>
<text text-anchor="middle" x="261.25" y="-79.75" font-family="Helvetica,sans-Serif" font-size="10.00">PersonnelController</text>
</a>
</g>
</g>
<!-- Node1&#45;&gt;Node6 -->
<g id="edge7_Node000001_Node000006" class="edge">
<title>Node1&#45;&gt;Node6</title>
<g id="a_edge7_Node000001_Node000006"><a xlink:title=" ">
<path fill="none" stroke="#63b8ff" d="M185.48,-107.94C199.83,-103.28 215.88,-98.06 229.41,-93.66"/>
<polygon fill="#63b8ff" stroke="#63b8ff" points="184.78,-104.49 176.35,-110.92 186.94,-111.15 184.78,-104.49"/>
</a>
</g>
</g>
<!-- Node7 -->
<g id="Node000007" class="node">
<title>Node7</title>
<g id="a_Node000007"><a xlink:href="class_app_1_1_http_1_1_controllers_1_1_produits_controller.html" target="_top" xlink:title=" ">
<polygon fill="white" stroke="#666666" points="308.25,-56.25 214.25,-56.25 214.25,-37 308.25,-37 308.25,-56.25"/>
<text text-anchor="middle" x="261.25" y="-42.75" font-family="Helvetica,sans-Serif" font-size="10.00">ProduitsController</text>
</a>
</g>
</g>
<!-- Node1&#45;&gt;Node7 -->
<g id="edge8_Node000001_Node000007" class="edge">
<title>Node1&#45;&gt;Node7</title>
<g id="a_edge8_Node000001_Node000007"><a xlink:title=" ">
<path fill="none" stroke="#63b8ff" d="M163.47,-102.6C175.62,-90.53 192.9,-75.01 210.5,-64.62 215.64,-61.59 221.38,-58.94 227.08,-56.67"/>
<polygon fill="#63b8ff" stroke="#63b8ff" points="161.13,-99.98 156.64,-109.58 166.14,-104.88 161.13,-99.98"/>
</a>
</g>
</g>
<!-- Node8 -->
<g id="Node000008" class="node">
<title>Node8</title>
<g id="a_Node000008"><a xlink:href="class_app_1_1_http_1_1_controllers_1_1_user_controller.html" target="_top" xlink:title=" ">
<polygon fill="white" stroke="#666666" points="300.75,-19.25 221.75,-19.25 221.75,0 300.75,0 300.75,-19.25"/>
<text text-anchor="middle" x="261.25" y="-5.75" font-family="Helvetica,sans-Serif" font-size="10.00">UserController</text>
</a>
</g>
</g>
<!-- Node1&#45;&gt;Node8 -->
<g id="edge9_Node000001_Node000008" class="edge">
<title>Node1&#45;&gt;Node8</title>
<g id="a_edge9_Node000001_Node000008"><a xlink:title=" ">
<path fill="none" stroke="#63b8ff" d="M155.72,-100.39C166.22,-79.45 185.24,-47.13 210.5,-27.62 214.57,-24.48 219.24,-21.85 224.05,-19.66"/>
<polygon fill="#63b8ff" stroke="#63b8ff" points="152.6,-98.81 151.43,-109.34 158.91,-101.83 152.6,-98.81"/>
</a>
</g>
</g>
</g>
</svg>
