<?xml version="1.0" encoding="UTF-8" standalone="no"?>
<!DOCTYPE svg PUBLIC "-//W3C//DTD SVG 1.1//EN"
 "http://www.w3.org/Graphics/SVG/1.1/DTD/svg11.dtd">
<!-- Generated by graphviz version 10.0.1 (20240210.2158)
 -->
<!-- Title: Graphe hiérarchique des classes Pages: 1 -->
<svg width="195pt" height="138pt"
 viewBox="0.00 0.00 194.50 138.25" xmlns="http://www.w3.org/2000/svg" xmlns:xlink="http://www.w3.org/1999/xlink">
<g id="graph0" class="graph" transform="scale(1 1) rotate(0) translate(4 134.25)">
<title>Graphe hiérarchique des classes</title>
<!-- Node0 -->
<g id="Node000000" class="node">
<title>Node0</title>
<g id="a_Node000000"><a xlink:href="class_illuminate.html" target="_top" xlink:title=" ">
<polygon fill="white" stroke="#666666" points="58,-93.25 0,-93.25 0,-74 58,-74 58,-93.25"/>
<text text-anchor="middle" x="29" y="-79.75" font-family="Helvetica,sans-Serif" font-size="10.00">Illuminate</text>
</a>
</g>
</g>
<!-- Node1 -->
<g id="Node000001" class="node">
<title>Node1</title>
<g id="a_Node000001"><a xlink:href="class_database_1_1_factories_1_1_category_factory.html" target="_top" xlink:title=" ">
<polygon fill="white" stroke="#666666" points="184.62,-56.25 95.88,-56.25 95.88,-37 184.62,-37 184.62,-56.25"/>
<text text-anchor="middle" x="140.25" y="-42.75" font-family="Helvetica,sans-Serif" font-size="10.00">CategoryFactory</text>
</a>
</g>
</g>
<!-- Node0&#45;&gt;Node1 -->
<g id="edge21_Node000000_Node000001" class="edge">
<title>Node0&#45;&gt;Node1</title>
<g id="a_edge21_Node000000_Node000001"><a xlink:title=" ">
<path fill="none" stroke="#63b8ff" d="M69.17,-70.36C82.44,-65.87 97.03,-60.92 109.45,-56.72"/>
<polygon fill="#63b8ff" stroke="#63b8ff" points="68.2,-66.99 59.85,-73.51 70.45,-73.62 68.2,-66.99"/>
</a>
</g>
</g>
<!-- Node3 -->
<g id="Node000003" class="node">
<title>Node3</title>
<g id="a_Node000003"><a xlink:href="class_database_1_1_factories_1_1_personnel_factory.html" target="_top" xlink:title=" ">
<polygon fill="white" stroke="#666666" points="186.5,-19.25 94,-19.25 94,0 186.5,0 186.5,-19.25"/>
<text text-anchor="middle" x="140.25" y="-5.75" font-family="Helvetica,sans-Serif" font-size="10.00">PersonnelFactory</text>
</a>
</g>
</g>
<!-- Node0&#45;&gt;Node3 -->
<g id="edge22_Node000000_Node000003" class="edge">
<title>Node0&#45;&gt;Node3</title>
<g id="a_edge22_Node000000_Node000003"><a xlink:title=" ">
<path fill="none" stroke="#63b8ff" d="M56.38,-66.93C56.93,-66.5 57.47,-66.06 58,-65.62 75.91,-50.78 74.74,-40.67 94,-27.62 98.48,-24.59 103.55,-21.95 108.63,-19.69"/>
<polygon fill="#63b8ff" stroke="#63b8ff" points="54.38,-64.06 48.28,-72.72 58.45,-69.76 54.38,-64.06"/>
</a>
</g>
</g>
<!-- Node4 -->
<g id="Node000004" class="node">
<title>Node4</title>
<g id="a_Node000004"><a xlink:href="class_database_1_1_factories_1_1_produits_factory.html" target="_top" xlink:title=" ">
<polygon fill="white" stroke="#666666" points="182.75,-130.25 97.75,-130.25 97.75,-111 182.75,-111 182.75,-130.25"/>
<text text-anchor="middle" x="140.25" y="-116.75" font-family="Helvetica,sans-Serif" font-size="10.00">ProduitsFactory</text>
</a>
</g>
</g>
<!-- Node0&#45;&gt;Node4 -->
<g id="edge23_Node000000_Node000004" class="edge">
<title>Node0&#45;&gt;Node4</title>
<g id="a_edge23_Node000000_Node000004"><a xlink:title=" ">
<path fill="none" stroke="#63b8ff" d="M69.17,-96.89C82.44,-101.38 97.03,-106.33 109.45,-110.53"/>
<polygon fill="#63b8ff" stroke="#63b8ff" points="70.45,-93.63 59.85,-93.74 68.2,-100.26 70.45,-93.63"/>
</a>
</g>
</g>
<!-- Node5 -->
<g id="Node000005" class="node">
<title>Node5</title>
<g id="a_Node000005"><a xlink:href="class_database_1_1_factories_1_1_user_factory.html" target="_top" xlink:title=" ">
<polygon fill="white" stroke="#666666" points="175.25,-93.25 105.25,-93.25 105.25,-74 175.25,-74 175.25,-93.25"/>
<text text-anchor="middle" x="140.25" y="-79.75" font-family="Helvetica,sans-Serif" font-size="10.00">UserFactory</text>
</a>
</g>
</g>
<!-- Node0&#45;&gt;Node5 -->
<g id="edge24_Node000000_Node000005" class="edge">
<title>Node0&#45;&gt;Node5</title>
<g id="a_edge24_Node000000_Node000005"><a xlink:title=" ">
<path fill="none" stroke="#63b8ff" d="M69.64,-83.62C81.27,-83.62 93.88,-83.62 105.14,-83.62"/>
<polygon fill="#63b8ff" stroke="#63b8ff" points="69.93,-80.13 59.93,-83.63 69.93,-87.13 69.93,-80.13"/>
</a>
</g>
</g>
<!-- Node2 -->
<g id="Node000002" class="node">
<title>Node2</title>
<g id="a_Node000002"><a xlink:title=" ">
<polygon fill="#e0e0e0" stroke="#999999" points="53.5,-56.25 4.5,-56.25 4.5,-37 53.5,-37 53.5,-56.25"/>
<text text-anchor="middle" x="29" y="-42.75" font-family="Helvetica,sans-Serif" font-size="10.00">Factory</text>
</a>
</g>
</g>
<!-- Node2&#45;&gt;Node1 -->
<g id="edge25_Node000002_Node000001" class="edge">
<title>Node2&#45;&gt;Node1</title>
<g id="a_edge25_Node000002_Node000001"><a xlink:title=" ">
<path fill="none" stroke="#63b8ff" d="M65.2,-46.62C74.86,-46.62 85.45,-46.62 95.53,-46.62"/>
<polygon fill="#63b8ff" stroke="#63b8ff" points="65.49,-43.13 55.49,-46.63 65.49,-50.13 65.49,-43.13"/>
</a>
</g>
</g>
<!-- Node2&#45;&gt;Node3 -->
<g id="edge26_Node000002_Node000003" class="edge">
<title>Node2&#45;&gt;Node3</title>
<g id="a_edge26_Node000002_Node000003"><a xlink:title=" ">
<path fill="none" stroke="#63b8ff" d="M64.51,-34.94C78.96,-30.04 95.58,-24.41 109.48,-19.71"/>
<polygon fill="#63b8ff" stroke="#63b8ff" points="63.76,-31.5 55.41,-38.02 66,-38.13 63.76,-31.5"/>
</a>
</g>
</g>
<!-- Node2&#45;&gt;Node4 -->
<g id="edge27_Node000002_Node000004" class="edge">
<title>Node2&#45;&gt;Node4</title>
<g id="a_edge27_Node000002_Node000004"><a xlink:title=" ">
<path fill="none" stroke="#63b8ff" d="M56.38,-63.32C56.93,-63.75 57.47,-64.19 58,-64.62 75.91,-79.47 74.74,-89.58 94,-102.62 98.48,-105.66 103.55,-108.3 108.63,-110.56"/>
<polygon fill="#63b8ff" stroke="#63b8ff" points="58.45,-60.49 48.28,-57.53 54.38,-66.19 58.45,-60.49"/>
</a>
</g>
</g>
<!-- Node2&#45;&gt;Node5 -->
<g id="edge28_Node000002_Node000005" class="edge">
<title>Node2&#45;&gt;Node5</title>
<g id="a_edge28_Node000002_Node000005"><a xlink:title=" ">
<path fill="none" stroke="#63b8ff" d="M64.51,-58.31C78.96,-63.21 95.58,-68.84 109.48,-73.54"/>
<polygon fill="#63b8ff" stroke="#63b8ff" points="66,-55.12 55.41,-55.23 63.76,-61.75 66,-55.12"/>
</a>
</g>
</g>
</g>
</svg>
